<?xml version="1.0" encoding="utf-8"?>
<!-- Generator: Adobe Illustrator 19.0.0, SVG Export Plug-In . SVG Version: 6.00 Build 0)  -->
<svg version="1.1" id="Layer_1" xmlns="http://www.w3.org/2000/svg" xmlns:xlink="http://www.w3.org/1999/xlink" x="0px" y="0px"
	 viewBox="-432 233 94 96" style="enable-background:new -432 233 94 96;" xml:space="preserve">
<style type="text/css">
	.st0{fill:#05293D;}
	.st1{fill:#EFE7BE;}
	.st2{font-family:'SolexBlack';}
	.st3{font-size:29.9644px;}
	.st4{font-size:14px;}
</style>
<g id="XMLID_5_">
	<path id="XMLID_6_" class="st0" d="M-385,329c-11.7,0-22.9-4.5-31.3-12.7c-8.9-8.6-13.8-20.1-13.8-32.4c0-11.3,4.2-22.1,11.8-30.5
		c8.6-9.3,20.7-14.7,33.3-14.7c12.6,0,24.7,5.3,33.3,14.6c7.6,8.3,11.9,19.2,11.9,30.5c0,14.1-6.4,27.1-17.5,35.7
		C-365.5,325.7-375,329-385,329z M-385,241c-12,0-23.5,5.1-31.6,13.9c-7.2,8-11.2,18.2-11.2,29c0,11.7,4.6,22.7,13.1,30.8
		c8,7.8,18.6,12,29.8,12c9.6,0,18.6-3.1,26.2-8.9c10.6-8.2,16.6-20.5,16.6-33.9c0-10.7-4-21-11.3-28.9C-361.5,246.1-373,241-385,241
		z"/>
</g>
<g id="XMLID_3_">
	<path id="XMLID_4_" class="st1" d="M-352.6,261c-1.9,0-3.7-0.8-5.1-2.2c-7-7.6-17-12-27.3-12c-3.8,0-6.9-3.1-6.9-6.9
		c0-3.8,3.1-6.9,6.9-6.9c14.2,0,27.9,6,37.5,16.5c2.6,2.8,2.4,7.2-0.4,9.7C-349.2,260.4-351,261-352.6,261z"/>
</g>
<text id="XMLID_2_" transform="matrix(1 0 0 1 -408.271 283.9316)" class="st1 st2 st3">17%</text>
<text transform="matrix(1 0 0 1 -396.5217 309.2588)" class="st1 st2 st4">MEN</text>
</svg>
