<?xml version="1.0" encoding="utf-8"?>
<!-- Generator: Adobe Illustrator 19.0.0, SVG Export Plug-In . SVG Version: 6.00 Build 0)  -->
<svg version="1.1" id="Layer_1" xmlns="http://www.w3.org/2000/svg" xmlns:xlink="http://www.w3.org/1999/xlink" x="0px" y="0px"
	 viewBox="-432 233 94 96" style="enable-background:new -432 233 94 96;" xml:space="preserve">
<style type="text/css">
	.st0{fill:#05293D;}
	.st1{fill:#EFE7BE;}
	.st2{font-family:'SolexBlack';}
	.st3{font-size:28.9629px;}
	.st4{font-size:14px;}
</style>
<g id="XMLID_5_">
	<path id="XMLID_6_" class="st0" d="M-387.8,327.4c-11.4,0-22.1-4.4-30.3-12.2c-8.6-8.3-13.3-19.5-13.3-31.4
		c0-10.9,4.1-21.4,11.4-29.4c8.2-9,20-14.2,32.2-14.2c12.2,0,23.9,5.2,32.2,14.1c7.4,8.1,11.5,18.5,11.5,29.5
		c0,13.6-6.2,26.2-17,34.5C-368.8,324.2-378,327.4-387.8,327.4z M-387.8,242.4c-11.6,0-22.7,4.9-30.5,13.5
		c-7,7.6-10.9,17.6-10.9,27.9c0,11.3,4.5,21.9,12.6,29.8c7.8,7.5,18,11.6,28.8,11.6c9.3,0,18-3,25.3-8.6
		c10.2-7.9,16.1-19.9,16.1-32.8c0-10.4-3.9-20.3-10.9-28C-365.1,247.3-376.2,242.4-387.8,242.4z"/>
</g>
<g id="XMLID_3_">
	<path id="XMLID_4_" class="st1" d="M-345.3,290.4c-3.7,0-6.7-3-6.7-6.7c0-9-3.3-17.6-9.4-24.2c-6.8-7.4-16.4-11.6-26.4-11.6
		c-3.7,0-6.7-3-6.7-6.7s3-6.7,6.7-6.7c13.7,0,27,5.8,36.2,15.9c8.3,9.1,12.9,20.9,12.9,33.2C-338.6,287.5-341.6,290.4-345.3,290.4z"
		/>
</g>
<text id="XMLID_2_" transform="matrix(1 0 0 1 -410.7124 285.4981)" class="st1 st2 st3">21%</text>
<text transform="matrix(1 0 0 1 -407.6503 309.0649)" class="st1 st2 st4">WOMEN</text>
</svg>
