<?xml version="1.0" encoding="utf-8"?>
<!-- Generator: Adobe Illustrator 19.0.0, SVG Export Plug-In . SVG Version: 6.00 Build 0)  -->
<svg version="1.1" id="Layer_1" xmlns="http://www.w3.org/2000/svg" xmlns:xlink="http://www.w3.org/1999/xlink" x="0px" y="0px"
	 viewBox="-241 333 128 128" style="enable-background:new -241 333 128 128;" xml:space="preserve">
<style type="text/css">
	.st0{fill:#FFD3AB;}
	.st1{fill:#E4BC99;}
	.st2{fill:#546C78;}
	.st3{fill:#A6BDCC;}
	.st4{fill:#6A8897;}
	.st5{fill:#DBDDCC;}
	.st6{fill:#936342;}
</style>
<g>
	<g>
		<path class="st0" d="M-128.4,438.8c-0.6-17.5-5.9-18.7-15.4-20.3c-9.5-1.7-21.9,2.6-23.7-3.1c-1.8-5.6,0-13,0-13h-18.9
			c0,0,1.8,7.4,0,13c-1.8,5.6-14.2,1.4-23.7,3.1c-9.5,1.7-14.8,2.9-15.4,20.3c-0.6,17.5,1.8,22.2,1.8,22.2h93.6
			C-130.2,461-127.8,456.3-128.4,438.8z"/>
		<path class="st1" d="M-177.1,418c2-3.6,5.5-6.6,8.8-9c0.1-3.7,0.8-6.7,0.8-6.7h-18.9c0,0,1.8,7.4,0,13c-1.2,3.9-7.6,3.1-14.6,2.7
			C-186.6,422.5-180.9,424.9-177.1,418z"/>
	</g>
	<path class="st2" d="M-128.4,438.8c-0.6-17.5-5.9-18.7-15.4-20.3c-5.5-1-12,0-16.8,0c0,0.1,0,0.1,0.1,0.2
		c0.6,2.4-7.3,15.1-7.3,15.1c-2.8-6.5-9.1-8.9-9.1-8.9s-6.3,2.4-9.1,8.9c0,0-7.9-12.8-7.3-15.1c0-0.1,0-0.1,0.1-0.2
		c-4.8,0.1-11.3-0.9-16.8,0c-9.5,1.7-14.8,2.9-15.4,20.3c-0.6,17.5,1.8,22.2,1.8,22.2h93.6C-130.2,461-127.8,456.3-128.4,438.8z"/>
	<path class="st3" d="M-177,424.8c-3-1-7.9,0.4-7.9,4.1c0,0.8,0,1.6,0.1,2.3c0.8,9.7,6.5,17.1,7.8,17.1c1.3,0,7-7.5,7.8-17.1
		c0.1-0.8,0.1-1.5,0.1-2.3C-169.1,425.3-174,423.8-177,424.8z"/>
	<g>
		<path class="st4" d="M-186.1,414.1c0,0,3,8.6,9.1,10.7c0,0-6.3,2.4-9.1,8.9c0,0-7.9-12.8-7.3-15.1
			C-192.8,416.2-189.6,414.4-186.1,414.1z"/>
		<path class="st4" d="M-167.9,414.1c0,0-3,8.6-9.1,10.7c0,0,6.3,2.4,9.1,8.9c0,0,7.9-12.8,7.3-15.1
			C-161.2,416.2-164.5,414.4-167.9,414.1z"/>
	</g>
	<g>
		<circle class="st5" cx="-177" cy="432.5" r="1.4"/>
		<circle class="st5" cx="-177" cy="439.9" r="1.4"/>
	</g>
	<g>
		<g>
			<g>
				<path class="st1" d="M-194.4,375.5c0,0-7.1-6.2-10.3,0c-3.1,6.2,8.9,17.3,12.6,15.4C-188.4,389-194.4,375.5-194.4,375.5z"/>
				<path class="st1" d="M-159.6,375.5c0,0,7.1-6.2,10.3,0c3.1,6.2-8.9,17.3-12.6,15.4C-165.6,389-159.6,375.5-159.6,375.5z"/>
			</g>
			<path class="st0" d="M-156.2,362.8C-156.8,346-173.8,346-177,346c-3.2,0-20.2,0-20.8,16.8c-0.6,16.7,0.3,28.9,4,34.3
				c3.7,5.3,12.5,8.2,16.8,8.2c4.3,0,13.1-2.8,16.8-8.2C-156.5,391.7-155.6,379.5-156.2,362.8z"/>
		</g>
		<path class="st1" d="M-172.2,382.3c0,0-0.7,3.8-4.8,3.8c-4.1,0-4.8-3.8-4.8-3.8c-0.2-0.7-0.7-0.5-0.4,2.1c0.2,2.1,3.7,3.1,5.2,3.1
			c1.5,0,5-1,5.2-3.1C-171.5,381.8-172,381.6-172.2,382.3z"/>
		<path class="st1" d="M-172.3,394.5c0,0-0.6,0.9-4.7,0.9c-4.1,0-4.7-0.9-4.7-0.9c-0.5,0.5-0.4,1.2,0.7,1.4c0.9,0.2,2.2,0.3,4,0.3
			c1.8,0,3.1-0.1,4-0.3C-171.9,395.7-171.8,395-172.3,394.5z"/>
		<path class="st1" d="M-171.1,392.9c0,0-1.6-0.6-3.4-0.4c-1.1,0.1-2.1,0.3-2.6,0.3c-0.5,0-1.5-0.2-2.6-0.3
			c-1.8-0.2-3.4,0.4-3.4,0.4c-0.4,0.2-0.2,0.4,0.2,0.3c0.4-0.1,1.9-0.4,2.4-0.5c0.3-0.1,2.5,0.3,3.4,0.3c0.9,0,3-0.4,3.4-0.3
			c0.4,0.1,1.9,0.5,2.4,0.5C-170.8,393.3-170.6,393.1-171.1,392.9z"/>
		<path class="st6" d="M-155.8,371.4c-0.1-2.2-1.2-0.9-1.4,1.7c0,0-1.1,11.7-4.2,14.4c-2.9,2.6-5,3.2-7.2,4c-1.9-1-2.2-1.8-4.6-2.7
			c-2.1-0.8-3.4-0.1-3.8,0.1c-0.4-0.3-1.7-0.9-3.8-0.1c-2.3,0.9-2.6,1.7-4.6,2.7c-2.2-0.8-4.3-1.5-7.2-4c-3.2-2.8-4.2-14.4-4.2-14.4
			c-0.2-2.6-1.3-3.9-1.4-1.7c-0.1,2.2-0.9,4.3-0.7,7.8c0.2,3.4,1.6,9.4,2,12.1c0.3,2.7,2.2,5.9,3.9,8.4c1.6,2.6,4.2,4,7,4.3
			c2.8,0.3,7,3.2,9.1,3.2c2.1,0,6.3-2.9,9.1-3.2c2.8-0.3,5.4-1.8,7-4.3c1.6-2.6,3.5-5.8,3.9-8.4c0.4-2.7,1.8-8.7,2-12.1
			C-154.8,375.7-155.7,373.6-155.8,371.4z M-174,396.7c-1.7,0.4-2.6,0.5-3,0.7c-0.4-0.2-1.3-0.3-3-0.7c-2.6-0.6-3-1.9-3.3-3.1
			c1.8-0.8,3.8-2.1,5.9-1.9c0.1,0,0.2,0,0.4,0c0.1,0,0.3,0,0.4,0c2.2-0.1,4.1,1.1,5.9,1.9C-171,394.8-171.4,396.1-174,396.7z"/>
		<path class="st6" d="M-155.3,365.9c-0.3-5.9,0.4-10.2-3.1-13.5c-3.6-3.3-4.7-4.7-8.3-5.8c-3.6-1-8.2-2.1-10.3-2.1
			c-2,0-6.7,1.1-10.3,2.1c-3.6,1-4.7,2.5-8.3,5.8c-3.6,3.3-2.8,7.6-3.1,13.5c-0.3,5.9,0.9,5.6,1.2,4.3c0.3-1.3,1.8-1.9,2.4-3.7
			c0.6-1.8,0.7-4.4,0.1-6.7c-0.6-2.2,4.7-4.9,6.4-8c1.6-3.1,8.7-4.3,11.6-4.3c2.9,0,10,1.2,11.6,4.3c1.6,3.1,7,5.8,6.4,8
			c-0.6,2.2-0.4,4.9,0.1,6.7c0.6,1.8,2.1,2.4,2.4,3.7C-156.2,371.5-155,371.8-155.3,365.9z"/>
	</g>
</g>
</svg>
