<?xml version="1.0" encoding="utf-8"?>
<!-- Generator: Adobe Illustrator 19.0.0, SVG Export Plug-In . SVG Version: 6.00 Build 0)  -->
<svg version="1.1" id="Layer_1" xmlns="http://www.w3.org/2000/svg" xmlns:xlink="http://www.w3.org/1999/xlink" x="0px" y="0px"
	 viewBox="-241 333 128 128" style="enable-background:new -241 333 128 128;" xml:space="preserve">
<style type="text/css">
	.st0{fill:#9C4A27;}
	.st1{fill:#FFD3AB;}
	.st2{fill:#81C7CC;}
	.st3{fill:#E4BC99;}
	.st4{fill:#EA4152;}
	.st5{fill:#FF5C66;}
	.st6{fill:#FFFFFF;}
	.st7{fill:#E0F4E5;}
	.st8{fill:#B0542C;}
</style>
<g>
	<path class="st0" d="M-150.6,414.6c-7.6-12.9,7.6-27.1,0.4-50.7C-157.2,340.4-175,342-177,342c-2,0-19.8-1.6-26.9,21.9
		c-7.1,23.6,8,37.8,0.4,50.7c-7.6,12.9,1.8,18.2,17.3,18.7c3.6,0.1,6.6,0.1,9.1,0.1c2.5,0,5.5,0,9.1-0.1
		C-152.3,432.8-143,427.5-150.6,414.6z"/>
	<path class="st1" d="M-132.9,438.8c-0.6-17.5-3.3-20-12.7-21.7c-9.5-1.7-21.9,6.1-23.7,0.5c-1.8-5.6,0-15.3,0-15.3h-15.4
		c0,0,1.8,9.6,0,15.3c-1.8,5.6-14.2-2.2-23.7-0.5c-9.5,1.7-12.1,4.2-12.7,21.7c-0.6,17.5,2.2,22.2,2.2,22.2h83.8
		C-135.1,461-132.3,456.3-132.9,438.8z"/>
	<path class="st2" d="M-146.1,443.9c1.3-9.7,4.1-18.3,7.7-24.4c-1.8-1.2-4.2-1.8-7.2-2.4c-5.5-1-12,1.3-16.9,2.2
		c-1.1,10.8-7.1,19.2-14.5,19.2c-7.4,0-13.5-8.3-14.5-19.2c-4.8-0.9-11.4-3.2-16.9-2.2c-3.1,0.5-5.4,1.2-7.2,2.4
		c3.6,6.1,6.4,14.7,7.7,24.4c0.8,6.1,1.2,17.1,1.2,17.1h59.5C-147.3,461-146.8,450-146.1,443.9z"/>
	<path class="st3" d="M-173.4,411.2c1.2-1.2,2.3-2.2,3.4-3c0.2-3.3,0.7-5.9,0.7-5.9h-15.4c0,0,1.8,9.6,0,15.3
		c-0.6,2-2.7,2.3-5.4,1.9C-180.9,422.9-177.7,415.8-173.4,411.2z"/>
	<g>
		<g>
			<path class="st3" d="M-193.4,375.5c0,0-6.8-6.2-9.7,0c-3,6.2,8.4,17.3,11.9,15.4C-187.7,389-193.4,375.5-193.4,375.5z"/>
			<path class="st3" d="M-160.6,375.5c0,0,6.8-6.2,9.7,0c3,6.2-8.4,17.3-11.9,15.4C-166.3,389-160.6,375.5-160.6,375.5z"/>
		</g>
		<path class="st1" d="M-157.3,362.8C-157.9,346-174,346-177,346c-3,0-19.1,0-19.7,16.8c-0.5,16.7,0.3,28.9,3.8,34.3
			c3.5,5.3,11.8,11.7,15.9,11.7c4.1,0,12.4-6.4,15.9-11.7C-157.6,391.7-156.8,379.5-157.3,362.8z"/>
	</g>
	<g>
		<path class="st4" d="M-171.9,395.3c0,0-3.7,1.1-5.1,1.1c-1.4,0-5.1-1.1-5.1-1.1c-0.6,2.6,3.8,3.2,5.1,3.2
			C-175.7,398.5-171.3,397.9-171.9,395.3z"/>
		<path class="st5" d="M-173.6,393.7c-1.8-1.7-2.8-1.1-3.4-0.7c0,0,0,0,0,0c0,0,0,0,0,0c-0.6-0.4-1.6-0.9-3.4,0.7
			c-1.8,1.7-3,1.4-3,1.4s3,1.7,4.5,0.9c1.5-0.8,1.3,0,1.9,0c0.6,0,0.5-0.8,1.9,0c1.5,0.8,4.5-0.9,4.5-0.9S-171.8,395.3-173.6,393.7z
			"/>
		<path class="st6" d="M-179.2,396c0.1,0,0.2-0.1,0.3-0.1c1.5-0.8,1.3-0.3,1.9-0.3c0.6,0,0.5-0.5,1.9,0.3c0.1,0,0.2,0.1,0.3,0.1
			c-0.9,0.2-1.7,0.3-2.2,0.3C-177.5,396.4-178.4,396.2-179.2,396z"/>
	</g>
	<path class="st7" d="M-177,445c11.7,0,21.2-11.7,21.2-26.2c0-0.3,0-0.6,0-1c-2.4,0.5-4.7,1.1-6.7,1.5c-1.1,10.8-7.1,19.2-14.5,19.2
		c-7.4,0-13.5-8.3-14.5-19.2c-2-0.4-4.3-1-6.7-1.5c0,0.3,0,0.6,0,1C-198.2,433.2-188.7,445-177,445z"/>
	<g>
		<path class="st7" d="M-215.7,419.5c0,0-2.6-1.7-4.5,0.9c-1.9,2.6,2.5,3.5,3.4,3.5c0,0-3.3,1.7-2.7,3.6c0.6,1.9,4.9,1.4,4.9,1.4
			s-2.6,2.3-1.2,4.2c1.4,1.9,3.8,1,3.8,1s-3,3-1.2,4.7c1.8,1.8,4.4-0.1,4.4-0.1s0.5-7.3-2.5-12.9
			C-214.3,420.2-215.7,419.5-215.7,419.5z"/>
		<path class="st7" d="M-138.3,419.5c0,0,2.6-1.7,4.5,0.9c1.9,2.6-2.5,3.5-3.4,3.5c0,0,3.3,1.7,2.7,3.6c-0.6,1.9-4.9,1.4-4.9,1.4
			s2.6,2.3,1.2,4.2c-1.4,1.9-3.8,1-3.8,1s3,3,1.2,4.7c-1.8,1.8-4.4-0.1-4.4-0.1s-0.5-7.3,2.5-12.9
			C-139.7,420.2-138.3,419.5-138.3,419.5z"/>
	</g>
	<path class="st8" d="M-177,344c-29.9,0-19.9,33.4-19.9,33.4s2.8-12.6,5.2-14.5c2.4-1.9,8.9-3.9,13,1.2c0.6,0.7,1.1,1.4,1.6,2
		c3.2,4,7.2,7.3,10.3,9.4c4,2.7,9.6,1.9,9.6,1.9S-147.1,344-177,344z"/>
	<path class="st3" d="M-173.1,386.4c0,0-1.9,2.5-3.9,2.5c-2.1,0-3.9-2.5-3.9-2.5s0.5,3.6,3.9,3.6
		C-173.6,389.9-173.1,386.4-173.1,386.4z"/>
</g>
</svg>
