<?xml version="1.0" encoding="utf-8"?>
<!-- Generator: Adobe Illustrator 19.0.0, SVG Export Plug-In . SVG Version: 6.00 Build 0)  -->
<svg version="1.1" id="Layer_1" xmlns="http://www.w3.org/2000/svg" xmlns:xlink="http://www.w3.org/1999/xlink" x="0px" y="0px"
	 viewBox="0 0 612 792" style="enable-background:new 0 0 612 792;" xml:space="preserve">
<g id="XMLID_2_">
	<path id="XMLID_4_" d="M356.4,454.4c0,1-0.4,2-1.3,2.7l-47,37.4c-1.2,1-3,1-4.3,0l-47-37.4c-1.5-1.2-1.7-3.3-0.5-4.8
		c1.2-1.5,3.3-1.7,4.8-0.6l44.9,35.7l44.9-35.7c1.5-1.2,3.6-0.9,4.8,0.6C356.2,452.9,356.4,453.6,356.4,454.4z"/>
	<path id="XMLID_3_" d="M309.4,300.2v191.5c0,1.9-1.5,3.4-3.4,3.4s-3.4-1.5-3.4-3.4V300.2c0-1.9,1.5-3.4,3.4-3.4
		S309.4,298.4,309.4,300.2z"/>
</g>
</svg>
