<?xml version="1.0" encoding="utf-8"?>
<!-- Generator: Adobe Illustrator 19.0.0, SVG Export Plug-In . SVG Version: 6.00 Build 0)  -->
<svg version="1.1" id="Layer_1" xmlns="http://www.w3.org/2000/svg" xmlns:xlink="http://www.w3.org/1999/xlink" x="0px" y="0px"
	 viewBox="-241 333 128 128" style="enable-background:new -241 333 128 128;" xml:space="preserve">
<style type="text/css">
	.st0{fill:#A1B963;}
</style>
<g>
	<path class="st0" d="M-234.2,352.3c0-6.9,5.6-12.5,12.5-12.5h89.5c6.9,0,12.5,5.6,12.5,12.5v89.5c0,6.9-5.6,12.5-12.5,12.5h-89.5
		c-6.9,0-12.5-5.6-12.5-12.5V352.3z"/>
	<path class="st0" d="M-221.7,338.2h89.5c7.7,0,14,6.3,14,14v89.5c0,7.7-6.3,14-14,14h-89.5c-7.7,0-14-6.3-14-14v-89.5
		C-235.8,344.5-229.5,338.2-221.7,338.2L-221.7,338.2z M-132.3,452.7c6,0,10.9-4.9,10.9-10.9v-89.5c0-6-4.9-10.9-10.9-10.9h-89.5
		c-6,0-10.9,4.9-10.9,10.9v89.5c0,6,4.9,10.9,10.9,10.9H-132.3L-132.3,452.7z"/>
</g>
</svg>
