<?xml version="1.0" encoding="utf-8"?>
<!-- Generator: Adobe Illustrator 19.0.0, SVG Export Plug-In . SVG Version: 6.00 Build 0)  -->
<svg version="1.1" id="Layer_1" xmlns="http://www.w3.org/2000/svg" xmlns:xlink="http://www.w3.org/1999/xlink" x="0px" y="0px"
	 viewBox="0 0 612 792" style="enable-background:new 0 0 612 792;" xml:space="preserve">
<style type="text/css">
	.st0{fill:#FFFFFF;}
	.st1{fill:#D63A26;}
</style>
<path id="XMLID_2_" class="st0" d="M362.8,458.3c-6.1,0-6.1,9,0.5,9C369.4,467.3,368.9,458.3,362.8,458.3z"/>
<path id="XMLID_3_" class="st1" d="M483.4,272.7c-7.8,0-7.8,16.7,0.8,16.7C492,289.4,492,272.7,483.4,272.7z"/>
<path id="XMLID_8_" class="st1" d="M239.2,222.6c-7.8,0-7.8,16.7,0.8,16.7C247.8,239.3,247.8,222.6,239.2,222.6z"/>
<path id="XMLID_7_" class="st0" d="M298.4,292.4c-6.1,0-6.1,9,0.5,9C305,301.4,304.5,292.4,298.4,292.4z"/>
<path id="XMLID_6_" class="st1" d="M544.6,395.3c-4.4,0-4.4,9.4,0.4,9.4C549.5,404.7,549.5,395.3,544.6,395.3z"/>
<path id="XMLID_9_" class="st0" d="M272.8,392.4c-6.1,0-6.1,9,0.5,9C279.4,401.4,279,392.4,272.8,392.4z"/>
<path id="XMLID_10_" class="st0" d="M300.7,316.2c-6.1,0-6.1,9,0.5,9C307.3,325.2,306.8,316.2,300.7,316.2z"/>
<path id="XMLID_11_" class="st0" d="M234.6,476.7c-10.2,0-10.2,14.9,0.8,14.9C245.6,491.6,244.8,476.7,234.6,476.7z"/>
<path id="XMLID_12_" class="st0" d="M623.4,720.9c-10.4,0-10.4,15.2,0.8,15.2C634.6,736.1,633.8,720.9,623.4,720.9z"/>
<path id="XMLID_16_" class="st1" d="M783.9,616.4c-7.8,0-7.8,16.7,0.8,16.7C792.5,633.1,792.5,616.4,783.9,616.4z"/>
<path id="XMLID_15_" class="st1" d="M246.5,498.6c-6.5,0-6.5,13.9,0.7,13.9C253.7,512.5,253.7,498.6,246.5,498.6z"/>
<path id="XMLID_14_" class="st1" d="M396.9,442.1c-4.4,0-4.4,9.3,0.4,9.3C401.7,451.4,401.7,442.1,396.9,442.1z"/>
<path id="XMLID_13_" class="st1" d="M-21.3,552.6c-9,0-9,19.1,0.9,19.1C-11.4,571.7-11.4,552.6-21.3,552.6z"/>
<path id="XMLID_20_" class="st1" d="M485.3,720.2c-7.8,0-7.8,16.7,0.8,16.7C493.9,736.9,493.9,720.2,485.3,720.2z"/>
<path id="XMLID_19_" class="st1" d="M-40.3,681.6c-8.9,0-8.9,19,0.9,19C-30.5,700.6-30.5,681.6-40.3,681.6z"/>
<path id="XMLID_18_" class="st1" d="M676.8,670.1c-7.8,0-7.8,16.7,0.8,16.7C685.4,686.8,685.4,670.1,676.8,670.1z"/>
<path id="XMLID_17_" class="st1" d="M-199.8,711c-10.8,0-10.8,23,1.1,23C-188,734-188,711-199.8,711z"/>
<path id="XMLID_24_" class="st1" d="M559.4,165.9c-5.6,0-5.6,11.8,0.6,11.8C565.6,177.8,565.6,165.9,559.4,165.9z"/>
<path id="XMLID_23_" class="st1" d="M30.4,100.2c-7.8,0-7.8,16.7,0.8,16.7C39.1,116.9,39.1,100.2,30.4,100.2z"/>
<path id="XMLID_22_" class="st1" d="M136.9,58.4c-7.8,0-7.8,16.7,0.8,16.7C145.5,75.1,145.5,58.4,136.9,58.4z"/>
<path id="XMLID_28_" class="st1" d="M814.2,122.1c-7.8,0-7.8,16.7,0.8,16.7C822.8,138.8,822.8,122.1,814.2,122.1z"/>
<path id="XMLID_26_" class="st1" d="M713.7,10.7c-7.8,0-7.8,16.7,0.8,16.7C722.3,27.4,722.3,10.7,713.7,10.7z"/>
<path id="XMLID_29_" class="st0" d="M403,301.4c-11.2,0-11.2,16.4,0.9,16.4C415,317.9,414.2,301.4,403,301.4z"/>
<path id="XMLID_32_" class="st0" d="M28.4,339.4c-6.1,0-6.1,9,0.5,9C35,348.4,34.6,339.4,28.4,339.4z"/>
<path id="XMLID_31_" class="st0" d="M30.7,363.2c-6.1,0-6.1,9,0.5,9C37.3,372.2,36.9,363.2,30.7,363.2z"/>
<path id="XMLID_30_" class="st0" d="M133,348.4c-11.2,0-11.2,16.4,0.9,16.4C145.1,364.8,144.2,348.4,133,348.4z"/>
<path id="XMLID_35_" class="st0" d="M78.8,484.2c-6.1,0-6.1,9,0.5,9C85.5,493.2,85,484.2,78.8,484.2z"/>
<path id="XMLID_34_" class="st0" d="M81.1,508c-6.1,0-6.1,9,0.5,9C87.8,517,87.3,508,81.1,508z"/>
<path id="XMLID_33_" class="st0" d="M49.3,704.5c-7,0-7,10.3,0.5,10.3C56.9,714.8,56.4,704.5,49.3,704.5z"/>
<path id="XMLID_38_" class="st0" d="M637.7,384.4c-6.1,0-6.1,9,0.5,9C644.3,393.4,643.8,384.4,637.7,384.4z"/>
<path id="XMLID_37_" class="st0" d="M618.8,623.8c-6.1,0-6.1,9,0.5,9C625.5,632.8,625,623.8,618.8,623.8z"/>
<path id="XMLID_36_" class="st0" d="M721.1,609c-11.2,0-11.2,16.4,0.9,16.4C733.2,625.4,732.3,609,721.1,609z"/>
<path id="XMLID_41_" class="st0" d="M-107.6,730.4c-6.1,0-6.1,9,0.5,9C-101,739.4-101.5,730.4-107.6,730.4z"/>
<path id="XMLID_40_" class="st0" d="M-2.6,749.7c-6.1,0-6.1,9,0.5,9C4.1,758.7,3.6,749.7-2.6,749.7z"/>
<path id="XMLID_39_" class="st0" d="M426.6,701c-5.7,0-5.7,8.3,0.4,8.3C432.7,709.2,432.3,701,426.6,701z"/>
<path id="XMLID_44_" class="st0" d="M70.3,600.7c-6.1,0-6.1,9,0.5,9C76.9,609.8,76.4,600.7,70.3,600.7z"/>
<path id="XMLID_43_" class="st0" d="M177.1,551.4c-6.1,0-6.1,9,0.5,9C183.7,560.4,183.2,551.4,177.1,551.4z"/>
<path id="XMLID_42_" class="st0" d="M174.9,609.8c-11.2,0-11.2,16.4,0.9,16.4C186.9,626.2,186.1,609.8,174.9,609.8z"/>
<path id="XMLID_46_" class="st0" d="M647.1,145.2c-6.1,0-6.1,9,0.5,9C653.7,154.2,653.2,145.2,647.1,145.2z"/>
<path id="XMLID_45_" class="st0" d="M749.4,130.4c-11.2,0-11.2,16.4,0.9,16.4C761.4,146.9,760.6,130.4,749.4,130.4z"/>
<path id="XMLID_48_" class="st0" d="M-102.9,161.7c-6.1,0-6.1,9,0.5,9C-96.3,170.7-96.8,161.7-102.9,161.7z"/>
<path id="XMLID_47_" class="st0" d="M-0.6,146.9c-11.2,0-11.2,16.4,0.9,16.4C11.4,163.3,10.6,146.9-0.6,146.9z"/>
<path id="XMLID_50_" class="st0" d="M-230.4,498.9c-6.1,0-6.1,9,0.5,9C-223.7,508-224.2,498.9-230.4,498.9z"/>
<path id="XMLID_49_" class="st0" d="M-128.1,484.2c-11.2,0-11.2,16.4,0.9,16.4C-116,500.6-116.9,484.2-128.1,484.2z"/>
<path id="XMLID_54_" class="st1" d="M302,616.4c-8.9,0-8.9,19,0.9,19C311.8,635.3,311.8,616.4,302,616.4z"/>
<path id="XMLID_53_" class="st1" d="M138.1,657.2c-5.4,0-5.4,11.5,0.5,11.5C144,668.7,144,657.2,138.1,657.2z"/>
<path id="XMLID_52_" class="st0" d="M337.5,660.6c-6.1,0-6.1,9,0.5,9C344.1,669.7,343.6,660.6,337.5,660.6z"/>
<path id="XMLID_51_" class="st0" d="M234.7,724.8c-6.1,0-6.1,9,0.5,9C241.3,733.8,240.9,724.8,234.7,724.8z"/>
<path id="XMLID_55_" class="st1" d="M595.2,77c-5.4,0-5.4,11.5,0.5,11.5C601.1,88.5,601.1,77,595.2,77z"/>
<path id="XMLID_27_" class="st1" d="M397.8,71.3c-5.4,0-5.4,11.5,0.5,11.5C403.7,82.8,403.7,71.3,397.8,71.3z"/>
<path id="XMLID_56_" class="st1" d="M256,116.3c-5.4,0-5.4,11.5,0.5,11.5C261.9,127.8,261.9,116.3,256,116.3z"/>
<path id="XMLID_57_" class="st1" d="M462.9,149.3c-5.4,0-5.4,11.5,0.5,11.5C468.8,160.8,468.8,149.3,462.9,149.3z"/>
<path id="XMLID_58_" class="st1" d="M124.4,357.4c-5.4,0-5.4,11.5,0.5,11.5C130.4,368.9,130.4,357.4,124.4,357.4z"/>
<path id="XMLID_59_" class="st1" d="M367.4,370.3c-5.4,0-5.4,11.5,0.5,11.5C373.3,381.8,373.3,370.3,367.4,370.3z"/>
<path id="XMLID_25_" class="st1" d="M-235.2,65.5c-5.4,0-5.4,11.5,0.5,11.5C-229.2,77-229.2,65.5-235.2,65.5z"/>
<path id="XMLID_60_" class="st1" d="M882.2,295.7c-5.4,0-5.4,11.5,0.5,11.5C888.2,307.2,888.2,295.7,882.2,295.7z"/>
<path id="XMLID_61_" class="st1" d="M911.1,566c-5.4,0-5.4,11.5,0.5,11.5C917,577.5,917,566,911.1,566z"/>
<path id="XMLID_62_" class="st1" d="M927.2,434.8c-5.4,0-5.4,11.5,0.5,11.5C933.1,446.3,933.1,434.8,927.2,434.8z"/>
<path id="XMLID_63_" class="st1" d="M120.2,579.4c-5.4,0-5.4,11.5,0.5,11.5C126.1,590.9,126.1,579.4,120.2,579.4z"/>
<path id="XMLID_64_" class="st1" d="M489.7,49.9c-5.4,0-5.4,11.5,0.5,11.5C495.7,61.4,495.7,49.9,489.7,49.9z"/>
<path id="XMLID_65_" class="st1" d="M-254.2,366.4c-5.4,0-5.4,11.5,0.5,11.5C-248.3,377.9-248.3,366.4-254.2,366.4z"/>
<path id="XMLID_66_" class="st1" d="M78.7,199.4c-5.4,0-5.4,11.5,0.5,11.5C84.7,210.9,84.7,199.4,78.7,199.4z"/>
<path id="XMLID_67_" class="st1" d="M68.8,486.6c-5.4,0-5.4,11.5,0.5,11.5C74.7,498.1,74.7,486.6,68.8,486.6z"/>
<path id="XMLID_68_" class="st1" d="M-314.8,622.5c-5.4,0-5.4,11.5,0.5,11.5C-308.8,634-308.8,622.5-314.8,622.5z"/>
<path id="XMLID_69_" class="st1" d="M-378.9,283.6c-5.4,0-5.4,11.5,0.5,11.5C-373,295.1-373,283.6-378.9,283.6z"/>
<path id="XMLID_70_" class="st1" d="M-283,160.4c-5.4,0-5.4,11.5,0.5,11.5C-277.1,171.9-277.1,160.4-283,160.4z"/>
<path id="XMLID_1_" class="st1" d="M-119.5,325.2c-5.4,0-5.4,11.5,0.5,11.5C-113.6,336.7-113.6,325.2-119.5,325.2z"/>
<path id="XMLID_4_" class="st1" d="M-84.2-25.1c-5.4,0-5.4,11.5,0.5,11.5C-78.2-13.6-78.2-25.1-84.2-25.1z"/>
<path id="XMLID_5_" class="st1" d="M-422-5.7c-5.4,0-5.4,11.5,0.5,11.5C-416.1,5.7-416.1-5.7-422-5.7z"/>
<path id="XMLID_21_" class="st1" d="M-136.6,122.1c-5.4,0-5.4,11.5,0.5,11.5C-130.7,133.6-130.7,122.1-136.6,122.1z"/>
<path id="XMLID_71_" class="st0" d="M358.1,190.3c-6.1,0-6.1,9,0.5,9C364.7,199.4,364.2,190.3,358.1,190.3z"/>
<path id="XMLID_72_" class="st0" d="M-208,14.6c-6.1,0-6.1,9,0.5,9C-201.3,23.6-201.8,14.6-208,14.6z"/>
<path id="XMLID_73_" class="st0" d="M-426.2,66.8c-6.1,0-6.1,9,0.5,9C-419.5,75.8-420,66.8-426.2,66.8z"/>
<path id="XMLID_74_" class="st0" d="M-477.1,218.1c-6.1,0-6.1,9,0.5,9C-470.4,227.2-470.9,218.1-477.1,218.1z"/>
<path id="XMLID_75_" class="st0" d="M-300.6-4.5c-6.1,0-6.1,9,0.5,9C-294,4.5-294.4-4.5-300.6-4.5z"/>
<path id="XMLID_76_" class="st0" d="M-448.4,462.8c-6.1,0-6.1,9,0.5,9C-441.7,471.9-442.2,462.8-448.4,462.8z"/>
<path id="XMLID_77_" class="st0" d="M-355.9,517c-6.1,0-6.1,9,0.5,9C-349.3,526-349.7,517-355.9,517z"/>
<path id="XMLID_78_" class="st0" d="M-521.4,677.1c-6.1,0.1-6,9.1,0.6,9C-514.6,686-515.2,677-521.4,677.1z"/>
<path id="XMLID_79_" class="st0" d="M721.3,218.1c-6.1,0-6.1,9,0.5,9C727.9,227.2,727.4,218.1,721.3,218.1z"/>
<path id="XMLID_80_" class="st0" d="M839.9,472.2c-6.1,0-6.1,9,0.5,9C846.5,481.2,846,472.2,839.9,472.2z"/>
<path id="XMLID_81_" class="st0" d="M1043.4,696.1c-6.1,0-6.1,9,0.5,9C1050,705.1,1049.6,696.1,1043.4,696.1z"/>
<path id="XMLID_82_" class="st0" d="M997.5,226.5c-6.1,0-6.1,9,0.5,9C1004.1,235.5,1003.7,226.5,997.5,226.5z"/>
<path id="XMLID_164_" class="st0" d="M427.8,481.2c-5.9-1.6-8.3,7.1-1.9,8.8C431.9,491.6,433.7,482.8,427.8,481.2z"/>
<path id="XMLID_163_" class="st1" d="M595.1,333.2c-6-1.6-9.5,11.2-2.9,13C598.3,347.9,601.8,335,595.1,333.2z"/>
<path id="XMLID_162_" class="st1" d="M364.3,226.9c-5.1-1.4-8,9.5-2.4,11C367,239.3,369.9,228.4,364.3,226.9z"/>
<path id="XMLID_161_" class="st0" d="M408.8,304.2c-5.9-1.6-8.3,7.1-1.9,8.8C412.8,314.7,414.7,305.8,408.8,304.2z"/>
<path id="XMLID_160_" class="st1" d="M624.3,470.4c-7.6-2-11.9,14.1-3.6,16.3C628.3,488.8,632.6,472.7,624.3,470.4z"/>
<path id="XMLID_159_" class="st0" d="M358.1,394.1c-5.9-1.6-8.3,7.1-1.9,8.8C362.1,404.6,364,395.7,358.1,394.1z"/>
<path id="XMLID_158_" class="st0" d="M404.8,327.8c-5.9-1.6-8.3,7.1-1.9,8.8C408.8,338.3,410.7,329.4,404.8,327.8z"/>
<path id="XMLID_157_" class="st0" d="M299.3,465.6c-9.8-2.6-13.7,11.8-3.1,14.6C306,482.9,309.1,468.3,299.3,465.6z"/>
<path id="XMLID_156_" class="st0" d="M611.3,802.5c-10-2.7-14,12-3.2,14.9C618.2,820.1,621.3,805.2,611.3,802.5z"/>
<path id="XMLID_155_" class="st1" d="M793.4,743.2c-7.6-2-11.9,14.1-3.6,16.3C797.4,761.6,801.7,745.5,793.4,743.2z"/>
<path id="XMLID_154_" class="st1" d="M305.1,489.9c-6.3-1.7-9.9,11.7-3,13.6C308.4,505.1,312,491.7,305.1,489.9z"/>
<path id="XMLID_153_" class="st1" d="M455.7,472.2c-4.9-1.3-7.7,9.1-2.3,10.5C458.3,484.1,461.1,473.7,455.7,472.2z"/>
<path id="XMLID_152_" class="st1" d="M32.5,472.4c-8.7-2.3-13.7,16.2-4.1,18.7C37,493.5,42,475,32.5,472.4z"/>
<path id="XMLID_151_" class="st1" d="M478.1,765.9c-7.6-2-11.9,14.1-3.6,16.3C482.1,784.2,486.4,768.1,478.1,765.9z"/>
<path id="XMLID_150_" class="st1" d="M-19.5,592.1c-8.6-2.3-13.5,16-4.1,18.6C-14.9,613-10,594.6-19.5,592.1z"/>
<path id="XMLID_149_" class="st1" d="M676,767.3c-7.6-2-11.9,14.1-3.6,16.3C680,785.6,684.3,769.5,676,767.3z"/>
<path id="XMLID_148_" class="st1" d="M-181.1,579c-10.4-2.8-16.4,19.4-4.9,22.5C-175.6,604.3-169.6,582.1-181.1,579z"/>
<path id="XMLID_147_" class="st1" d="M690,250c-7.6-2-11.9,14.1-3.6,16.3C694,268.3,698.3,252.2,690,250z"/>
<path id="XMLID_146_" class="st1" d="M236.7,41.7c-7.6-2-11.9,14.1-3.6,16.3C240.6,60,245,43.9,236.7,41.7z"/>
<path id="XMLID_145_" class="st1" d="M354.7,27.2c-7.6-2-11.9,14.1-3.6,16.3C358.7,45.5,363,29.4,354.7,27.2z"/>
<path id="XMLID_144_" class="st1" d="M951.1,273.8c-7.6-2-11.9,14.1-3.6,16.3C955.1,292.1,959.4,276,951.1,273.8z"/>
<path id="XMLID_143_" class="st1" d="M883,140.1c-7.6-2-11.9,14.1-3.6,16.3C887,158.5,891.3,142.4,883,140.1z"/>
<path id="XMLID_142_" class="st0" d="M507.4,340.1c-10.8-2.9-15.1,13-3.4,16.1C514.8,359.1,518.2,343,507.4,340.1z"/>
<path id="XMLID_141_" class="st0" d="M135.9,279.4c-5.9-1.6-8.3,7.1-1.9,8.8C139.9,289.9,141.8,281,135.9,279.4z"/>
<path id="XMLID_140_" class="st0" d="M131.9,303c-5.9-1.6-8.3,7.1-1.9,8.8C135.9,313.5,137.8,304.6,131.9,303z"/>
<path id="XMLID_139_" class="st0" d="M234.5,315.3c-10.8-2.9-15.1,13-3.4,16.1C241.9,334.3,245.3,318.2,234.5,315.3z"/>
<path id="XMLID_138_" class="st0" d="M146.9,432.4c-5.9-1.6-8.3,7.1-1.9,8.8C151,442.8,152.9,434,146.9,432.4z"/>
<path id="XMLID_137_" class="st0" d="M50.5,404.3c-5.9-1.6-8.3,7.1-1.9,8.8C54.6,414.7,56.5,405.9,50.5,404.3z"/>
<path id="XMLID_136_" class="st0" d="M644.4,543.3c-10.8-2.9-15.1,13-3.4,16.1C651.8,562.3,655.2,546.2,644.4,543.3z"/>
<path id="XMLID_135_" class="st0" d="M712.5,481.2c-5.9-1.6-8.3,7.1-1.9,8.8C716.5,491.6,718.4,482.8,712.5,481.2z"/>
<path id="XMLID_134_" class="st0" d="M632.1,707.5c-5.9-1.6-8.3,7.1-1.9,8.8C636.2,717.9,638.1,709.1,632.1,707.5z"/>
<path id="XMLID_133_" class="st0" d="M734.7,719.8c-10.8-2.9-15.1,13-3.4,16.1C742.1,738.8,745.6,722.7,734.7,719.8z"/>
<path id="XMLID_132_" class="st0" d="M-97.1,621.7c-5.9-1.6-8.3,7.1-1.9,8.8C-93.1,632.1-91.2,623.3-97.1,621.7z"/>
<path id="XMLID_131_" class="st0" d="M-0.7,667.6c-5.9-1.6-8.3,7.1-1.9,8.8C3.4,678.1,5.3,669.2-0.7,667.6z"/>
<path id="XMLID_130_" class="st0" d="M378,739.9c-10.8-2.9-15.1,13-3.4,16.1C385.4,758.9,388.8,742.8,378,739.9z"/>
<path id="XMLID_129_" class="st0" d="M108.4,542.7c-5.9-1.6-8.3,7.1-1.9,8.8C112.4,553.1,114.3,544.3,108.4,542.7z"/>
<path id="XMLID_128_" class="st0" d="M224.3,522.8c-5.9-1.6-8.3,7.1-1.9,8.8C228.3,533.2,230.2,524.4,224.3,522.8z"/>
<path id="XMLID_127_" class="st0" d="M65.1,850.1c-6.1-1.6-8.5,7.3-1.9,9C69.2,860.7,71.2,851.7,65.1,850.1z"/>
<path id="XMLID_126_" class="st0" d="M783.7,252.7c-5.9-1.6-8.3,7.1-1.9,8.8C787.8,263.1,789.6,254.3,783.7,252.7z"/>
<path id="XMLID_125_" class="st0" d="M886.3,265c-10.8-2.9-15.1,13-3.4,16.1C893.7,284,897.1,267.9,886.3,265z"/>
<path id="XMLID_124_" class="st0" d="M55.2,73.7c-5.9-1.6-8.3,7.1-1.9,8.8C59.3,84.2,61.1,75.3,55.2,73.7z"/>
<path id="XMLID_123_" class="st0" d="M157.8,86c-10.8-2.9-15.1,13-3.4,16.1C165.2,105,168.6,88.9,157.8,86z"/>
<path id="XMLID_122_" class="st0" d="M-155.5,366.3c-5.9-1.6-8.3,7.1-1.9,8.8C-151.5,376.7-149.6,367.9-155.5,366.3z"/>
<path id="XMLID_121_" class="st0" d="M-52.9,378.6c-10.8-2.9-15.1,13-3.4,16.1C-45.5,397.6-42.1,381.5-52.9,378.6z"/>
<path id="XMLID_119_" class="st1" d="M159.1,614.9c-5.2-1.4-8.2,9.7-2.5,11.2C161.9,627.5,164.9,616.4,159.1,614.9z"/>
<path id="XMLID_118_" class="st0" d="M368.4,729.5c-5.9-1.6-8.3,7.1-1.9,8.8C372.5,740,374.4,731.1,368.4,729.5z"/>
<path id="XMLID_117_" class="st0" d="M121.5,729.5c-5.9-1.6-8.3,7.1-1.9,8.8C125.6,740,127.4,731.1,121.5,729.5z"/>
<path id="XMLID_116_" class="st1" d="M751.3,173.4c-5.2-1.4-8.2,9.7-2.5,11.2C754,186,757,174.9,751.3,173.4z"/>
<path id="XMLID_115_" class="st1" d="M562.2,116.5c-5.2-1.4-8.2,9.7-2.5,11.2C564.9,129.2,567.9,118.1,562.2,116.5z"/>
<path id="XMLID_114_" class="st1" d="M413.5,123.2c-5.2-1.4-8.2,9.7-2.5,11.2C416.3,135.9,419.3,124.7,413.5,123.2z"/>
<path id="XMLID_113_" class="st1" d="M604.8,208.8c-5.2-1.4-8.2,9.7-2.5,11.2C607.5,221.5,610.5,210.4,604.8,208.8z"/>
<path id="XMLID_112_" class="st1" d="M223.9,321.8c-5.2-1.4-8.2,9.7-2.5,11.2C226.6,334.5,229.6,323.4,223.9,321.8z"/>
<path id="XMLID_111_" class="st1" d="M455.1,397.3c-5.2-1.4-8.2,9.7-2.5,11.2C457.9,410,460.9,398.9,455.1,397.3z"/>
<path id="XMLID_110_" class="st1" d="M-47.6-53.5c-5.2-1.4-8.2,9.7-2.5,11.2C-44.8-40.8-41.8-51.9-47.6-53.5z"/>
<path id="XMLID_109_" class="st1" d="M971.7,459.1c-5.2-1.4-8.2,9.7-2.5,11.2C974.4,471.7,977.4,460.6,971.7,459.1z"/>
<path id="XMLID_108_" class="st1" d="M929.3,727.6c-5.2-1.4-8.2,9.7-2.5,11.2C932.1,740.3,935.1,729.2,929.3,727.6z"/>
<path id="XMLID_107_" class="st1" d="M978.9,605.1c-5.2-1.4-8.2,9.7-2.5,11.2C981.7,617.7,984.7,606.6,978.9,605.1z"/>
<path id="XMLID_106_" class="st1" d="M162.1,535c-5.2-1.4-8.2,9.7-2.5,11.2C164.9,547.7,167.9,536.6,162.1,535z"/>
<path id="XMLID_105_" class="st1" d="M656.5,119.7c-5.2-1.4-8.2,9.7-2.5,11.2C659.3,132.4,662.3,121.3,656.5,119.7z"/>
<path id="XMLID_104_" class="st1" d="M-144.1,232.1c-5.2-1.4-8.2,9.7-2.5,11.2C-141.4,244.8-138.4,233.7-144.1,232.1z"/>
<path id="XMLID_103_" class="st1" d="M220.8,157.3c-5.2-1.4-8.2,9.7-2.5,11.2C223.6,170,226.5,158.9,220.8,157.3z"/>
<path id="XMLID_102_" class="st1" d="M136.6,432.1c-5.2-1.4-8.2,9.7-2.5,11.2C139.3,444.8,142.3,433.7,136.6,432.1z"/>
<path id="XMLID_101_" class="st1" d="M-269.1,463.7c-5.2-1.4-8.2,9.7-2.5,11.2C-266.4,476.4-263.4,465.3-269.1,463.7z"/>
<path id="XMLID_100_" class="st1" d="M-243,119.8c-5.2-1.4-8.2,9.7-2.5,11.2C-240.3,132.4-237.3,121.3-243,119.8z"/>
<path id="XMLID_99_" class="st1" d="M-118.4,25.7c-5.2-1.4-8.2,9.7-2.5,11.2C-115.6,38.4-112.7,27.3-118.4,25.7z"/>
<path id="XMLID_98_" class="st1" d="M-3.3,227.4c-5.2-1.4-8.2,9.7-2.5,11.2C-0.6,240,2.4,228.9-3.3,227.4z"/>
<path id="XMLID_97_" class="st1" d="M121.8-101.7c-5.2-1.4-8.2,9.7-2.5,11.2C124.5-89.1,127.5-100.2,121.8-101.7z"/>
<path id="XMLID_96_" class="st1" d="M-209.5-170.8c-5.2-1.4-8.2,9.7-2.5,11.2C-206.7-158.2-203.7-169.3-209.5-170.8z"/>
<path id="XMLID_95_" class="st1" d="M32.9,26.8c-5.2-1.4-8.2,9.7-2.5,11.2C35.7,39.4,38.6,28.3,32.9,26.8z"/>
<path id="XMLID_94_" class="st0" d="M492.9,221.2c-5.9-1.6-8.3,7.1-1.9,8.8C496.9,231.6,498.8,222.8,492.9,221.2z"/>
<path id="XMLID_93_" class="st0" d="M-8-95.6c-5.9-1.6-8.3,7.1-1.9,8.8C-4-85.2-2.1-94-8-95.6z"/>
<path id="XMLID_92_" class="st0" d="M-232.3-101.9c-5.9-1.6-8.3,7.1-1.9,8.8C-228.2-91.5-226.4-100.3-232.3-101.9z"/>
<path id="XMLID_91_" class="st0" d="M-320.8,31c-5.9-1.6-8.3,7.1-1.9,8.8C-316.7,41.5-314.8,32.6-320.8,31z"/>
<path id="XMLID_90_" class="st0" d="M-92.5-138.1c-5.9-1.6-8.3,7.1-1.9,8.8C-88.5-127.7-86.6-136.5-92.5-138.1z"/>
<path id="XMLID_89_" class="st0" d="M-356.6,274.8c-5.9-1.6-8.3,7.1-1.9,8.8C-352.6,285.2-350.7,276.4-356.6,274.8z"/>
<path id="XMLID_88_" class="st0" d="M-281.4,351.1c-5.9-1.6-8.3,7.1-1.9,8.8C-277.4,361.6-275.5,352.7-281.4,351.1z"/>
<path id="XMLID_87_" class="st0" d="M-482.8,462.8c-6-1.5-8.1,7.3-1.7,8.9C-478.6,473.1-476.9,464.2-482.8,462.8z"/>
<path id="XMLID_86_" class="st0" d="M836.4,342.4c-5.9-1.6-8.3,7.1-1.9,8.8C840.5,352.8,842.3,344,836.4,342.4z"/>
<path id="XMLID_85_" class="st0" d="M884.9,618.5c-5.9-1.6-8.3,7.1-1.9,8.8C889,629,890.9,620.1,884.9,618.5z"/>
<path id="XMLID_84_" class="st0" d="M1023.3,887.6c-5.9-1.6-8.3,7.1-1.9,8.8C1027.4,898,1029.2,889.2,1023.3,887.6z"/>
<path id="XMLID_83_" class="st0" d="M1101,422.2c-5.9-1.6-8.3,7.1-1.9,8.8C1105.1,432.6,1106.9,423.8,1101,422.2z"/>
<path id="XMLID_120_" class="st1" d="M432.7,661.8c-5.2-1.4-8.2,9.7-2.5,11.2C435.4,674.5,438.4,663.4,432.7,661.8z"/>
<path id="XMLID_165_" class="st1" d="M240.8,748.6c-5.2-1.4-8.2,9.7-2.5,11.2C243.6,761.2,246.5,750.1,240.8,748.6z"/>
<path id="XMLID_166_" class="st1" d="M437,217c-5.2-1.4-8.2,9.7-2.5,11.2C439.8,229.7,442.8,218.6,437,217z"/>
<path id="XMLID_222_" class="st1" d="M312.6-48.1c-7.8,0-7.8,16.7,0.8,16.7C321.2-31.4,321.2-48.1,312.6-48.1z"/>
<path id="XMLID_221_" class="st1" d="M632.8-104.8c-5.6,0-5.6,11.8,0.6,11.8C638.9-93,638.9-104.8,632.8-104.8z"/>
<path id="XMLID_220_" class="st1" d="M103.8-170.5c-7.8,0-7.8,16.7,0.8,16.7C112.4-153.8,112.4-170.5,103.8-170.5z"/>
<path id="XMLID_219_" class="st1" d="M210.3-212.3c-7.8,0-7.8,16.7,0.8,16.7C218.9-195.6,218.9-212.3,210.3-212.3z"/>
<path id="XMLID_218_" class="st1" d="M887.6-148.6c-7.8,0-7.8,16.7,0.8,16.7C896.2-131.9,896.2-148.6,887.6-148.6z"/>
<path id="XMLID_217_" class="st1" d="M787.1-260c-7.8,0-7.8,16.7,0.8,16.7C795.7-243.3,795.7-260,787.1-260z"/>
<path id="XMLID_216_" class="st0" d="M720.5-125.5c-6.1,0-6.1,9,0.5,9C727.1-116.5,726.6-125.5,720.5-125.5z"/>
<path id="XMLID_215_" class="st0" d="M822.8-140.3c-11.2,0-11.2,16.4,0.9,16.4C834.8-123.8,834-140.3,822.8-140.3z"/>
<path id="XMLID_214_" class="st0" d="M-29.5-109.1c-6.1,0-6.1,9,0.5,9C-22.9-100-23.4-109.1-29.5-109.1z"/>
<path id="XMLID_213_" class="st0" d="M72.8-123.8c-11.2,0-11.2,16.4,0.9,16.4C84.8-107.4,84-123.8,72.8-123.8z"/>
<path id="XMLID_212_" class="st1" d="M668.6-193.7c-5.4,0-5.4,11.5,0.5,11.5C674.5-182.2,674.5-193.7,668.6-193.7z"/>
<path id="XMLID_211_" class="st1" d="M471.1-199.4c-5.4,0-5.4,11.5,0.5,11.5C477.1-187.9,477.1-199.4,471.1-199.4z"/>
<path id="XMLID_210_" class="st1" d="M329.3-154.4c-5.4,0-5.4,11.5,0.5,11.5C335.3-142.9,335.3-154.4,329.3-154.4z"/>
<path id="XMLID_209_" class="st1" d="M536.3-121.4c-5.4,0-5.4,11.5,0.5,11.5C542.2-109.9,542.2-121.4,536.3-121.4z"/>
<path id="XMLID_208_" class="st1" d="M-161.8-205.2c-5.4,0-5.4,11.5,0.5,11.5C-155.9-193.7-155.9-205.2-161.8-205.2z"/>
<path id="XMLID_207_" class="st1" d="M563.1-220.9c-5.4,0-5.4,11.5,0.5,11.5C569-209.4,569-220.9,563.1-220.9z"/>
<path id="XMLID_206_" class="st1" d="M152.1-71.4c-5.4,0-5.4,11.5,0.5,11.5C158-59.9,158-71.4,152.1-71.4z"/>
<path id="XMLID_205_" class="st1" d="M-209.6-110.3c-5.4,0-5.4,11.5,0.5,11.5C-203.7-98.8-203.7-110.3-209.6-110.3z"/>
<path id="XMLID_204_" class="st1" d="M-10.8-295.8c-5.4,0-5.4,11.5,0.5,11.5C-4.9-284.3-4.9-295.8-10.8-295.8z"/>
<path id="XMLID_203_" class="st1" d="M-348.6-276.5c-5.4,0-5.4,11.5,0.5,11.5C-342.7-265-342.7-276.5-348.6-276.5z"/>
<path id="XMLID_202_" class="st1" d="M-63.3-148.6c-5.4,0-5.4,11.5,0.5,11.5C-57.3-137.1-57.3-148.6-63.3-148.6z"/>
<path id="XMLID_201_" class="st0" d="M431.4-80.4c-6.1,0-6.1,9,0.5,9C438.1-71.4,437.6-80.4,431.4-80.4z"/>
<path id="XMLID_200_" class="st0" d="M-134.6-256.1c-6.1,0-6.1,9,0.5,9C-128-247.1-128.4-256.1-134.6-256.1z"/>
<path id="XMLID_199_" class="st0" d="M-352.8-203.9c-6.1,0-6.1,9,0.5,9C-346.2-194.9-346.6-203.9-352.8-203.9z"/>
<path id="XMLID_198_" class="st0" d="M-227.2-275.2c-6.1,0-6.1,9,0.5,9C-220.6-266.2-221.1-275.2-227.2-275.2z"/>
<path id="XMLID_197_" class="st0" d="M794.6-52.6c-6.1,0-6.1,9,0.5,9C801.3-43.6,800.8-52.6,794.6-52.6z"/>
<path id="XMLID_196_" class="st0" d="M1070.9-44.2c-6.1,0-6.1,9,0.5,9C1077.5-35.2,1077.1-44.2,1070.9-44.2z"/>
<path id="XMLID_195_" class="st1" d="M437.7-43.8c-5.1-1.4-8,9.5-2.4,11C440.4-31.5,443.3-42.3,437.7-43.8z"/>
<path id="XMLID_194_" class="st1" d="M763.4-20.7c-7.6-2-11.9,14.1-3.6,16.3C767.3-2.4,771.7-18.5,763.4-20.7z"/>
<path id="XMLID_193_" class="st1" d="M310-229c-7.6-2-11.9,14.1-3.6,16.3C314-210.7,318.4-226.8,310-229z"/>
<path id="XMLID_192_" class="st1" d="M428.1-243.5c-7.6-2-11.9,14.1-3.6,16.3C432.1-225.2,436.4-241.3,428.1-243.5z"/>
<path id="XMLID_191_" class="st1" d="M956.4-130.6c-7.6-2-11.9,14.1-3.6,16.3C960.4-112.2,964.7-128.3,956.4-130.6z"/>
<path id="XMLID_190_" class="st0" d="M857.1-18c-5.9-1.6-8.3,7.1-1.9,8.8C861.1-7.6,863-16.4,857.1-18z"/>
<path id="XMLID_189_" class="st0" d="M959.7-5.7c-10.8-2.9-15.1,13-3.4,16.1C967.1,13.3,970.5-2.8,959.7-5.7z"/>
<path id="XMLID_188_" class="st0" d="M128.6-197c-5.9-1.6-8.3,7.1-1.9,8.8C132.6-186.6,134.5-195.4,128.6-197z"/>
<path id="XMLID_187_" class="st0" d="M231.2-184.7c-10.8-2.9-15.1,13-3.4,16.1C238.6-165.7,242-181.8,231.2-184.7z"/>
<path id="XMLID_186_" class="st1" d="M824.7-97.3c-5.2-1.4-8.2,9.7-2.5,11.2C827.4-84.7,830.4-95.8,824.7-97.3z"/>
<path id="XMLID_185_" class="st1" d="M635.5-154.2c-5.2-1.4-8.2,9.7-2.5,11.2C638.3-141.5,641.3-152.6,635.5-154.2z"/>
<path id="XMLID_184_" class="st1" d="M486.9-147.5c-5.2-1.4-8.2,9.7-2.5,11.2C489.7-134.9,492.6-146,486.9-147.5z"/>
<path id="XMLID_183_" class="st1" d="M678.1-61.9c-5.2-1.4-8.2,9.7-2.5,11.2C680.9-49.2,683.9-60.4,678.1-61.9z"/>
<path id="XMLID_182_" class="st1" d="M25.8-324.2c-5.2-1.4-8.2,9.7-2.5,11.2C28.6-311.5,31.6-322.6,25.8-324.2z"/>
<path id="XMLID_181_" class="st1" d="M729.9-151c-5.2-1.4-8.2,9.7-2.5,11.2C732.7-138.3,735.6-149.4,729.9-151z"/>
<path id="XMLID_180_" class="st1" d="M-70.7-38.6c-5.2-1.4-8.2,9.7-2.5,11.2C-68-25.9-65-37-70.7-38.6z"/>
<path id="XMLID_179_" class="st1" d="M294.2-113.4c-5.2-1.4-8.2,9.7-2.5,11.2C296.9-100.8,299.9-111.9,294.2-113.4z"/>
<path id="XMLID_178_" class="st1" d="M-169.7-150.9c-5.2-1.4-8.2,9.7-2.5,11.2C-166.9-138.3-163.9-149.4-169.7-150.9z"/>
<path id="XMLID_177_" class="st1" d="M-45-245c-5.2-1.4-8.2,9.7-2.5,11.2C-42.3-232.3-39.3-243.4-45-245z"/>
<path id="XMLID_176_" class="st1" d="M70.1-43.3c-5.2-1.4-8.2,9.7-2.5,11.2C72.8-30.7,75.8-41.8,70.1-43.3z"/>
<path id="XMLID_175_" class="st1" d="M195.2-372.5c-5.2-1.4-8.2,9.7-2.5,11.2C197.9-359.8,200.9-370.9,195.2-372.5z"/>
<path id="XMLID_174_" class="st1" d="M-136.1-441.6c-5.2-1.4-8.2,9.7-2.5,11.2C-133.3-428.9-130.3-440-136.1-441.6z"/>
<path id="XMLID_173_" class="st1" d="M106.3-244c-5.2-1.4-8.2,9.7-2.5,11.2C109-231.3,112-242.4,106.3-244z"/>
<path id="XMLID_172_" class="st0" d="M566.3-49.5c-5.9-1.6-8.3,7.1-1.9,8.8C570.3-39.1,572.2-47.9,566.3-49.5z"/>
<path id="XMLID_171_" class="st0" d="M65.4-366.3c-5.9-1.6-8.3,7.1-1.9,8.8C69.4-355.9,71.3-364.7,65.4-366.3z"/>
<path id="XMLID_170_" class="st0" d="M-158.9-372.6c-5.9-1.6-8.3,7.1-1.9,8.8C-154.9-362.2-153-371-158.9-372.6z"/>
<path id="XMLID_169_" class="st0" d="M-247.4-239.7c-5.9-1.6-8.3,7.1-1.9,8.8C-243.3-229.2-241.5-238.1-247.4-239.7z"/>
<path id="XMLID_168_" class="st0" d="M-19.1-408.8c-5.9-1.6-8.3,7.1-1.9,8.8C-15.1-398.4-13.2-407.2-19.1-408.8z"/>
<path id="XMLID_167_" class="st1" d="M510.4-53.7c-5.2-1.4-8.2,9.7-2.5,11.2C513.1-41,516.1-52.1,510.4-53.7z"/>
<path id="XMLID_223_" class="st0" d="M404.8-323c-5.9-1.6-8.3,7.1-1.9,8.8C408.8-312.5,410.7-321.4,404.8-323z"/>
<path id="XMLID_224_" class="st0" d="M233.7-294.5c-5.9-1.6-8.3,7.1-1.9,8.8C237.7-284,239.6-292.9,233.7-294.5z"/>
<path id="XMLID_225_" class="st0" d="M385-232.6c-5.9-1.6-8.3,7.1-1.9,8.8C389-222.2,390.9-231,385-232.6z"/>
<path id="XMLID_226_" class="st0" d="M659-210.6c-5.9-1.6-8.3,7.1-1.9,8.8C663-200.2,664.9-209,659-210.6z"/>
<path id="XMLID_227_" class="st0" d="M300-204.6c-5.9-1.6-8.3,7.1-1.9,8.8C304-194.2,305.9-203,300-204.6z"/>
<path id="XMLID_228_" class="st0" d="M279-18.6c-5.9-1.6-8.3,7.1-1.9,8.8C283-8.2,284.9-17,279-18.6z"/>
<path id="XMLID_229_" class="st0" d="M230-64.6c-5.9-1.6-8.3,7.1-1.9,8.8C234-54.2,235.9-63,230-64.6z"/>
<path id="XMLID_230_" class="st0" d="M18.6-155.5c-5.9-1.6-8.3,7.1-1.9,8.8C22.7-145.1,24.6-153.9,18.6-155.5z"/>
<path id="XMLID_231_" class="st0" d="M561.6-285.2c-5.9-1.6-8.3,7.1-1.9,8.8C565.7-274.8,567.6-283.6,561.6-285.2z"/>
<path id="XMLID_232_" class="st0" d="M403.3-136.5c-5.9-1.6-8.3,7.1-1.9,8.8C407.4-126,409.3-134.9,403.3-136.5z"/>
</svg>
