<?xml version="1.0" encoding="utf-8"?>
<!-- Generator: Adobe Illustrator 19.0.0, SVG Export Plug-In . SVG Version: 6.00 Build 0)  -->
<svg version="1.1" id="Layer_1" xmlns="http://www.w3.org/2000/svg" xmlns:xlink="http://www.w3.org/1999/xlink" x="0px" y="0px"
	 viewBox="0 0 612 792" style="enable-background:new 0 0 612 792;" xml:space="preserve">
<style type="text/css">
	.st0{fill:#102F41;}
	.st1{fill:#F1E4C4;}
	.st2{fill:#FAAF3D;}
	.st3{fill:#ED6245;}
</style>
<g id="XMLID_9_">
	<path id="XMLID_39_" class="st0" d="M532.2,624c0,24.7-20.2,45-45,45H124.8c-24.7,0-45-20.2-45-45V168c0-24.7,20.2-45,45-45h362.4
		c24.7,0,45,20.3,45,45V624z"/>
	<path id="XMLID_38_" class="st1" d="M488.7,280.4c0,10.3-8.4,18.7-18.7,18.7H142.1c-10.3,0-18.7-8.4-18.7-18.7v-71.7
		c0-10.3,8.4-18.7,18.7-18.7H470c10.3,0,18.7,8.4,18.7,18.7V280.4z"/>
	<g id="XMLID_10_">
		<path id="XMLID_37_" class="st2" d="M203.6,410.3c0,6.9-5.6,12.5-12.5,12.5h-45.9c-6.9,0-12.5-5.6-12.5-12.5v-45.9
			c0-6.9,5.6-12.5,12.5-12.5h45.9c6.9,0,12.5,5.6,12.5,12.5V410.3z"/>
		<path id="XMLID_36_" class="st2" d="M295.5,410.3c0,6.9-5.6,12.5-12.5,12.5h-45.9c-6.9,0-12.5-5.6-12.5-12.5v-45.9
			c0-6.9,5.6-12.5,12.5-12.5H283c6.9,0,12.5,5.6,12.5,12.5V410.3z"/>
		<path id="XMLID_35_" class="st2" d="M387.4,410.3c0,6.9-5.6,12.5-12.5,12.5H329c-6.9,0-12.5-5.6-12.5-12.5v-45.9
			c0-6.9,5.6-12.5,12.5-12.5h45.9c6.9,0,12.5,5.6,12.5,12.5V410.3z"/>
		<path id="XMLID_33_" class="st2" d="M479.3,410.3c0,6.9-5.6,12.5-12.5,12.5h-45.9c-6.9,0-12.5-5.6-12.5-12.5v-45.9
			c0-6.9,5.6-12.5,12.5-12.5h45.9c6.9,0,12.5,5.6,12.5,12.5V410.3z"/>
		<path id="XMLID_7_" class="st2" d="M203.6,496.4c0,6.9-5.6,12.5-12.5,12.5h-45.9c-6.9,0-12.5-5.6-12.5-12.5v-45.9
			c0-6.9,5.6-12.5,12.5-12.5h45.9c6.9,0,12.5,5.6,12.5,12.5V496.4z"/>
		<path id="XMLID_6_" class="st2" d="M295.5,496.4c0,6.9-5.6,12.5-12.5,12.5h-45.9c-6.9,0-12.5-5.6-12.5-12.5v-45.9
			c0-6.9,5.6-12.5,12.5-12.5H283c6.9,0,12.5,5.6,12.5,12.5V496.4z"/>
		<path id="XMLID_5_" class="st2" d="M387.4,496.4c0,6.9-5.6,12.5-12.5,12.5H329c-6.9,0-12.5-5.6-12.5-12.5v-45.9
			c0-6.9,5.6-12.5,12.5-12.5h45.9c6.9,0,12.5,5.6,12.5,12.5V496.4z"/>
		<path id="XMLID_4_" class="st2" d="M203.6,582.6c0,6.9-5.6,12.5-12.5,12.5h-45.9c-6.9,0-12.5-5.6-12.5-12.5v-45.9
			c0-6.9,5.6-12.5,12.5-12.5h45.9c6.9,0,12.5,5.6,12.5,12.5V582.6z"/>
		<path id="XMLID_3_" class="st2" d="M295.5,582.6c0,6.9-5.6,12.5-12.5,12.5h-45.9c-6.9,0-12.5-5.6-12.5-12.5v-45.9
			c0-6.9,5.6-12.5,12.5-12.5H283c6.9,0,12.5,5.6,12.5,12.5V582.6z"/>
		<path id="XMLID_2_" class="st2" d="M387.4,582.6c0,6.9-5.6,12.5-12.5,12.5H329c-6.9,0-12.5-5.6-12.5-12.5v-45.9
			c0-6.9,5.6-12.5,12.5-12.5h45.9c6.9,0,12.5,5.6,12.5,12.5V582.6z"/>
		<path id="XMLID_1_" class="st3" d="M479.3,582.6c0,6.9-5.6,12.5-12.5,12.5h-45.9c-6.9,0-12.5-5.6-12.5-12.5V452.4
			c0-6.9,5.6-12.5,12.5-12.5h45.9c6.9,0,12.5,5.6,12.5,12.5V582.6z"/>
	</g>
</g>
</svg>
