<?xml version="1.0" encoding="utf-8"?>
<!-- Generator: Adobe Illustrator 19.0.0, SVG Export Plug-In . SVG Version: 6.00 Build 0)  -->
<svg version="1.1" id="Layer_1" xmlns="http://www.w3.org/2000/svg" xmlns:xlink="http://www.w3.org/1999/xlink" x="0px" y="0px"
	 viewBox="-241 333 128 128" style="enable-background:new -241 333 128 128;" xml:space="preserve">
<style type="text/css">
	.st0{fill:#F1E189;}
	.st1{fill:#A4561F;}
	.st2{fill:#9DAB00;}
	.st3{fill-rule:evenodd;clip-rule:evenodd;fill:#9DAB00;}
	.st4{fill:#D63A26;}
	.st5{fill-rule:evenodd;clip-rule:evenodd;fill:#AA331D;}
	.st6{fill:#A4BE24;}
	.st7{fill:#629B21;}
	.st8{fill:#FF7543;}
</style>
<circle class="st0" cx="-177" cy="397" r="63.7"/>
<g>
	<g>
		<path class="st1" d="M-202.1,372.7c0,0,0.3-9.3-1.6-14c0,0,0.8-2.9,3.1-0.3c0.4,6.5,0.6,9.6-0.4,14.9L-202.1,372.7z"/>
		<path class="st2" d="M-185.1,406.8c-1.5-9.5-7.4-14.7-8-20.1c-1.2-10.2-0.6-16.5-8.3-16.6c-7.6,0-7.1,6.3-8.5,16.5
			c-0.7,5.3-6.6,10.5-8.3,19.9c-1.6,8.9,1.6,20,16.4,20.1C-187.2,426.8-183.7,415.6-185.1,406.8z"/>
	</g>
	<g>
		<g>
			<path class="st3" d="M-176.5,403.1c-1.6-1.9-6.5-6.1-7.1-11.2c0,0,3-1.7,5.6,1.8c0,0,1.5-3.3,4.2-4.9c0,0,3.1,3.9,2.4,7.2
				c0,0,2.8-1.4,5.9-0.1c0,0,1.4,4.2-0.4,6.5c0,0,3.4-0.9,6,1.3c0,0-1.6,4.3-4.1,4.3c0,0,0.5,2.4-0.6,4.7
				C-164.5,412.5-171.6,409.1-176.5,403.1z"/>
			<path class="st4" d="M-171.4,400.5c-2.5-2.6-9.9-9.2-13.8-2.5c-4,6.8-9.2,15.7-4.8,20.3c4.4,4.6,13.6-0.2,20.5-3.9
				C-162.5,410.7-168.9,403.1-171.4,400.5z"/>
		</g>
		<g>
			<path class="st5" d="M-186.8,411c-1,0.6-0.2,2.2,0.9,1.6C-184.9,412-185.8,410.4-186.8,411z"/>
			<path class="st5" d="M-184.3,405.4c-0.7,0.4-0.1,1.5,0.6,1.1C-183.1,406.1-183.6,405.1-184.3,405.4z"/>
			<path class="st5" d="M-180.3,398.4c-0.7,0.4-0.1,1.5,0.6,1.1C-178.9,399.1-179.5,398-180.3,398.4z"/>
			<path class="st5" d="M-175.7,403.3c-0.9,0.5-0.1,1.9,0.8,1.4C-174,404.3-174.7,402.8-175.7,403.3z"/>
			<path class="st5" d="M-180,407.9c-0.9,0.5-0.1,1.8,0.7,1.4C-178.4,408.8-179.2,407.4-180,407.9z"/>
			<path class="st5" d="M-180.2,413.4c-0.8,0.4-0.1,1.7,0.7,1.3C-178.7,414.2-179.4,413-180.2,413.4z"/>
			<path class="st5" d="M-174.3,410.1c-0.9,0.5-0.1,1.8,0.7,1.3C-172.7,411-173.5,409.6-174.3,410.1z"/>
		</g>
	</g>
	<g>
		<path class="st6" d="M-137,406.3c-0.1-0.2-0.3-0.2-0.5-0.1c-0.7,0.5-1.2,1.3-2,1.9c-0.7,0.5-1.5,1-2.3,1.3
			c0.2-0.4,0.3-0.8,0.3-1.2c0-0.7-0.3-2.2-1.3-1.8c-0.7,0.3-0.9,0.9-1.4,1.4c-0.7,0.6-1.4,1.2-2.2,1.6c0.1-0.7,0-1.5-0.3-2.2
			c-0.3-0.6-1.4-0.9-1.5,0c-0.4,2.5-3.5,5.8-15.7,8.4c-2.1,0.5-4.2,1.2-6.3,1.8c-1.9,0.6-4.2,1-5.8,2.1c-1.2,0.8-0.8,2.8,0.8,2.8
			c2,0,4.1-0.9,6-1.5c2.4-0.7,4.7-1.4,7.1-2.1c4.6-1.3,9.3-2.4,13.9-3.8c2.8-0.8,5.6-1.7,8.1-3.1C-138.5,411-135.6,408.4-137,406.3z
			"/>
		<path class="st6" d="M-141.6,423.2c-3.2-2.9-7.7-3.7-11.9-3.9c-3.5-0.1-7.8,0.1-11,1.7c-0.6,0-1.3,0-1.9,0.2
			c-0.8,0.3-0.7,1.5,0,1.8c1.4,0.5,4.9-0.7,6.4-0.6c8.4,0.6,10.9,6.5,13.3,4.6c0.2-0.2,0.3-0.4,0.4-0.6c1.5,0.1,3-0.2,4.4-1
			C-141,424.8-140.8,423.8-141.6,423.2z"/>
		<path class="st7" d="M-130.9,419.5c-0.2-0.1-0.4-0.2-0.6-0.3c0.8-0.1,1.6-0.4,2.3-0.7c1-0.5,0.7-1.9-0.3-2.1
			c-0.7-0.1-1.3-0.2-1.9-0.3c1.4-0.5,2.7-1.3,3.7-2.6c0.6-0.8,0.1-2-0.9-2.1c-6.6-0.8-12.6,2.7-19,3.7c-3.2,0.5-6.9,0.8-10.4,1.7
			c-2.9,0.1-6.8,0.2-9.3,1.7c-1,0.6-1.1,2.5,0.4,2.5c2.9,0.1,6-0.9,8.9-1.2c3.3-0.3,6.6-0.2,9.9-0.1c2.9,0.1,5.8,0.7,8.6,1.2
			c2.5,0.4,5.5,1.1,8,0.4C-130.5,421.1-130.1,420.1-130.9,419.5z"/>
		<path class="st8" d="M-159.3,418.8c-0.7-6.8-5-10.5-18.6-6.2c-13.6,4.3-36.9,8.4-36.6,11.4c0.3,3,24.1,3.5,38.4,4.8
			C-161.9,430.1-158.5,425.6-159.3,418.8z"/>
	</g>
</g>
</svg>
