<?xml version="1.0" encoding="utf-8"?>
<!-- Generator: Adobe Illustrator 19.0.0, SVG Export Plug-In . SVG Version: 6.00 Build 0)  -->
<svg version="1.1" id="Layer_1" xmlns="http://www.w3.org/2000/svg" xmlns:xlink="http://www.w3.org/1999/xlink" x="0px" y="0px"
	 viewBox="-241 333 128 128" style="enable-background:new -241 333 128 128;" xml:space="preserve">
<style type="text/css">
	.st0{fill:#C2D5D8;}
	.st1{fill:#406A80;}
	.st2{fill:#E6E6E6;}
	.st3{opacity:0.2;fill:#406A80;}
	.st4{fill:#263740;}
	.st5{fill:#CC584C;}
</style>
<circle class="st0" cx="-177" cy="397.5" r="64"/>
<path class="st1" d="M-183.2,438l5.9-36.2c0.2-1.1,0.5-1,0.6,0l5.9,36.2h35.3l-8.2-78.5c-0.1-1.1-1.1-1.5-2.1-1.5h-29.2
	c-1.1,0-2.8,0-3.9,0h-29.2c-1.1,0-2,0.4-2.1,1.5l-8.2,78.5H-183.2z"/>
<path class="st1" d="M-183.2,438l5.9-36.2c0.2-1.1,0.5-1,0.6,0l5.9,36.2h35.3l-8.2-78.5c-0.1-1.1-1.1-1.5-2.1-1.5h-29.2
	c-1.1,0-2.8,0-3.9,0h-29.2c-1.1,0-2,0.4-2.1,1.5l-8.2,78.5H-183.2z"/>
<path class="st2" d="M-214.6,399c14.6-1.6,25.9-14,25.9-29h-23L-214.6,399z"/>
<path class="st1" d="M-192.6,370h-19.1l-2.5,25C-202,393.2-192.6,383-192.6,370z"/>
<path class="st2" d="M-139.4,399c-14.6-1.6-25.9-14-25.9-29h23L-139.4,399z"/>
<path class="st1" d="M-161.4,370h19.1l2.5,25C-152,393.2-161.4,383-161.4,370z"/>
<path class="st3" d="M-142.5,371l-0.2-1H-171v-5.6c0-2.1,0-2.4-2.1-2.4h-7.8c-2.1,0-4.1,0.2-4.1,2.4v5.6h-26.3l-0.2,1h26.2
	c0.7,0,1.9,2,3.3,2h10c1.4,0,2.7-2,3.3-2H-142.5z"/>
<path class="st4" d="M-141,363.5c0-1.1-0.9-1.5-2-1.5h-68c-1.1,0-2-0.3-2,1.4v4.7c0,0.4,0.9,1.9,2,1.9h68c1.1,0,2-1.4,2-2.5V363.5z"
	/>
<path class="st5" d="M-168,368.1c0,2.2-1.7,3.9-3.9,3.9h-9.2c-2.2,0-3.9-1.7-3.9-3.9v-4.2c0-2.2,1.7-3.9,3.9-3.9h9.2
	c2.2,0,3.9,1.7,3.9,3.9V368.1z"/>
<path class="st2" d="M-200,370.3c0,0.9-0.7,1.7-1.7,1.7h-0.7c-0.9,0-1.7-0.7-1.7-1.7v-8.7c0-0.9,0.7-1.7,1.7-1.7h0.7
	c0.9,0,1.7,0.7,1.7,1.7V370.3z"/>
<path class="st2" d="M-153,370.3c0,0.9-0.7,1.7-1.7,1.7h-0.7c-0.9,0-1.7-0.7-1.7-1.7v-8.7c0-0.9,0.7-1.7,1.7-1.7h0.7
	c0.9,0,1.7,0.7,1.7,1.7V370.3z"/>
<path class="st2" d="M-181,433c0,0.6-0.4,1-1,1h-36c-0.6,0-1-0.4-1-1l0,0c0-0.6,0.4-1,1-1h36C-181.4,432-181,432.4-181,433L-181,433
	z"/>
<path class="st2" d="M-135,433c0,0.6-0.4,1-1,1h-36c-0.6,0-1-0.4-1-1l0,0c0-0.6,0.4-1,1-1h36C-135.4,432-135,432.4-135,433L-135,433
	z"/>
</svg>
