<?xml version="1.0" encoding="utf-8"?>
<!-- Generator: Adobe Illustrator 19.0.0, SVG Export Plug-In . SVG Version: 6.00 Build 0)  -->
<svg version="1.1" id="Layer_1" xmlns="http://www.w3.org/2000/svg" xmlns:xlink="http://www.w3.org/1999/xlink" x="0px" y="0px"
	 viewBox="0 0 612 792" style="enable-background:new 0 0 612 792;" xml:space="preserve">
<style type="text/css">
	.st0{fill:#66B3FF;}
</style>
<g id="XMLID_20_">
	<g id="XMLID_27_">
		<path id="XMLID_28_" class="st0" d="M241.1,216.7c-0.5-0.3-1.1-0.6-1.6-0.9c4.4-8.4,17.2-39.6-14.9-66.7c-0.8-0.7-1.6-1.3-2.3-1.9
			c-27.2-21.5-49.7-14.5-56.6-11.5c-2.2-3.7-7.5-11.9-15.9-18.5c-9.1-7.2-19.2-10.6-29.9-10.1c-23.7,1.2-33.6,13.2-37,19
			c-1.1-1.1-2.7-2.4-4.5-3.9c-8.1-6.4-24.6-16.6-43.4-12c-13.3,3.3-23.6,15.1-26.6,30.9c-2.7,14.1,1.2,27.4,10.3,35
			c-0.5,4.3-0.7,17.3,12.4,27.8c3.4,2.7,7.6,5.1,12.3,7c-1.4,7.3-4.2,32,19.5,50.7c2.6,2,5.4,4,8.5,5.8c27.2,15.9,42.1,11.9,48.6,8
			c0.5,7.7,3.4,22.9,17,33.7c2,1.6,4.2,3.1,6.5,4.3c6.2,3.4,11.8,4.9,16.9,5.2L241.1,216.7z"/>
	</g>
	<g id="XMLID_25_">
		<path id="XMLID_26_" class="st0" d="M280.8,146.9l-243.9-9.6c-12.5,8.6-18.2,21.9-20.4,28.3c-1.9-0.3-3.9-0.5-5.9-0.6
			c-19.6-0.8-39.7,11.8-52.5,32.9c-15.1,24.8-17,54.9-5,80.4c16.4,34.8,46.8,43.2,69.4,44.1c11.8,0.5,21.8-1.1,27.1-2.2
			c1.5,11.7,8.8,41.5,45.7,49.9c4.1,0.9,8.3,1.5,12.4,1.7c27.8,1.1,46.9-15.8,55.6-25.5c3.8,12.5,17.6,34.7,66.8,44.4
			c5.5,1.1,10.9,1.7,16.2,1.9c9.3,0.4,17.5-0.7,25-2.7L280.8,146.9z"/>
	</g>
	<g id="XMLID_23_">
		<path id="XMLID_24_" class="st0" d="M645.5,204.1c-16.8-26.9-44.4-43.7-71.9-43.7c-2.8,0-5.5,0.2-8.3,0.5
			c-4.2-12.8-20.1-47.8-68-47.8c-6.7,0-13.9,0.7-21.3,2.1c-4-20.4-24.9-91.3-118.6-94.1c-2.3-0.1-4.5-0.1-6.7-0.1
			c-77.6,0-107.3,42.6-115.2,57.1c-9-3.5-29.6-10.2-53.7-10.2c-26.1,0-48.4,7.8-66.4,23.2c-39.9,34.2-40.6,68.4-38.6,82.8
			c-2.2-0.2-5-0.3-8-0.4v159.7h555c9.1-7.2,17.4-16.4,24.3-28.3C666.4,273.6,665.4,235.9,645.5,204.1z"/>
	</g>
	<g id="XMLID_21_">
		<path id="XMLID_22_" class="st0" d="M93,315.4c16.4,21.6,42.5,34.6,68.2,33.8c2.6-0.1,5.1-0.3,7.7-0.6c4.3,10.4,20,38.7,64.6,37.3
			c6.3-0.2,12.9-1,19.8-2.3c4.3,16.7,25.5,74.3,113.1,73.9c2.1,0,4.2,0,6.3-0.1c72.4-2.2,99.1-38.1,106-50.2
			c8.5,2.6,27.9,7.5,50.3,6.8c24.3-0.7,45-7.8,61.4-21c36.4-29.2,36.1-57.3,33.9-69.2c2.1,0.1,4.6,0.1,7.5,0.1l-4-131.2L110,208.7
			c-8.3,6.2-15.8,14-21.9,23.9C71.8,258.9,73.7,289.8,93,315.4z"/>
	</g>
</g>
</svg>
