<?xml version="1.0" encoding="utf-8"?>
<!-- Generator: Adobe Illustrator 19.0.0, SVG Export Plug-In . SVG Version: 6.00 Build 0)  -->
<svg version="1.1" id="Layer_1" xmlns="http://www.w3.org/2000/svg" xmlns:xlink="http://www.w3.org/1999/xlink" x="0px" y="0px"
	 viewBox="-241 333 128 128" style="enable-background:new -241 333 128 128;" xml:space="preserve">
<style type="text/css">
	.st0{fill:#88C5CC;}
	.st1{fill:#F5F5F5;}
	.st2{fill:#E6E6E6;}
	.st3{fill:#CCCCCC;}
	.st4{fill:#B3B3B3;}
</style>
<g>
	<circle class="st0" cx="-177" cy="397" r="64"/>
	<path class="st1" d="M-177,349.6c-16.6,0-30,13.4-30,30c0,10.3,5.1,11.6,13,11.2v12.8c0,4.4,3.6,8.4,8,8.4h18c4.4,0,8-4,8-8.4
		v-12.8c7.9,0.4,13-1,13-11.2C-147,363-160.4,349.6-177,349.6z"/>
	<g>
		<path class="st2" d="M-164,390.8v12.8c0,4.4-3.6,8.4-8,8.4h4c4.4,0,8-4,8-8.4v-12.8C-161.2,390.9-162.6,390.8-164,390.8z"/>
		<path class="st2" d="M-198,390.8L-198,390.8c0,0-0.1,0-0.1,0C-198.1,390.8-198,390.8-198,390.8z"/>
		<path class="st2" d="M-177,349.6c-0.7,0-1.3,0-2,0.1c15.6,1,28,14,28,29.9c0,8.3-3.4,10.8-8.9,11.2c7.8,0.4,12.9-1,12.9-11.2
			C-147,363-160.4,349.6-177,349.6z"/>
	</g>
	<path class="st3" d="M-174,380.6c0,1.7-1.3,3-3,3s-3-1.3-3-3c0-1.7,1.3-7,3-7S-174,378.9-174,380.6z"/>
	<path class="st4" d="M-179,380.6c0-1.5,1.1-5.9,2.5-6.8c-0.2-0.1-0.3-0.2-0.5-0.2c-1.7,0-3,5.3-3,7c0,1.7,1.3,3,3,3
		c0.2,0,0.3,0,0.5-0.1C-177.9,383.3-179,382-179,380.6z"/>
	<path class="st3" d="M-183.8,370.3c2.2,3.2-0.3,5.1-3.5,7.3c-3.2,2.2-5.8,3.9-8,0.7c-2.2-3.2-1.4-7.5,1.8-9.7
		C-190.4,366.3-186,367.1-183.8,370.3z"/>
	<path class="st4" d="M-193.4,378.3c-2.2-3.2-1.4-7.5,1.8-9.7c0.9-0.6,1.9-1,3-1.2c-1.7-0.2-3.5,0.1-5,1.2c-3.2,2.2-4,6.6-1.8,9.7
		c1.2,1.7,2.5,2,3.9,1.6C-192.1,379.6-192.8,379.1-193.4,378.3z"/>
	<path class="st3" d="M-170.2,370.3c-2.2,3.2,0.3,5.1,3.5,7.3c3.2,2.2,5.8,3.9,8,0.7c2.2-3.2,1.4-7.5-1.8-9.7
		C-163.6,366.3-168,367.1-170.2,370.3z"/>
	<path class="st4" d="M-164.7,377.6c-3.2-2.2-5.7-4.1-3.5-7.3c1.2-1.7,2.9-2.7,4.8-2.9c-2.5-0.4-5.2,0.7-6.8,2.9
		c-2.2,3.2,0.3,5.1,3.5,7.3c2.3,1.6,4.3,2.9,6.1,2.3C-161.8,379.5-163.2,378.6-164.7,377.6z"/>
	<path class="st1" d="M-153.2,409.5c-0.4,0-0.7,0.1-1,0.2c0.2-0.2,0.4-0.5,0.6-0.8c0.9-1.6,0.6-3.3-0.5-4c-1.2-0.7-2.8,0.1-3.7,1.6
		c-0.7,1.1-0.7,2.4-0.2,3.3l-40.3,26.1c-0.6-0.8-1.8-1.3-3.1-1.2c-1.8,0.2-3.1,1.4-3,2.7c0.1,1.3,1.7,2.3,3.4,2.1
		c0.4,0,0.7-0.1,1-0.2c-0.2,0.2-0.4,0.5-0.6,0.8c-0.9,1.6-0.6,3.3,0.5,4c1.2,0.7,2.8-0.1,3.7-1.6c0.7-1.1,0.7-2.4,0.2-3.3l40.3-26.1
		c0.6,0.8,1.8,1.3,3.1,1.2c1.8-0.2,3.1-1.4,3-2.7C-149.9,410.3-151.4,409.3-153.2,409.5z"/>
	<polygon class="st2" points="-178.1,422.9 -174.5,425.3 -170.8,422.9 -174.5,420.5 	"/>
	<path class="st1" d="M-200.8,409.5c0.4,0,0.7,0.1,1,0.2c-0.2-0.2-0.4-0.5-0.6-0.8c-0.9-1.6-0.6-3.3,0.5-4c1.2-0.7,2.8,0.1,3.7,1.6
		c0.7,1.1,0.7,2.4,0.2,3.3l40.3,26.1c0.6-0.8,1.8-1.3,3.1-1.2c1.8,0.2,3.1,1.4,3,2.7c-0.1,1.3-1.7,2.3-3.4,2.1c-0.4,0-0.7-0.1-1-0.2
		c0.2,0.2,0.4,0.5,0.6,0.8c0.9,1.6,0.6,3.3-0.5,4c-1.2,0.7-2.8-0.1-3.7-1.6c-0.7-1.1-0.7-2.4-0.2-3.3l-40.3-26.1
		c-0.6,0.8-1.8,1.3-3.1,1.2c-1.8-0.2-3.1-1.4-3-2.7C-204.2,410.3-202.6,409.3-200.8,409.5z"/>
</g>
</svg>
