<?xml version="1.0" encoding="utf-8"?>
<!-- Generator: Adobe Illustrator 19.0.0, SVG Export Plug-In . SVG Version: 6.00 Build 0)  -->
<svg version="1.1" id="Layer_1" xmlns="http://www.w3.org/2000/svg" xmlns:xlink="http://www.w3.org/1999/xlink" x="0px" y="0px"
	 viewBox="-241 333 128 128" style="enable-background:new -241 333 128 128;" xml:space="preserve">
<style type="text/css">
	.st0{fill:#FFFFFF;}
	.st1{fill:#FFCB02;}
</style>
<g>
	<path class="st0" d="M-128.9,383.3c-4.8-4.2-10.4-7.1-16.4-9.1c-8.1-2.7-18-0.5-23.3-8.4c-5.7-8.4-9.5-18.6-19.9-22.2
		c-6.5-2.3-13.5-1-19.5,2.1c-9.1,1.7-16,9.7-18.1,19.3c-1.6,7.3,0.3,14.2,1.1,21.5c1.1,8.8-5.1,14.8-9.9,21.3
		c-9,12.4-8.7,25.8,3.6,36c13,10.8,27.4,7.6,42.4,4c8.6-2.1,16.3,0,24.9,1.1c8.1,1,16.1,0.6,23.9-1.7c13.5-3.9,25.9-15.4,27-29.9
		C-112.1,404.1-119.3,391.8-128.9,383.3z"/>
	<circle class="st1" cx="-188.7" cy="402" r="24.9"/>
</g>
</svg>
