<?xml version="1.0" encoding="utf-8"?>
<!-- Generator: Adobe Illustrator 19.0.0, SVG Export Plug-In . SVG Version: 6.00 Build 0)  -->
<svg version="1.1" id="Layer_1" xmlns="http://www.w3.org/2000/svg" xmlns:xlink="http://www.w3.org/1999/xlink" x="0px" y="0px"
	 viewBox="-241 333 128 128" style="enable-background:new -241 333 128 128;" xml:space="preserve">
<style type="text/css">
	.st0{fill:#26537C;}
	.st1{fill:none;}
	.st2{fill:#F7931E;}
	.st3{fill:#FBB03B;}
	.st4{fill:#C1272D;}
	.st5{fill:#F15A24;}
</style>
<circle class="st0" cx="-177" cy="397" r="64"/>
<circle class="st1" cx="-176.8" cy="397.2" r="64.2"/>
<g>
	<g>
		
			<rect x="-162.3" y="352.3" transform="matrix(0.9953 9.708136e-02 -9.708136e-02 0.9953 35.6697 17.0773)" class="st2" width="9.3" height="45.6"/>
	</g>
	<g>
		
			<rect x="-199.4" y="371.2" transform="matrix(2.517307e-02 0.9997 -0.9997 2.517307e-02 205.8017 540.5579)" class="st2" width="50.3" height="9.3"/>
	</g>
	<g>
		
			<rect x="-187.2" y="366.6" transform="matrix(0.9999 1.196776e-02 -1.196776e-02 0.9999 4.6123 2.2127)" class="st2" width="9.3" height="39.7"/>
	</g>
	<g>
		
			<rect x="-198.5" y="353.2" transform="matrix(0.9999 1.268595e-02 -1.268595e-02 0.9999 4.7809 2.4901)" class="st2" width="9.3" height="49.8"/>
	</g>
	<g>
		
			<rect x="-221.3" y="374.8" transform="matrix(0.1204 0.9927 -0.9927 0.1204 201.0601 531.962)" class="st3" width="43.4" height="9.3"/>
	</g>
	<g>
		
			<rect x="-193.6" y="362.3" transform="matrix(0.9952 9.775028e-02 -9.775028e-02 0.9952 36.2475 20.2935)" class="st3" width="9.3" height="35.6"/>
	</g>
	<g>
		
			<rect x="-194" y="376.1" transform="matrix(3.429896e-02 0.9994 -0.9994 3.429896e-02 211.0484 543.16)" class="st3" width="36.9" height="9.3"/>
	</g>
	<g>
		
			<rect x="-170.4" y="356.7" transform="matrix(0.9999 1.706531e-02 -1.706531e-02 0.9999 6.4579 2.8848)" class="st3" width="9.3" height="46.4"/>
	</g>
	<g>
		
			<rect x="-158.9" y="362.3" transform="matrix(0.9981 6.134337e-02 -6.134337e-02 0.9981 23.1217 10.1813)" class="st3" width="9.3" height="38.7"/>
	</g>
	<path class="st4" d="M-153.7,380.8c-2,12.6-44.1,12.6-46.1,0l-8.7,0.9l8.7,62.2c0,0,6.2-4,23.1-4c16.8,0,23.1,4,23.1,4l8.7-62.2
		L-153.7,380.8z"/>
	<circle class="st5" cx="-176.8" cy="416.3" r="16"/>
</g>
</svg>
