<?xml version="1.0" encoding="utf-8"?>
<!-- Generator: Adobe Illustrator 19.0.0, SVG Export Plug-In . SVG Version: 6.00 Build 0)  -->
<svg version="1.1" id="Layer_1" xmlns="http://www.w3.org/2000/svg" xmlns:xlink="http://www.w3.org/1999/xlink" x="0px" y="0px"
	 viewBox="-241 333 128 128" style="enable-background:new -241 333 128 128;" xml:space="preserve">
<style type="text/css">
	.st0{fill:#3E4379;}
	.st1{clip-path:url(#SVGID_2_);}
	.st2{fill:#C98A28;}
	.st3{fill:#FFD3AB;}
	.st4{fill:#FF4A4D;}
	.st5{fill:#E4BC99;}
	.st6{fill:#FFFFFF;}
	.st7{fill:#B80000;}
	.st8{fill:#D60000;}
	.st9{fill:#E09A2C;}
</style>
<g>
	<circle class="st0" cx="-177" cy="397" r="64"/>
	<g>
		<defs>
			<circle id="SVGID_1_" cx="-177" cy="397" r="64"/>
		</defs>
		<clipPath id="SVGID_2_">
			<use xlink:href="#SVGID_1_"  style="overflow:visible;"/>
		</clipPath>
		<g class="st1">
			<path class="st2" d="M-145.9,433c0.2-4.2,9.1-8.9,7.6-17.1c-1.6-8.2-11.8-3.6-14.7-7.6c-2.9-4,3.3-7.1,6.9-11.8
				c3.6-4.7,1.8-12.2-0.9-17.6c-2.7-5.3,2.2-12.2-6-26c-7.7-12.9-22.2-10.1-24-9.6c-1.8-0.5-16.3-3.3-24,9.6
				c-8.2,13.8-3.3,20.7-6,26c-2.7,5.3-4.4,12.9-0.9,17.6c3.6,4.7,9.8,7.8,6.9,11.8c-2.9,4-13.1-0.7-14.7,7.6
				c-1.6,8.2,7.3,12.9,7.6,17.1c0.2,4.2-6.7,10.2-3.3,12c3.3,1.8,20.1,8.4,34.5,8.4c14.4,0,31.1-6.7,34.5-8.4
				C-139.2,443.2-146.1,437.2-145.9,433z"/>
			<g>
				<path class="st3" d="M-132.9,440.2c-0.6-17.5-3.3-20-12.7-21.7c-9.5-1.7-21.9,6.1-23.7,0.5c-1.8-5.6,0-15.3,0-15.3h-15.4
					c0,0,1.8,9.6,0,15.3c-1.8,5.6-14.2-2.2-23.7-0.5c-9.5,1.7-12.1,4.2-12.7,21.7c-0.6,17.5,2.2,22.2,2.2,22.2h83.8
					C-135.1,462.4-132.3,457.7-132.9,440.2z"/>
				<path class="st4" d="M-137.5,421.6c-9.1,7-23.4,11.5-39.5,11.5c-16.1,0-30.4-4.5-39.5-11.5c-3.1,2.7-4.3,7.8-4.6,18.6
					c-0.6,17.5,2.2,22.2,2.2,22.2h83.8c0,0,2.8-4.7,2.2-22.2C-133.2,429.3-134.4,424.2-137.5,421.6z"/>
				<path class="st5" d="M-173.4,412.6c1.2-1.2,2.3-2.2,3.4-3c0.2-3.3,0.7-5.9,0.7-5.9h-15.4c0,0,1.8,9.6,0,15.3
					c-0.6,2-2.7,2.3-5.4,1.9C-180.9,424.3-177.7,417.2-173.4,412.6z"/>
				<g>
					<g>
						<path class="st5" d="M-193.4,376.9c0,0-6.8-6.2-9.7,0c-3,6.2,8.4,17.3,11.9,15.4C-187.7,390.4-193.4,376.9-193.4,376.9z"/>
						<path class="st5" d="M-160.6,376.9c0,0,6.8-6.2,9.7,0c3,6.2-8.4,17.3-11.9,15.4C-166.3,390.4-160.6,376.9-160.6,376.9z"/>
					</g>
					<path class="st3" d="M-157.3,364.2c-0.5-16.7-16.6-16.8-19.7-16.8c-3,0-19.1,0-19.7,16.8c-0.5,16.7,0.3,28.9,3.8,34.3
						c3.5,5.3,11.8,11.7,15.9,11.7c4.1,0,12.4-6.4,15.9-11.7C-157.6,393.1-156.8,381-157.3,364.2z"/>
				</g>
				<g>
					<path class="st6" d="M-180.1,397.7c0.4,0,0.9-0.1,1.2-0.3c1.5-0.8,1.3,0,1.9,0c0.6,0,0.5-0.8,1.9,0c0.3,0.2,0.8,0.3,1.2,0.3
						c-1.1,0.3-2.4,0.5-3.1,0.5C-177.7,398.2-179,397.9-180.1,397.7z"/>
					<path class="st7" d="M-171.9,397.2c0,0-3.7,1-5.1,1c-1.4,0-5.1-1-5.1-1c-0.6,2.6,3.8,3.3,5.1,3.3
						C-175.7,400.4-171.3,399.8-171.9,397.2z"/>
					<path class="st8" d="M-173.6,395.1c-1.8-1.7-2.8-1.1-3.4-0.7c0,0,0,0,0,0c0,0,0,0,0,0c-0.6-0.4-1.6-0.9-3.4,0.7
						c-1.8,1.7-3,2.3-3,2.3s3,0.8,4.5,0c1.5-0.8,1.3,0,1.9,0c0.6,0,0.5-0.8,1.9,0c1.5,0.8,4.5,0,4.5,0S-171.8,396.7-173.6,395.1z"/>
				</g>
				<path class="st5" d="M-173.1,387.8c0,0-1.9,2.5-3.9,2.5c-2.1,0-3.9-2.5-3.9-2.5s0.5,3.6,3.9,3.6
					C-173.6,391.3-173.1,387.8-173.1,387.8z"/>
			</g>
			<path class="st9" d="M-155.6,365.5c0-1.1,0-1.8,0-1.8c-0.8-8.8-5.5-18.3-21.3-18.3c-15.8,0-20.5,9.4-21.3,18.2
				c-1.5,5.7,0.4,12.1,0.4,12.1c7.3-3.6,13.1-10.1,16.8-15.1c0.1,0,0.2-0.1,0.2-0.1c-3.6,6.6-10.8,14.2-10.8,14.2s5.1,0,13.8-5.8
				c3.3-2.2,5.3-4.6,6.6-6.8c0.3,2,1,4.2,2.6,5.8c3.8,4,4.9,4.2,4.9,4.2s-0.5-3.5-1.2-7c0,0,0,0,0,0c0.8,1.6,1.7,3,2.8,4
				c4.4,4.4,4.8,9.7,4.8,9.7S-154.6,375.6-155.6,365.5z"/>
		</g>
	</g>
</g>
</svg>
