<?xml version="1.0" encoding="utf-8"?>
<!-- Generator: Adobe Illustrator 19.0.0, SVG Export Plug-In . SVG Version: 6.00 Build 0)  -->
<svg version="1.1" id="Layer_1" xmlns="http://www.w3.org/2000/svg" xmlns:xlink="http://www.w3.org/1999/xlink" x="0px" y="0px"
	 viewBox="-594 360.7 89.2 81.3" style="enable-background:new -594 360.7 89.2 81.3;" xml:space="preserve">
<style type="text/css">
	.st0{fill:#E34646;}
	.st1{fill:#32353D;}
	.st2{opacity:0.1;}
	.st3{fill:#F84D4D;}
</style>
<g>
	<g>
		<polygon class="st0" points="-521.2,389.8 -554.4,397.8 -554.5,382.4 -521.2,389.8 		"/>
		<path class="st1" d="M-573.3,436.2c0,1.2-1,2.2-2.2,2.2l0,0c-1.2,0-2.2-1-2.2-2.2v-69.6c0-1.2,1-2.2,2.2-2.2l0,0
			c1.2,0,2.2,1,2.2,2.2V436.2z"/>
		<path class="st2" d="M-575.4,364.4L-575.4,364.4c1.2,0,2.2,1,2.2,2.2v69.6c0,1.2-1,2.2-2.2,2.2l0,0V364.4z"/>
	</g>
	<polygon class="st2" points="-542.9,385 -545,384.5 -545,373.1 -565.1,371.6 -565.1,391.8 -554.5,391 -554.4,397.8 -542.9,395 	"/>
	<polygon class="st3" points="-545,390.3 -575.4,392.5 -575.4,370.9 -545,373.1 	"/>
</g>
</svg>
