<?xml version="1.0" encoding="utf-8"?>
<!-- Generator: Adobe Illustrator 19.0.0, SVG Export Plug-In . SVG Version: 6.00 Build 0)  -->
<svg version="1.1" id="Layer_1" xmlns="http://www.w3.org/2000/svg" xmlns:xlink="http://www.w3.org/1999/xlink" x="0px" y="0px"
	 viewBox="-241 333 128 128" style="enable-background:new -241 333 128 128;" xml:space="preserve">
<style type="text/css">
	.st0{fill:#FFC50B;}
	.st1{fill:none;}
	.st2{fill:#88CEBF;}
	.st3{fill:#D63A26;}
	.st4{fill:#FFFFFF;}
	.st5{fill:#6B1D13;}
</style>
<circle class="st0" cx="-177" cy="397" r="64"/>
<circle class="st1" cx="-176.8" cy="397.2" r="64.2"/>
<g>
	
		<rect x="-186.8" y="351.1" transform="matrix(-0.9877 -0.1565 0.1565 -0.9877 -426.4736 711.0029)" class="st2" width="3.1" height="42.4"/>
	<g>
		<polygon class="st3" points="-181.4,444 -206.8,444 -209.9,388 -178.3,388 		"/>
		<polygon class="st4" points="-180.1,433 -178.8,411.5 -209.4,411.5 -208.2,433 		"/>
	</g>
	<rect x="-213" y="385" class="st4" width="37" height="5"/>
</g>
<g>
	<g>
		<polygon class="st4" points="-142.9,444 -168.4,444 -171.5,388 -139.9,388 		"/>
		<polygon class="st5" points="-168.7,396.6 -166.2,442 -145.1,442 -142.6,396.6 		"/>
	</g>
	<path class="st4" d="M-160.2,403.2c-0.1,0-0.1,0-0.2-0.1c-0.4-0.1-0.8,0.1-1,0.4c-0.1,0.3-0.1,0.6,0,0.9c0.2,0.3,0.7,0.5,1,0.4
		c0.1,0,0.1,0,0.2-0.1C-159.4,404.5-159.5,403.5-160.2,403.2z"/>
	<path class="st4" d="M-154.1,402.5c-0.1,0-0.1,0-0.2,0c-0.5-0.1-0.9,0.3-0.9,0.8c0,0.5,0.5,0.8,1,0.7l0.2,0
		C-153.3,403.8-153.4,402.7-154.1,402.5z"/>
	<path class="st4" d="M-155.3,410.6c-1.1,0-1,1.6,0.1,1.6C-154.2,412.3-154.3,410.6-155.3,410.6z"/>
	<path class="st4" d="M-163.3,415c-0.4,0-0.3,0.6,0,0.6C-162.9,415.6-162.9,415-163.3,415z"/>
	<path class="st4" d="M-159.7,427.6c-0.8,0-0.7,1.2,0,1.2C-158.8,428.8-158.9,427.6-159.7,427.6z"/>
	<path class="st4" d="M-154.8,418.9c-1.3,0-1.3,2.1,0.1,2.1C-153.4,421-153.5,418.9-154.8,418.9z"/>
	<path class="st4" d="M-161.2,410.7c-0.6,0-0.6,1,0,1C-160.5,411.7-160.6,410.7-161.2,410.7z"/>
	<path class="st4" d="M-147.9,406.2c-0.8,0-0.8,1.3,0,1.3C-147,407.5-147,406.2-147.9,406.2z"/>
	<path class="st4" d="M-145.3,399.9c-0.7,0-0.6,1.1,0,1.1C-144.6,401-144.6,399.9-145.3,399.9z"/>
	<path class="st4" d="M-165.6,399.2c-0.2,0-0.2,0.4,0,0.4C-165.3,399.6-165.3,399.2-165.6,399.2z"/>
	<path class="st4" d="M-154.8,398.8c-0.5,0-0.5,0.7,0,0.7C-154.3,399.5-154.3,398.8-154.8,398.8z"/>
	<path class="st4" d="M-161.8,400.6c-0.1-0.4-0.6-0.4-0.8-0.1c0,0,0,0,0,0c-0.5,0.1-0.4,0.8,0,1c0.3,0.1,0.5,0,0.7-0.2
		C-161.7,401.1-161.7,400.8-161.8,400.6z"/>
	<path class="st4" d="M-152,426.5c-0.8,0-0.8,1.3,0,1.3C-151.1,427.8-151.1,426.5-152,426.5z"/>
	<path class="st4" d="M-155.3,435.2c-0.9,0-0.9,1.4,0,1.4C-154.3,436.6-154.4,435.2-155.3,435.2z"/>
	<path class="st4" d="M-161.2,434.6c-0.7,0-0.7,1.1,0,1.1C-160.5,435.6-160.5,434.6-161.2,434.6z"/>
	<path class="st4" d="M-149.7,438.3c-0.9,0-0.9,1.4,0,1.4C-148.7,439.6-148.8,438.3-149.7,438.3z"/>
	<path class="st4" d="M-147.9,418.9c-1.1,0-1,1.7,0.1,1.7C-146.7,420.5-146.8,418.9-147.9,418.9z"/>
	<path class="st4" d="M-162,419.1c-1.1,0-1,1.7,0.1,1.7C-160.9,420.8-160.9,419.1-162,419.1z"/>
	<path class="st3" d="M-155.3,427.1c-1,0-1,1.6,0.1,1.6C-154.2,428.7-154.3,427.1-155.3,427.1z"/>
	<path class="st3" d="M-147.6,431.5c-0.7,0-0.7,1.1,0,1.1C-146.9,432.6-146.9,431.5-147.6,431.5z"/>
	<path class="st3" d="M-156.1,423.8c0,0.2,0,0.3,0.1,0.5c0.2,0.2,0.6,0.4,0.8,0.1c0.1-0.2,0.2-0.3,0.2-0.5
		C-154.9,423.1-156.2,423-156.1,423.8z"/>
	<path class="st3" d="M-147.9,414.8c-1,0-1,1.6,0.1,1.6C-146.8,416.4-146.8,414.8-147.9,414.8z"/>
	<path class="st3" d="M-158.4,414.2c-0.8,0-0.7,1.2,0,1.2C-157.5,415.4-157.6,414.2-158.4,414.2z"/>
	<path class="st3" d="M-151.5,404.4c-1.2,0-1.1,1.9,0.1,1.9C-150.2,406.2-150.3,404.4-151.5,404.4z"/>
	<path class="st3" d="M-148.4,400c-0.2,0-0.4,0-0.5,0.1c-0.4,0.2-0.3,0.8,0,1c0.2,0.1,0.4,0.1,0.6,0.1
		C-147.5,401.2-147.5,400.1-148.4,400z"/>
	<path class="st3" d="M-160.8,399.4c-0.3,0.1-0.4,0.4-0.3,0.7c0,0.1-0.1,0.2-0.1,0.3c0,0.4,0.4,0.5,0.7,0.5
		C-159.5,400.7-159.8,399.1-160.8,399.4z"/>
	<path class="st3" d="M-165.8,406c-0.5,0-0.5,0.7,0,0.7C-165.3,406.7-165.3,406-165.8,406z"/>
	<path class="st3" d="M-164.3,424.3l-0.2,0.3c-0.2,0.3,0.1,0.9,0.5,0.6c0.1-0.1,0.2-0.1,0.3-0.2C-163.2,424.5-164,423.8-164.3,424.3
		z"/>
	<path class="st3" d="M-163,438.5c-1,0-0.9,1.5,0.1,1.5C-162,440-162,438.5-163,438.5z"/>
	<path class="st3" d="M-157.6,439.3c-0.8,0-0.8,1.3,0,1.3C-156.7,440.6-156.8,439.3-157.6,439.3z"/>
	<path class="st3" d="M-157.4,406c-0.8,0-0.8,1.3,0,1.3C-156.5,407.2-156.5,406-157.4,406z"/>
</g>
</svg>
