<?xml version="1.0" encoding="utf-8"?>
<!-- Generator: Adobe Illustrator 19.0.0, SVG Export Plug-In . SVG Version: 6.00 Build 0)  -->
<svg version="1.1" id="Layer_1" xmlns="http://www.w3.org/2000/svg" xmlns:xlink="http://www.w3.org/1999/xlink" x="0px" y="0px"
	 viewBox="-241 333 128 128" style="enable-background:new -241 333 128 128;" xml:space="preserve">
<style type="text/css">
	.st0{fill:#8CC63F;}
	.st1{fill:#009245;}
	.st2{fill:#C1272D;}
	.st3{fill:#26537C;}
	.st4{fill:#F2F2F2;}
</style>
<g id="XMLID_2_">
	<path id="XMLID_13_" class="st0" d="M-143.4,384.1c0-1.6,0.1-2.9-0.1-4.5c-0.1-0.8,0.3-1.9-0.3-2.5c-0.1-0.2-0.5-0.1-0.6,0.1
		c-0.2,0.3-0.2,0.5-0.3,0.8c-0.1,0.9-0.9,1.3-1.4,1.9c-0.9,1.2-1.8,2.6-2.5,3.9c-0.2,0.3-0.1,0.8-0.1,1.1c0,0.7-0.1,1.2-0.2,1.9
		c-0.1,0.7-0.2,1.3-0.4,1.9c-0.9,0.9-1.5,0.8-1.8-0.1c0,0-0.6-1.3-0.7-1.5c-0.4-0.9-0.9-1.1-0.5-2.3c0.1-0.2,0.1-0.7,0-0.9
		c-0.2-0.8-0.2-2.1-1-2.7c-1.2-0.9-1.3-2.9-1.6-4.3c-0.2-0.7,0-2.1-0.8-2.5c-0.1-0.1-0.3-0.1-0.4,0c-0.6,0.3-1.6,0.9-1.8,1.6
		c-0.2,0.6-0.1,1.1-0.2,1.7c-0.3,1.2-1.3,1.3-2.1,1.9c-2.4,2-5.8,2.6-7.2,5.7c-0.9,2-3.6,0-4.9-0.5c-1.8-0.7-3.6-1.2-5.3-1.9
		c-1.7-0.7-3.3-1.4-4.9-2.3c-0.9-0.5-1.8-1-2.5-1.7c-1.3-1.2-0.2-2.4-0.3-3.6c-0.1-0.7-1.4-1.1-1.9-1.4c-1.6-0.9-2.7-2.8-3.4-4.3
		c-0.9-1.8-2.5,0.6-2.8,1.6c-0.2,0.6-0.2,1.4-0.3,2c-0.3,1.3-1.4,1.6-2.3,2.3c-1,0.8-2.3,1.4-2.8,2.7c-0.6,1.5-0.5,3.3-0.9,4.9
		c-0.6,2.1-1.5,4.4-3,6c-0.2,0.2-0.1,0.4,0,0.5c0,0.1,0.1,0.1,0.1,0.1c2.5,1.2,5.3,2.1,8,2.5c3.2,0.4,6.4,1.2,9.7,1.5
		c1.6,0.1,3.2,0.1,4.8-0.1c1.8-0.1,3.5,0,5.2,0c3.8,0.1,7.6-0.5,11.3-0.4c3.6,0.1,7,0.1,10.5-0.6c1.7-0.3,3.5-0.4,5.2-0.7
		c0.8-0.1,1.6-0.4,2.4-0.4c0.4,0,1-0.1,1.3-0.3c0.6-0.5,0.8-0.9,0.8-1.7C-143.3,387.9-143.4,386-143.4,384.1z"/>
	<path id="XMLID_11_" class="st1" d="M-168.8,386.1c0.1-1,0.1-1.4,0.9-2.2c0.5-0.5,0.9-0.9,1-1.6c0-0.4-0.6-0.8-0.8-1
		c-1.3-1.3-1.2-2.7-0.8-4.3c0.5-2-2-3.3-1.2-5.1c0.9-2,0.9-4.7-2-3.1c-1.4,0.7-4-0.1-5.1,1.4c-0.8,1.1-1.8,1.6-3,2.4
		c-0.8,0.5-1.8,0.4-2.6,0.9c-1.4,0.9,1.5,3.1-1,3.6c-1.5,0.3-3.5,0-4.4,1.5c-0.5,0.8-0.3,1.9-0.8,2.8c-0.5,0.9-1.5,1.3-2.2,2.1
		c-0.3,0.3-0.3,0.7-0.2,1.1c0.4,1.3,1.8,4.3,0,5.2c-1.1,0.6-2.5,0.3-3.7,0.5c-1.1,0.1-1.7,0.8-2.4-0.5c-0.6-1.1-1.7-1.7-2-2.9
		c-0.3-1.1-0.2-2.2-0.8-3.3c-1-1.8-2.9-1.3-4.7-2.1c-0.8-0.4-0.8-2-1.3-2.7c-0.3-0.4-1.3-0.8-1.7-0.9c-0.7-0.2-1.1-0.3-1.8-0.4
		c-0.8-0.1-1.1-1.9-1.4-2.6c-0.4-0.9-1.5-0.9-2.3-0.9c-1.1,0-2.4,0.3-3.3,0.9c-1.1,0.8-0.6,1.7-0.2,2.7c0.7,1.7-0.9,3.1-0.4,4.8
		c0.4,1.2,0.1,2-0.3,3.2c-0.2,0.6-0.2,0.6,0,1.1c0.4,0.8,1.7,1.8,0.3,2.6c-0.2,0.1-0.4,0.4-0.4,0.6c-0.1,0.8,0.2,1.6,0.9,2.1
		c0,0.2,0.1,0.4,0.4,0.4c1.8,0,3.7,0.5,5.5,0.5h5.7c1.6,0,3.3,0,4.8-0.3c1-0.2,2-0.7,3-0.9c1.2-0.3,2.5,0,3.7,0.2
		c4.4,0.5,9,0.7,13.4,0.9c3.8,0.2,7.4,0.9,11.2,0.4c0.1,0,0.2-0.1,0.2-0.1c0.2-0.1,0.4-0.3,0.2-0.5c-1-1.2-1.4-2.3-1.1-3.9
		C-169.6,387.9-168.9,387.1-168.8,386.1z"/>
	<path id="XMLID_9_" class="st1" d="M-136.3,377.4c-0.3-1-2.4,0.3-2.9,0.5c-0.8,0.4-1.5,1.5-1.9,2.3c-0.6,1-2.2,1.2-3.1,2
		c-0.7,0.7-3.2,2-2.8,3.3c0.4,1.5,2.3,2.7,0.7,4.3c-0.8,0.8-1.8,1.5-2.4,2.5c-0.2,0.4,0.3,0.7,0.6,0.4c2.5-0.2,5.1,0.1,7.5,0.8
		c1.5,0.5,2.3-1.2,2.6-2.3c0.3-1-0.2-2.3-0.3-3.2c-0.1-1.4-0.1-2.8,0.4-4.1c0.5-1.3,0.7-2.6,0.9-3.9
		C-136.8,379.3-136.1,378.2-136.3,377.4z"/>
	
		<ellipse id="XMLID_8_" transform="matrix(0.9939 0.1103 -0.1103 0.9939 42.1151 23.9085)" class="st2" cx="-195" cy="392.5" rx="11.8" ry="9.1"/>
	
		<ellipse id="XMLID_7_" transform="matrix(0.882 -0.4713 0.4713 0.882 -204.5188 -28.8209)" class="st2" cx="-159.8" cy="394" rx="11.8" ry="8.4"/>
	<g id="XMLID_3_">
		<path id="XMLID_6_" class="st3" d="M-217.7,390.8v15c0,11.3,9.2,20.5,20.5,20.5h39.6c11.3,0,20.5-9.2,20.5-20.5v-15H-217.7z"/>
		<rect id="XMLID_5_" x="-217.7" y="395.3" class="st4" width="80.7" height="3.2"/>
		<rect id="XMLID_4_" x="-217.7" y="399.7" class="st4" width="80.7" height="5.1"/>
	</g>
</g>
</svg>
