<?xml version="1.0" encoding="utf-8"?>
<!-- Generator: Adobe Illustrator 19.0.0, SVG Export Plug-In . SVG Version: 6.00 Build 0)  -->
<svg version="1.1" id="Layer_1" xmlns="http://www.w3.org/2000/svg" xmlns:xlink="http://www.w3.org/1999/xlink" x="0px" y="0px"
	 viewBox="-241 333 128 128" style="enable-background:new -241 333 128 128;" xml:space="preserve">
<style type="text/css">
	.st0{fill:#E16B5A;}
	.st1{fill:#992B1F;}
	.st2{fill:#F5F5F5;}
</style>
<g>
	<g>
		<circle class="st0" cx="-177" cy="397" r="64"/>
	</g>
	<path class="st1" d="M-132,380c-3.8-18-29.7-28-45-13c-15.3-15-41.2-5-45,13c-5.2,24.3,21.1,52,45,62
		C-153.1,432-126.9,404.3-132,380z"/>
	<path class="st2" d="M-184,425c-1,0-1.8-0.7-2-1.6l-5.7-31.1l-5.4,13.7c-0.3,0.8-1.1,1.3-2,1.3c-0.9-0.1-1.6-0.7-1.8-1.5l-1.8-7.2
		l-1.5,2.5c-0.4,0.6-1,1-1.7,1h-23c-1.1,0-2-0.9-2-2s0.9-2,2-2h21.9l3.4-5.5c0.4-0.7,1.2-1,2-0.9c0.8,0.1,1.4,0.7,1.6,1.5l1.5,5.8
		l5.7-14.4c0.3-0.8,1.2-1.3,2.1-1.3c0.9,0.1,1.6,0.8,1.8,1.6l4.7,25.7l2.3-16.7c0.1-0.9,0.8-1.6,1.7-1.7c0.9-0.1,1.7,0.4,2.1,1.2
		l3.2,7.4l1.1-2.5c0.3-0.7,1-1.2,1.8-1.2h52c1.1,0,2,0.9,2,2s-0.9,2-2,2h-50.7l-2.5,5.6c-0.3,0.7-1,1.4-1.8,1.4c0,0,0,0,0,0
		c-0.8,0-1.5-0.7-1.8-1.4l-2.2-5.1l-3,21.9C-182.2,424.3-183,425-184,425C-184,425-184,425-184,425z"/>
</g>
</svg>
