<?xml version="1.0" encoding="utf-8"?>
<!-- Generator: Adobe Illustrator 19.0.0, SVG Export Plug-In . SVG Version: 6.00 Build 0)  -->
<svg version="1.1" id="Layer_1" xmlns="http://www.w3.org/2000/svg" xmlns:xlink="http://www.w3.org/1999/xlink" x="0px" y="0px"
	 viewBox="-241 333 128 128" style="enable-background:new -241 333 128 128;" xml:space="preserve">
<style type="text/css">
	.st0{fill:#C195CC;}
	.st1{fill:#48695A;}
	.st2{fill:#547A69;}
	.st3{fill:#5C8F78;}
	.st4{fill:#70AD91;}
	.st5{fill:#96C9B1;}
	.st6{fill:none;stroke:#FFFFFF;stroke-width:7;stroke-linejoin:round;stroke-miterlimit:10;stroke-dasharray:2,12;}
	.st7{fill:none;}
</style>
<circle class="st0" cx="-177" cy="396.7" r="63.2"/>
<g>
	<path class="st1" d="M-175.4,381c-25.6-0.2-51.1,2.6-51.1,2.6l1.5,11.7l49.7-0.7c20.2,0,37.4,3.2,43.7,7.7l0.1-12.3
		C-131.7,385.9-144.8,381.2-175.4,381z"/>
	<path class="st2" d="M-188.3,386c20.1-0.8,37.2,2.2,37.2,6.6l0,10c-4.4-3.2-22.9-5.4-37.1-5.4c-14.2,0-26.3,2.3-30.8,5.4l0-11.3
		C-219.1,389.3-207.8,386-188.3,386z"/>
	<path class="st1" d="M-178.3,388.2c11.7,0,24.2,1.4,24.2,4.3l0,6.5c-2.9-2.1-14.9-3.5-24.2-3.5c-9.3,0-17.2,1.5-20,3.5l0-7.3
		C-198.3,390.4-190.9,388.2-178.3,388.2z"/>
	<path class="st3" d="M-154,392.1c-2.2,1.6-7.6,2.2-14.2,2.4v8c8.5-0.4,14.3-1.9,14.3-4.3L-154,392.1z"/>
	<path class="st4" d="M-174.7,405.6c13.8,0,23.6-1.9,23.6-5.4l0-7.6c-3.4,2.4-12.7,3.1-23.5,3.1c-10.9,0-20.2-1.7-23.5-4.2l0,8.7
		C-198.3,403.7-188.5,405.6-174.7,405.6z"/>
	<path class="st5" d="M-175.4,412.3c25.5,0,43.7-3.6,43.7-10l-0.1-12.3c-6.3,4.5-23.5,7.7-43.7,7.7c-20.2,0-37.4-1.9-43.7-6.4
		l-0.1,10.9C-219.1,408.7-200.9,412.3-175.4,412.3z"/>
	<path class="st6" d="M-216.6,403c5.9,4,21.3,6.1,41.1,6.1c20.7,0,36.5-2.4,41.8-6.6"/>
</g>
<circle class="st7" cx="-177" cy="395.3" r="63.2"/>
</svg>
