<?xml version="1.0" encoding="utf-8"?>
<!-- Generator: Adobe Illustrator 19.0.0, SVG Export Plug-In . SVG Version: 6.00 Build 0)  -->
<svg version="1.1" id="Layer_1" xmlns="http://www.w3.org/2000/svg" xmlns:xlink="http://www.w3.org/1999/xlink" x="0px" y="0px"
	 viewBox="-241 333 128 128" style="enable-background:new -241 333 128 128;" xml:space="preserve">
<style type="text/css">
	.st0{fill:#F3B4A2;}
	.st1{fill:#EC8E73;}
	.st2{fill:#CCECEF;}
	.st3{fill:#E04316;}
	.st4{fill:#99D9DE;}
</style>
<g>
	<circle class="st0" cx="-177.8" cy="397" r="64"/>
	<path class="st1" d="M-114,392.2c-2.4-1.9-28.8-21.3-34.7-25.8c-1.4,0-2.9,0.4-4.3,0.7c-1.8,0.5-3.2,2.4-4.5,3.6
		c-2.9,2.7-6.2,4.9-8.4,8.3c-1.9,3-3.3,6.2-5.3,9.2c-1.9,2.9-4.4,5.2-6.7,7.7c-2.8,3.2-5.5,6.5-7.7,10.2c-1.8,3-3.5,6.1-5.7,8.9
		c-2.4,3.1-4.9,6.1-7.2,9.2c-2.4,3.2-4.9,6.4-7.3,9.7c-0.1,0.2,0.7-1.8,0.5-1.8c0,0-1.8,2.4-1.2,2.4c5.6,4.6,30.6,22.9,34.9,26.1
		c32.5-3.1,57.9-30.4,57.9-63.7C-113.8,395.4-113.9,393.8-114,392.2z"/>
	<g>
		<path class="st2" d="M-205.7,434.6l13.4-17.8c0.1-0.1,0.1-0.3,0.1-0.4l1.8,1.3c1.8,1.3,4.3,1,5.7-0.8l25.6-34.4
			c1.3-1.8,1-4.3-0.8-5.7l-0.4-0.3l6.9-8.5l-3.2-2.6l-7,8.6l0.5,0.4l-1.4-1c-1.8-1.3-4.3-1-5.7,0.8l-25.6,34.4
			c-1.3,1.8-1,4.3,0.8,5.7l1.7,1.2c-0.1,0.1-0.3,0.1-0.4,0.3l-13.4,17.8c-0.1,0.2-0.2,0.4-0.2,0.6c0,0.2,0.1,0.4,0.3,0.6
			C-206.5,435-206,434.9-205.7,434.6z"/>
		<path class="st3" d="M-185.7,415.3l10.9-14.6c-2.5-2.5-5-4.9-7.7-7.2l-11.6,15.6c-1,1.4-0.7,3.3,0.6,4.3l3.5,2.6
			C-188.7,416.9-186.7,416.6-185.7,415.3z"/>
		<path class="st4" d="M-148.2,369.5c-0.8,1-2.2,1.1-3.1,0.3l-7.5-6.1c-1-0.8-1.1-2.2-0.3-3.1l0,0c0.8-1,2.2-1.1,3.1-0.3l7.5,6.1
			C-147.6,367.1-147.4,368.5-148.2,369.5L-148.2,369.5z"/>
	</g>
</g>
</svg>
