<?xml version="1.0" encoding="utf-8"?>
<!-- Generator: Adobe Illustrator 19.0.0, SVG Export Plug-In . SVG Version: 6.00 Build 0)  -->
<svg version="1.1" id="Layer_1" xmlns="http://www.w3.org/2000/svg" xmlns:xlink="http://www.w3.org/1999/xlink" x="0px" y="0px"
	 viewBox="-241 333 128 128" style="enable-background:new -241 333 128 128;" xml:space="preserve">
<style type="text/css">
	.st0{fill:#CA293E;}
	.st1{fill:none;}
	.st2{fill:#F2F2F2;}
	.st3{fill:#F7931E;}
	.st4{fill:#FBB03B;}
</style>
<ellipse class="st0" cx="-177" cy="397" rx="63.8" ry="63.7"/>
<ellipse class="st1" cx="-177" cy="397" rx="63.8" ry="63.7"/>
<g>
	<path class="st2" d="M-201.8,345.6l2.4,86.1c0,1.9,1.6,3.5,3.5,3.5l38.7-0.1c1.9,0,3.5-1.6,3.5-3.5l2.2-86.1L-201.8,345.6z"/>
	<path class="st3" d="M-198.6,375.1l1.6,56.6c0,0.6,0.5,1.2,1.2,1.2l38.7-0.1c0.6,0,1.2-0.5,1.2-1.2l1.4-56.5l-44.1,0.1V375.1z"/>
	<circle class="st4" cx="-165.6" cy="424.7" r="2"/>
	<ellipse class="st4" cx="-165.8" cy="409.7" rx="7.6" ry="7.6"/>
	<circle class="st4" cx="-163.5" cy="393.8" r="2.3"/>
	<circle class="st4" cx="-168.7" cy="386.8" r="0.8"/>
	<circle class="st4" cx="-164.6" cy="381" r="0.5"/>
</g>
</svg>
