<?xml version="1.0" encoding="utf-8"?>
<!-- Generator: Adobe Illustrator 19.0.0, SVG Export Plug-In . SVG Version: 6.00 Build 0)  -->
<svg version="1.1" id="Layer_1" xmlns="http://www.w3.org/2000/svg" xmlns:xlink="http://www.w3.org/1999/xlink" x="0px" y="0px"
	 viewBox="-241 333 128 128" style="enable-background:new -241 333 128 128;" xml:space="preserve">
<style type="text/css">
	.st0{fill:#876825;}
	.st1{fill:#8AB600;}
	.st2{fill:#C3DC7D;}
	.st3{fill:#E6FC9A;}
	.st4{fill:#325927;}
</style>
<g>
	<circle class="st0" cx="-177" cy="397" r="62.9"/>
	<circle class="st1" cx="-177" cy="397" r="60.1"/>
	<polygon class="st2" points="-211.7,368 -192.8,380.9 -205.2,361.8 -189.2,378.1 -197.4,356.8 -185,376 -188.9,353.5 -180.6,374.7 
		-179.8,351.9 -176.2,374.4 -170.8,352.2 -171.5,375.2 -161.7,354.5 -167.1,376.5 -153.4,358.4 -163.3,379.1 -146.2,363.8 
		-159.9,382.2 -140.2,370.8 -157.3,385.8 -135.6,378.6 -155.5,390 -132.7,387.4 -154.5,394.4 -131.7,396.4 -154.5,399 -132.5,405.5 
		-155.2,403.4 -135.3,414.3 -157,407.8 -139.4,422.3 -159.6,411.5 -145.4,429.3 -162.7,414.8 -152.6,435 -166.6,417.2 -160.7,439.2 
		-171,419 -169.5,441.7 -175.4,419.5 -178.5,442.3 -180.1,419.5 -187.6,441 -184.5,418.4 -196.4,437.9 -188.6,416.4 -204.2,433.2 
		-192.3,413.5 -210.9,427 -195.4,410.2 -216.1,419.5 -197.7,406.3 -220,411.2 -199,401.9 -221.8,402.1 -199.5,397.2 -222,393.1 
		-199.2,392.8 -220.2,384 -197.7,388.4 -216.9,375.7 -195.6,384.3 	"/>
	<circle class="st3" cx="-177" cy="397" r="24.3"/>
	<ellipse class="st4" cx="-208.6" cy="397.2" rx="4.4" ry="1.6"/>
	
		<ellipse transform="matrix(-0.2612 0.9653 -0.9653 -0.2612 113.7059 690.8275)" class="st4" cx="-207.5" cy="388.9" rx="1.6" ry="4.4"/>
	
		<ellipse transform="matrix(-0.5039 0.8637 -0.8637 -0.5039 22.0459 750.0107)" class="st4" cx="-204.4" cy="381.3" rx="1.6" ry="4.4"/>
	
		<ellipse transform="matrix(-0.5039 0.8637 -0.8637 -0.5039 22.0459 750.0107)" class="st4" cx="-204.4" cy="381.3" rx="1.6" ry="4.4"/>
	
		<ellipse transform="matrix(-0.7119 0.7023 -0.7023 -0.7119 -77.902 781.4391)" class="st4" cx="-199.2" cy="374.7" rx="1.6" ry="4.4"/>
	
		<ellipse transform="matrix(-0.8705 0.4921 -0.4921 -0.8705 -178.9245 785.9659)" class="st4" cx="-192.9" cy="369.4" rx="1.6" ry="4.4"/>
	
		<ellipse transform="matrix(-0.9688 0.2479 -0.2479 -0.9688 -273.5093 767.3258)" class="st4" cx="-185.1" cy="366.4" rx="1.6" ry="4.4"/>
	
		<ellipse transform="matrix(-0.9999 -1.336277e-02 1.336277e-02 -0.9999 -358.3614 728.8024)" class="st4" cx="-176.7" cy="365.6" rx="1.6" ry="4.4"/>
	
		<ellipse transform="matrix(-0.9618 -0.2737 0.2737 -0.9618 -431.3498 673.0796)" class="st4" cx="-168.7" cy="366.6" rx="1.6" ry="4.4"/>
	
		<ellipse transform="matrix(-0.8571 -0.5152 0.5152 -0.8571 -489.3521 603.6713)" class="st4" cx="-160.9" cy="369.7" rx="1.6" ry="4.4"/>
	<ellipse transform="matrix(-0.693 -0.721 0.721 -0.693 -531.5814 523.6036)" class="st4" cx="-154.3" cy="375" rx="1.6" ry="4.4"/>
	
		<ellipse transform="matrix(-0.4807 -0.8769 0.8769 -0.4807 -556.1506 433.8711)" class="st4" cx="-149.6" cy="381.6" rx="1.6" ry="4.4"/>
	
		<ellipse transform="matrix(-0.2353 -0.9719 0.9719 -0.2353 -558.8411 338.8848)" class="st4" cx="-146.1" cy="389.3" rx="1.6" ry="4.4"/>
	<path class="st4" d="M-149.8,397.5c0-0.8,2.1-1.6,4.4-1.3c2.3,0,4.4,0.8,4.4,1.6c0,0.8-2.1,1.6-4.4,1.3
		C-147.7,399-149.8,398.3-149.8,397.5z"/>
	
		<ellipse transform="matrix(0.2862 -0.9582 0.9582 0.2862 -493.7498 149.2349)" class="st4" cx="-146.7" cy="406" rx="1.6" ry="4.4"/>
	
		<ellipse transform="matrix(0.5266 -0.8501 0.8501 0.5266 -422.5027 68.3123)" class="st4" cx="-149.9" cy="413.5" rx="1.6" ry="4.4"/>
	
		<ellipse transform="matrix(0.7303 -0.6831 0.6831 0.7303 -328.5858 7.2656)" class="st4" cx="-155.1" cy="419.8" rx="1.6" ry="4.4"/>
	
		<ellipse transform="matrix(0.8832 -0.469 0.469 0.8832 -218.1699 -26.2995)" class="st4" cx="-161.9" cy="424.9" rx="1.6" ry="4.4"/>
	
		<ellipse transform="matrix(0.975 -0.2223 0.2223 0.975 -99.3652 -26.9914)" class="st4" cx="-169.6" cy="427.9" rx="1.6" ry="4.4"/>
	<path class="st4" d="M-177.8,424.4c0.8,0,1.3,2.1,1.3,4.4s-0.8,4.4-1.6,4.4s-1.3-2.1-1.3-4.4C-179.3,426.2-178.5,424.1-177.8,424.4
		z"/>
	<path class="st4" d="M-184.8,423.1c0.8,0.3,0.8,2.3,0,4.7s-1.8,3.9-2.6,3.6s-0.8-2.3,0-4.7C-186.8,424.4-185.5,422.8-184.8,423.1z"
		/>
	
		<ellipse transform="matrix(0.8431 0.5377 -0.5377 0.8431 197.5727 170.6423)" class="st4" cx="-193.7" cy="423.9" rx="1.6" ry="4.4"/>
	<path class="st4" d="M-196.9,415.6c0.5,0.5-0.5,2.3-2.3,4.1c-1.8,1.6-3.6,2.3-4.1,1.8s0.5-2.3,2.1-3.9
		C-199.2,415.9-197.4,415.1-196.9,415.6z"/>
	<path class="st4" d="M-201.1,409.6c0.3,0.8-1,2.3-3.1,3.4c-2.1,1-4.1,1.3-4.7,0.8c-0.3-0.8,1-2.3,3.1-3.4
		C-203.4,409.4-201.3,408.9-201.1,409.6z"/>
	<path class="st4" d="M-203.6,402.9c0.3,0.8-1.6,1.8-3.9,2.3c-2.3,0.5-4.4,0.3-4.7-0.5s1.6-1.8,3.9-2.3
		C-205.7,401.9-203.6,402.1-203.6,402.9z"/>
</g>
</svg>
