<?xml version="1.0" encoding="utf-8"?>
<!-- Generator: Adobe Illustrator 19.0.0, SVG Export Plug-In . SVG Version: 6.00 Build 0)  -->
<svg version="1.1" id="Layer_1" xmlns="http://www.w3.org/2000/svg" xmlns:xlink="http://www.w3.org/1999/xlink" x="0px" y="0px"
	 viewBox="-241 333 128 128" style="enable-background:new -241 333 128 128;" xml:space="preserve">
<style type="text/css">
	.st0{fill:#97ADB7;}
	.st1{fill:#FFFFFF;}
</style>
<g id="XMLID_2_">
	<circle id="XMLID_74_" class="st0" cx="-177" cy="396.5" r="63.5"/>
	<g id="XMLID_3_">
		<g id="XMLID_66_">
			<path id="XMLID_73_" class="st1" d="M-174.1,411.9c1.2,12.9,22.1,21.5,32.2,20.6c6-0.6,6.6-11.2,4.5-24
				c-4.3-26-17.8-42.3-27.9-41.4C-175.5,368.1-175.3,399-174.1,411.9z"/>
			<g id="XMLID_70_">
				<path class="st0" d="M-172.3,383.1c0,0,0.3,0,0.7-0.1c0.2,0,0.5-0.1,0.8-0.2c0.3-0.1,0.6-0.2,0.9-0.4c0.3-0.1,0.6-0.4,1-0.6
					c0.3-0.2,0.6-0.5,0.9-0.8c0.3-0.3,0.5-0.7,0.7-1c0.2-0.4,0.4-0.8,0.5-1.2c0.1-0.2,0.1-0.4,0.2-0.6l0.1-0.4l0-0.3
					c0-0.4,0-0.8,0-1.3c-0.1-0.8-0.4-1.6-0.8-2.2c-0.4-0.6-0.8-1.1-1.1-1.4c-0.3-0.3-0.5-0.5-0.5-0.5s0.1,0,0.2,0
					c0.1,0,0.3,0,0.5,0.1c0.5,0.1,1.1,0.4,1.8,1c0.7,0.6,1.3,1.4,1.6,2.5c0.2,0.5,0.3,1.1,0.3,1.7l0,0.5l0,0.4
					c-0.1,0.3-0.1,0.6-0.2,0.9c-0.4,1.2-1.1,2.2-2,2.9c-0.4,0.4-0.9,0.6-1.4,0.8c-0.5,0.2-0.9,0.3-1.4,0.4c-0.4,0.1-0.8,0.1-1.2,0
					c-0.3,0-0.6-0.1-0.9-0.2c-0.2-0.1-0.4-0.2-0.5-0.2C-172.2,383.2-172.3,383.1-172.3,383.1z"/>
			</g>
			<g id="XMLID_67_">
				<path class="st0" d="M-174.2,403.7c0,0,0.1,0.1,0.2,0.4c0,0.1,0.2,0.3,0.3,0.4c0.1,0.1,0.3,0.3,0.5,0.4c0.4,0.3,1,0.5,1.6,0.8
					c0.7,0.2,1.4,0.4,2.3,0.5c0.9,0.1,1.8,0.2,2.8,0.2c1,0,2,0,3.1,0c1.1,0,2.2-0.1,3.3-0.2c1.1-0.1,2.3-0.2,3.4-0.4
					c1.1-0.1,2.3-0.4,3.4-0.6c1.1-0.2,2.2-0.4,3.3-0.7c1-0.3,2.1-0.5,3-0.8c0.9-0.3,1.8-0.6,2.6-0.9c0.8-0.3,1.5-0.7,2.1-1
					c0.6-0.3,1.1-0.7,1.5-1c0.4-0.3,0.7-0.6,0.9-0.8c0.2-0.2,0.3-0.3,0.3-0.3s-0.1,0.1-0.2,0.4c-0.1,0.1-0.1,0.3-0.3,0.5
					c-0.1,0.2-0.2,0.4-0.4,0.6c-0.3,0.4-0.8,0.9-1.4,1.3c-0.6,0.5-1.3,0.9-2.1,1.4c-1.6,0.9-3.5,1.7-5.7,2.4
					c-1.1,0.3-2.2,0.7-3.3,0.9c-1.2,0.3-2.3,0.5-3.5,0.7c-1.2,0.2-2.4,0.3-3.6,0.4c-1.2,0.1-2.3,0.1-3.5,0.1c-1.1,0-2.2-0.1-3.2-0.3
					c-1-0.1-2-0.3-2.9-0.6c-0.4-0.1-0.9-0.3-1.2-0.4c-0.4-0.2-0.8-0.3-1.1-0.5c-0.7-0.4-1.2-0.7-1.6-1.2c-0.1-0.1-0.2-0.2-0.3-0.3
					c-0.1-0.1-0.1-0.2-0.2-0.3c-0.1-0.2-0.2-0.3-0.2-0.5C-174.2,403.9-174.2,403.7-174.2,403.7z"/>
			</g>
		</g>
		<path id="XMLID_65_" class="st1" d="M-180.2,349.6h5.6c0,0-0.3,16,0,21.6c0,0,0,0,0,0c0.2,1.6,1.8,2.9,3.6,2.9
			c0.5,0,0.9-0.1,1.3-0.2v5.7c-0.4,0.1-0.9,0.1-1.3,0.1c-4.8,0-9-3.7-9.2-8.5C-180.4,365.9-180.2,349.6-180.2,349.6z"/>
		<g id="XMLID_62_">
			<path class="st0" d="M-173.3,379.5c0,0,0.2-0.3,0.4-0.8c0.2-0.4,0.6-1,0.8-1.5c0.3-0.6,0.6-1.1,0.8-1.6c0.2-0.4,0.4-0.8,0.4-0.8
				s0.1,0.4,0.1,0.9c0,0.5-0.2,1.2-0.5,1.8c-0.3,0.6-0.8,1.2-1.2,1.5C-172.9,379.3-173.3,379.5-173.3,379.5z"/>
		</g>
		<g id="XMLID_54_">
			<path id="XMLID_61_" class="st1" d="M-181.2,411.9c-1.2,12.9-22.1,21.5-32.2,20.6c-6-0.6-6.6-11.2-4.5-24
				c4.3-26,17.8-42.3,27.9-41.4C-179.8,368.1-180,399-181.2,411.9z"/>
			<g id="XMLID_58_">
				<path class="st0" d="M-183,383.1c0,0-0.1,0-0.2,0.1c-0.1,0-0.3,0.1-0.5,0.2c-0.2,0.1-0.5,0.1-0.9,0.2c-0.3,0-0.7,0.1-1.2,0
					c-0.4,0-0.9-0.2-1.4-0.4c-0.5-0.2-1-0.5-1.4-0.8c-0.9-0.7-1.6-1.7-2-2.9c-0.1-0.3-0.2-0.6-0.2-0.9l0-0.4l0-0.5
					c0-0.6,0.1-1.2,0.3-1.7c0.3-1.1,1-2,1.6-2.5c0.6-0.6,1.3-0.9,1.8-1c0.2-0.1,0.4-0.1,0.5-0.1c0.1,0,0.2,0,0.2,0s-0.2,0.2-0.5,0.5
					c-0.3,0.3-0.7,0.8-1.1,1.4c-0.4,0.6-0.7,1.4-0.8,2.2c-0.1,0.4-0.1,0.8,0,1.3l0,0.3l0.1,0.4c0,0.2,0.1,0.4,0.1,0.6
					c0.1,0.4,0.3,0.8,0.5,1.2c0.2,0.4,0.4,0.7,0.7,1c0.3,0.3,0.6,0.6,0.9,0.8c0.3,0.2,0.6,0.4,1,0.6c0.3,0.2,0.6,0.3,0.9,0.4
					c0.3,0.1,0.5,0.1,0.8,0.2C-183.3,383.1-183,383.1-183,383.1z"/>
			</g>
			<g id="XMLID_55_">
				<path class="st0" d="M-181.1,403.7c0,0,0,0.1-0.1,0.4c0,0.1-0.1,0.3-0.2,0.5c-0.1,0.1-0.1,0.2-0.2,0.3c-0.1,0.1-0.2,0.2-0.3,0.3
					c-0.4,0.4-0.9,0.8-1.6,1.2c-0.3,0.2-0.7,0.3-1.1,0.5c-0.4,0.1-0.8,0.3-1.2,0.4c-0.9,0.2-1.8,0.5-2.9,0.6c-1,0.1-2.1,0.3-3.2,0.3
					c-1.1,0-2.3,0-3.5-0.1c-1.2-0.1-2.4-0.2-3.6-0.4c-1.2-0.2-2.3-0.4-3.5-0.7c-1.2-0.2-2.3-0.6-3.3-0.9c-2.1-0.7-4.1-1.5-5.7-2.4
					c-0.8-0.5-1.5-0.9-2.1-1.4c-0.6-0.5-1-0.9-1.4-1.3c-0.2-0.2-0.3-0.4-0.4-0.6c-0.1-0.2-0.2-0.3-0.3-0.5c-0.1-0.3-0.2-0.4-0.2-0.4
					s0.1,0.1,0.3,0.3c0.2,0.2,0.5,0.5,0.9,0.8c0.4,0.3,0.9,0.6,1.5,1c0.6,0.3,1.3,0.7,2.1,1c0.8,0.3,1.7,0.6,2.6,0.9
					c0.9,0.3,2,0.6,3,0.8c1,0.3,2.2,0.5,3.3,0.7c1.1,0.2,2.3,0.4,3.4,0.6c1.1,0.2,2.3,0.3,3.4,0.4c1.1,0.1,2.2,0.2,3.3,0.2
					c1.1,0,2.1,0,3.1,0c1,0,1.9-0.1,2.8-0.2c0.8-0.1,1.6-0.3,2.3-0.5c0.6-0.2,1.2-0.5,1.6-0.8c0.2-0.1,0.4-0.3,0.5-0.4
					c0.1-0.1,0.3-0.3,0.3-0.4C-181.1,403.8-181.1,403.7-181.1,403.7z"/>
			</g>
		</g>
		<g id="XMLID_4_">
			<path id="XMLID_53_" class="st1" d="M-174.6,349.6h-5.6c0,0,0.3,16,0,21.6c0,0,0,0,0,0c-0.2,1.6-1.8,2.9-3.6,2.9
				c-0.5,0-0.9-0.1-1.3-0.2v5.7c0.4,0.1,0.9,0.1,1.3,0.1c4.8,0,9-3.7,9.2-8.5C-174.4,365.9-174.6,349.6-174.6,349.6z"/>
			<g id="XMLID_50_">
				<path class="st0" d="M-174.7,352.9c0,0-0.3,0.3-0.7,0.5c-0.5,0.2-1.2,0.4-1.9,0.4c-0.7,0-1.4-0.2-1.9-0.4
					c-0.5-0.2-0.7-0.5-0.7-0.5s0.4,0,0.9,0c0.5,0,1.1,0,1.8,0c0.6,0,1.3,0,1.8,0C-175.1,352.9-174.7,352.9-174.7,352.9z"/>
			</g>
			<g id="XMLID_47_">
				<path class="st0" d="M-174.7,357.6c0,0-0.3,0.3-0.7,0.5c-0.5,0.2-1.2,0.4-1.9,0.4c-0.7,0-1.4-0.2-1.9-0.4
					c-0.5-0.2-0.7-0.5-0.7-0.5s0.4,0,0.9,0c0.5,0,1.1,0,1.8,0c0.6,0,1.3,0,1.8,0C-175.1,357.6-174.7,357.6-174.7,357.6z"/>
			</g>
			<g id="XMLID_44_">
				<path class="st0" d="M-174.7,361.5c0,0-0.3,0.3-0.7,0.5c-0.5,0.2-1.2,0.4-1.9,0.4c-0.7,0-1.4-0.2-1.9-0.4
					c-0.5-0.2-0.7-0.5-0.7-0.5s0.4,0,0.9,0c0.5,0,1.1,0,1.8,0c0.6,0,1.3,0,1.8,0C-175.1,361.5-174.7,361.5-174.7,361.5z"/>
			</g>
			<g id="XMLID_41_">
				<path class="st0" d="M-174.7,366.2c0,0-0.3,0.3-0.7,0.5c-0.5,0.2-1.2,0.4-1.9,0.4c-0.7,0-1.4-0.2-1.9-0.4
					c-0.5-0.2-0.7-0.5-0.7-0.5s0.4,0,0.9,0c0.5,0,1.1,0,1.8,0c0.6,0,1.3,0,1.8,0C-175.1,366.2-174.7,366.2-174.7,366.2z"/>
			</g>
			<g id="XMLID_38_">
				<path class="st0" d="M-174.7,369.7c0,0-0.3,0.3-0.7,0.5c-0.5,0.2-1.2,0.4-1.9,0.4c-0.7,0-1.4-0.2-1.9-0.4
					c-0.5-0.2-0.7-0.5-0.7-0.5s0.4,0,0.9,0c0.5,0,1.1,0,1.8,0c0.6,0,1.3,0,1.8,0C-175.1,369.7-174.7,369.7-174.7,369.7z"/>
			</g>
			<g id="XMLID_35_">
				<path class="st0" d="M-173.6,373.9c0,0,0,0.1-0.1,0.4c-0.1,0.3-0.3,0.6-0.7,0.9c-0.4,0.3-0.9,0.4-1.4,0.5
					c-0.5,0.1-1.1,0.1-1.7,0.1c-0.5,0-1.2-0.1-1.7-0.2c-0.5-0.1-1-0.4-1.4-0.7c-0.3-0.3-0.4-0.7-0.5-1c0-0.2-0.1-0.4-0.1-0.4
					s0.1,0.1,0.2,0.3c0.1,0.2,0.3,0.5,0.6,0.7c0.3,0.2,0.7,0.3,1.2,0.4c0.5,0.1,1,0.1,1.6,0.1c0.5,0,1.1,0,1.6-0.1
					c0.5,0,0.9-0.1,1.3-0.2c0.4-0.1,0.6-0.3,0.8-0.5C-173.7,374-173.6,373.9-173.6,373.9z"/>
			</g>
			<g id="XMLID_30_">
				<path class="st0" d="M-181.5,379.5c0,0-0.3-0.1-0.8-0.4c-0.4-0.3-0.9-0.9-1.2-1.5c-0.3-0.6-0.5-1.3-0.5-1.8
					c0-0.5,0.1-0.9,0.1-0.9s0.2,0.3,0.4,0.8c0.2,0.4,0.5,1,0.8,1.6c0.3,0.6,0.6,1.1,0.8,1.5C-181.7,379.1-181.5,379.5-181.5,379.5z"
					/>
			</g>
			<ellipse id="XMLID_5_" class="st1" cx="-177.4" cy="349.6" rx="2.8" ry="0.4"/>
		</g>
	</g>
</g>
</svg>
