<?xml version="1.0" encoding="utf-8"?>
<!-- Generator: Adobe Illustrator 19.0.0, SVG Export Plug-In . SVG Version: 6.00 Build 0)  -->
<svg version="1.1" id="Layer_1" xmlns="http://www.w3.org/2000/svg" xmlns:xlink="http://www.w3.org/1999/xlink" x="0px" y="0px"
	 viewBox="-241 333 128 128" style="enable-background:new -241 333 128 128;" xml:space="preserve">
<style type="text/css">
	.st0{fill:#3D8B8E;}
	.st1{clip-path:url(#SVGID_2_);}
	.st2{fill:#FFD3AB;}
	.st3{fill:#E4BC99;}
	.st4{fill:#CC7E61;}
	.st5{fill:#CCAE88;}
	.st6{fill:#EAA420;}
</style>
<g>
	<circle class="st0" cx="-177" cy="397" r="64"/>
	<g>
		<defs>
			<circle id="SVGID_1_" cx="-177" cy="397" r="64"/>
		</defs>
		<clipPath id="SVGID_2_">
			<use xlink:href="#SVGID_1_"  style="overflow:visible;"/>
		</clipPath>
		<g class="st1">
			<g>
				<path class="st2" d="M-128.4,440.2c-0.6-17.5-5.9-18.7-15.4-20.3c-9.5-1.7-21.9,2.6-23.7-3.1c-1.8-5.6,0-13,0-13h-18.9
					c0,0,1.8,7.4,0,13c-1.8,5.6-14.2,1.4-23.7,3.1c-9.5,1.7-14.8,2.9-15.4,20.3c-0.6,17.5,1.8,22.2,1.8,22.2h93.6
					C-130.2,462.4-127.8,457.7-128.4,440.2z"/>
				<path class="st3" d="M-177.1,419.4c2-3.6,5.5-6.6,8.8-9c0.1-3.7,0.8-6.7,0.8-6.7h-18.9c0,0,1.8,7.4,0,13
					c-1.2,3.9-7.6,3.1-14.6,2.7C-186.6,423.9-180.9,426.4-177.1,419.4z"/>
			</g>
			<g>
				<g>
					<path class="st3" d="M-194.4,376.9c0,0-7.1-6.2-10.3,0c-3.1,6.2,8.9,17.3,12.6,15.4C-188.4,390.4-194.4,376.9-194.4,376.9z"/>
					<path class="st3" d="M-159.6,376.9c0,0,7.1-6.2,10.3,0c3.1,6.2-8.9,17.3-12.6,15.4C-165.6,390.4-159.6,376.9-159.6,376.9z"/>
				</g>
				<path class="st2" d="M-156.2,364.2c-0.6-16.7-17.6-16.8-20.8-16.8c-3.2,0-20.2,0-20.8,16.8c-0.6,16.7,0.3,28.9,4,34.3
					c3.7,5.3,12.5,8.2,16.8,8.2c4.3,0,13.1-2.8,16.8-8.2C-156.5,393.1-155.6,381-156.2,364.2z"/>
			</g>
			<path class="st3" d="M-172.2,383.7c0,0-0.7,3.8-4.8,3.8c-4.1,0-4.8-3.8-4.8-3.8c-0.2-0.7-0.7-0.5-0.4,2.1
				c0.2,2.1,3.7,3.1,5.2,3.1c1.5,0,5-1,5.2-3.1C-171.5,383.2-172,383-172.2,383.7z"/>
			<path class="st3" d="M-172.3,395.9c0,0-0.6,0.9-4.7,0.9c-4.1,0-4.7-0.9-4.7-0.9c-0.5,0.5-0.4,1.2,0.7,1.4c0.9,0.2,2.2,0.3,4,0.3
				c1.8,0,3.1-0.1,4-0.3C-171.9,397.1-171.8,396.4-172.3,395.9z"/>
			<path class="st3" d="M-171.1,394.4c0,0-1.6-0.6-3.4-0.4c-1.1,0.1-2.1,0.3-2.6,0.3c-0.5,0-1.5-0.2-2.6-0.3
				c-1.8-0.2-3.4,0.4-3.4,0.4c-0.4,0.2-0.2,0.4,0.2,0.3c0.4-0.1,1.9-0.4,2.4-0.5c0.3-0.1,2.5,0.3,3.4,0.3c0.9,0,3-0.4,3.4-0.3
				c0.4,0.1,1.9,0.5,2.4,0.5C-170.8,394.7-170.6,394.5-171.1,394.4z"/>
			<g>
				<path class="st4" d="M-128.4,440.2c-0.6-17.5-5.9-18.7-15.4-20.3c-5.4-0.9-11.7,0-16.5,0c-6,9.3-16.7,15.7-16.7,15.7
					s-10.7-6.4-16.7-15.7c-4.8,0-11.1-0.9-16.5,0c-9.5,1.7-14.8,2.9-15.4,20.3c-0.6,17.5,1.8,22.2,1.8,22.2h93.6
					C-130.2,462.4-127.8,457.7-128.4,440.2z"/>
				<path class="st5" d="M-177,441.4c5.3-3.2,14.8-13.5,21.1-21.7c-1.5,0.1-3,0.2-4.4,0.1c-6,9.3-16.7,15.7-16.7,15.7
					s-10.7-6.4-16.7-15.7c-1.4,0-2.8-0.1-4.4-0.1C-191.8,427.8-182.3,438.2-177,441.4z"/>
			</g>
			<path class="st6" d="M-154.4,363.1c0-2.7-1.2-8-4.8-11.8c-2.2-2.3-5-3.2-6.8-3.6c-0.5-0.9-1.2-1.7-2.1-2.2
				c-2.3-1.3-7.9-1.1-12.9-0.6c-2.1-0.1-4.4-0.3-5.9-1c-3-1.2-4.1-3.3-4.1-3.3c-0.8,1.9,0,3.7,1.8,5.1c-2.8-0.1-3.7-1.3-3.7-1.3
				s0.4,1.3,1.7,2.4c-3.3,1.6-5.6,4.8-6.5,7.1c-1.1,2.9-0.9,5.3-2.7,11.1c-1.8,5.8,1.6,11.1,2.2,10.9c0.6-0.2,1.8-3.3,1.6-7.3
				c-0.2-4,4.7-8,4.7-8c-1.6,3.6,0,6.9,0,6.9c1.1-6,6.9-9.8,6.9-9.8c-2.4,2.9-3.1,7.8-3.1,7.8c2.9-4.2,8.4-9.3,8.4-9.3
				c-0.4,2.4-2.2,4.4-2.2,4.4c4.9-0.7,7.1-4.2,7.1-4.2c-0.4,2-2.4,3.8-2.4,3.8c2.3-0.8,5.9-2.7,8-3.9c0.3,2.1-0.1,4.8-0.1,4.8
				s2.3-2.1,4-4.2c0,0.4,0,0.8-0.1,1.3c-0.7,3.8,0.7,8.4,0.7,8.4l1.6-4.9c1.1,1.3,3.6,3.3,4.7,7.3c1.1,4,1.8,8.3,2.7,7.2
				c0.9-1.1,1.7-5.1,1.7-7.5C-154.1,366.3-154.4,365.8-154.4,363.1z"/>
		</g>
	</g>
</g>
</svg>
