<?xml version="1.0" encoding="utf-8"?>
<!-- Generator: Adobe Illustrator 19.0.0, SVG Export Plug-In . SVG Version: 6.00 Build 0)  -->
<svg version="1.1" id="Layer_1" xmlns="http://www.w3.org/2000/svg" xmlns:xlink="http://www.w3.org/1999/xlink" x="0px" y="0px"
	 viewBox="0 0 612 792" style="enable-background:new 0 0 612 792;" xml:space="preserve">
<style type="text/css">
	.st0{fill:#E1DDBE;}
</style>
<polygon id="XMLID_31_" class="st0" points="231.2,233.4 226.2,233.4 226.6,238.4 "/>
<polygon id="XMLID_30_" class="st0" points="224.6,176 219.3,178.5 220.5,190.5 209.1,182.7 209.7,192 206.1,189.5 202,193.5 
	211.7,200.6 212.1,196.7 216,199.6 214.6,202.9 221.7,215.7 234.1,214.4 234.9,224.7 239.2,224.1 242.2,214.8 249.5,210.6 
	245.7,207.7 239.6,209 228.8,203.3 230,185.3 "/>
<polygon id="XMLID_29_" class="st0" points="230.6,326.4 226.2,309.1 210.9,315.4 211.1,329 220.9,322.8 219.7,333.1 "/>
<polygon id="XMLID_28_" class="st0" points="239.8,310.9 247.9,292.9 229.6,309.9 233.3,319.6 "/>
<polygon id="XMLID_27_" class="st0" points="352.3,91.2 348.9,85.8 344.2,86.9 350.1,96.1 "/>
<polygon id="XMLID_26_" class="st0" points="224.7,293.4 221.5,303.6 226.2,298.8 "/>
<polygon id="XMLID_25_" class="st0" points="204.8,259.5 211.7,256.4 214,248.3 "/>
<polygon id="XMLID_23_" class="st0" points="244.3,265.3 237.5,264.3 229,254.6 219.3,261.5 233.1,268.2 225.4,272.4 227.4,275.7 
	218.2,282.3 238,277.9 238.8,281 248.1,273.9 "/>
<polygon id="XMLID_19_" class="st0" points="360.8,64.3 355.8,65.1 360,69.7 "/>
<polygon id="XMLID_17_" class="st0" points="350.7,76.3 351.3,83.9 361.3,82.7 366.7,86.1 367,78.1 355.4,79.2 359.2,74.6 
	352.9,68.5 345,69.1 345,78.8 348.5,82.7 "/>
<polygon id="XMLID_16_" class="st0" points="276.1,316.7 271.7,312.2 270.9,319.4 276.8,324.4 "/>
<polygon id="XMLID_15_" class="st0" points="596.7,553 594.2,539.8 576.3,525.8 551.5,524.6 536,525.1 534.8,536.7 530.7,543.3 
	522.5,534.3 512.7,531.8 528.2,516.4 528.2,506.9 516,487.1 511.1,486.3 500.4,480 495.9,472.4 490.4,473.5 486.6,474.7 
	480.1,472.5 476.2,472.5 483.5,470.6 488.2,471.9 496.1,470.2 501,472.4 505.3,476.7 510.8,475.7 516.1,476.9 501.6,459 
	494.9,450.4 499.2,443.5 503,442.1 495.9,438.2 492.9,432.8 489.8,432.4 481.4,416.9 468.8,410.3 450.8,406.3 450,399.3 
	445.9,396.8 440.2,377.4 433.7,366.6 429.2,341.8 423.9,333.6 419.1,333.6 404,311.3 395,309.3 388.1,303.5 376.7,299 372.2,303.1 
	363.2,309 350.6,304.9 344.6,305.7 334.4,302.5 331.4,296.9 337.5,300 349.7,301 359.8,297.6 362.9,289.6 373.2,289.9 382.6,282.9 
	373,278.4 372.4,272.8 368.6,269.7 355.4,276.8 353.1,274.1 363.3,266.7 375.5,267.5 382.6,261.2 383.8,255.6 388.7,252.5 
	395.8,238.7 400.3,232.3 399.6,227.8 404.7,218.4 402.9,215.2 407.4,202.3 415.9,195.1 415.9,186.8 403.3,175.3 400.7,177.4 
	379.1,178.1 365.9,175.7 362.1,178.4 355.6,178.4 347.4,175.5 341.8,175.8 340.9,178.7 332.8,181.2 324.1,186 320.6,185.8 
	314.7,190.5 312.9,188.7 320.8,179.6 329.2,166.1 323.1,169.5 315.5,166.6 320,163.7 321.6,157.5 342.6,141.7 348.7,131.4 
	355.8,128.9 359.2,119.6 355.6,115.5 359.6,108.9 359.2,104.7 348.7,104.8 344.4,109.3 337.7,107.3 327.5,111.9 318.2,110.9 
	310.3,114.2 305.8,114.2 301.1,118.6 302.1,113.8 297.9,112 289.1,119.7 291.8,112.9 279.8,107.3 277.8,114.8 273.7,117.9 
	274.9,124.7 272.5,124.9 272.9,133.4 264.2,135.2 268.4,142.4 264.8,149.7 260.5,149.9 270.9,159.1 274.5,165.7 264,160.4 
	260.1,163.7 252.4,158.6 252,162.3 254,167.3 251.6,171 247.5,163 243.8,171.4 247.9,176 244.7,180.3 251,187.5 257,187.7 
	249.9,190.4 242.6,186.3 244.3,198.1 244,202 257.4,199.8 248.7,204.2 247.8,206.6 250.6,208.4 259.1,205.3 257,207.4 260.5,211.7 
	254.2,209.2 251.7,210.9 249.9,216.6 253.3,219.1 248.3,219.9 245,224.8 250.9,226.8 252.2,231.4 242.6,227.7 240.8,234.1 
	244.6,236.7 242.4,240.9 237.9,244.2 228.5,244.5 224.4,248.7 228,250.9 235.9,250.4 241.3,252 240.1,254.4 233.9,254.4 
	242.2,262.2 244.9,261.2 249.1,265.7 270.9,243.7 267.4,250.3 270.7,252.4 264.2,254.7 258.9,267.3 259.5,270.4 252.8,283.2 
	255.6,284.9 249.9,300.1 251.4,310 247.3,315.8 250.3,320.8 254.2,318.9 247.3,329.9 246.1,345.1 241,350.1 241.4,353.8 
	252.8,353.8 251.2,345.9 256,334.6 255.6,327.5 261.5,320.3 257,301.4 261.3,301.3 274.7,285.2 264.6,300.5 263.3,311.6 
	267.2,314.5 268,307.9 274.7,302.3 277.8,312.6 283.3,300.2 282,291.5 286.5,289.3 284.7,300.4 296.1,309 286.3,306.4 282.8,320.6 
	285.1,331.2 291,332.6 294.4,341.8 285.7,350.7 276.9,373.9 278.9,384.2 271.1,379.3 271.6,390.5 282.2,405.3 278.9,391.7 
	286.2,389.6 305,403.1 305.4,392.4 297.6,386.2 302.5,385 317.6,394.4 328.2,392.7 328.2,388.2 338,388.5 340.8,379.4 367.3,380.6 
	349.8,385.2 339.2,415.4 352.2,439 358.8,435.2 358.8,447.6 367.3,437.3 377.9,438.9 374.2,451.7 377.5,453.8 367,462 370.2,476.5 
	364.5,487.4 371,495.8 378.7,502.6 385,503.2 380.8,506.3 373.6,506.8 367.6,498.1 361.7,500.4 366.5,508.9 371.8,512.1 
	363.5,510.3 356.8,503.5 339.7,509 332,507.8 314.3,516.5 305.2,529.3 292.4,537.4 286.9,545.3 295,543.8 299.1,545.2 300.3,540.5 
	318.4,535.7 316.8,545.2 323.1,551.8 316.4,556.7 320.2,563.9 324.5,564.9 312.7,587.5 304.2,590.4 295.6,596.8 291.4,597.1 
	280.4,603.9 272.5,603.9 259.7,612.2 269.8,613.6 270.4,621.1 263.1,624.6 276.1,626.8 272.9,629.9 278,632.8 285.3,630.7 
	293.8,625.5 307.6,620.9 308.9,627.3 319.8,630 310.9,632.4 309.9,637.6 324.9,638 324.9,635.1 332.4,633 340.1,641.8 347,650 
	364.3,649.8 368.4,642.9 376.5,639.4 387.7,635.2 391.9,629 401.3,624.7 388.5,639.6 375.7,651.8 375.1,666.3 366.3,665.9 
	359.4,668.3 351.5,664.1 329.2,661.7 313.3,665.9 313.5,673.9 306.8,680.3 298.1,680.4 296.6,698.7 287.3,707.2 284.9,712 
	274.5,713.9 271.9,724.4 267.4,724.5 265,730 252.4,739.2 246.7,737.1 238,743.3 238,751.4 247.5,751.9 247.9,744.7 259.5,747.8 
	264.2,756.3 269.9,750.9 267.5,746.7 272.8,739.7 275.3,743 281.8,736.8 286.1,736.7 289.3,728.9 299.3,731.5 307,728 313.3,729 
	317.8,726.5 322.2,732.5 327.5,732 334.9,738.2 343.4,737.7 341.8,732.2 348.5,729.1 350.3,723.9 348.5,714.6 354.4,708.8 
	359.2,708.2 361.3,704.4 380.3,700.1 390.3,700.8 401.9,708.8 406.2,707.2 418.7,707.7 425.5,710.2 428.7,702.1 440.3,696.3 
	448.2,698.5 459.4,691.1 467.3,692.9 471.4,692.2 476.8,688.1 478.5,692.2 485.2,696.1 492.9,690.9 510.4,690.6 521.3,688.3 
	531.9,691.8 537.2,692.8 545.1,686.4 553.8,684.7 561.5,677.4 566.8,677 572.3,678.2 571.1,672.2 583.5,663.7 591.2,662.1 
	591.8,654.2 589.6,648.7 592,642.2 578,642.7 568,646.5 562.3,647.5 553,644.1 549.5,643.2 552.8,640.2 555.6,639.8 556.5,638 
	548,635.8 540.8,638.6 551,631.4 557.7,632.1 566,628.1 563.6,621.1 555.5,621.1 561.5,615.8 566,611.4 570.9,615.5 578.4,610.1 
	581.5,605.4 577.8,604.5 580.2,600.8 571.5,599.8 575,594 580.4,595.5 582,599.6 588.4,591.3 594.5,588.8 595.5,573.3 601.2,558.8 
	"/>
<polygon id="XMLID_14_" class="st0" points="216.4,224.4 220.7,232.8 224.3,229.5 221.5,223.5 "/>
<polygon id="XMLID_13_" class="st0" points="559.1,639.9 555.4,642 561.8,645.2 567.3,643.8 564.2,640 "/>
<polygon id="XMLID_12_" class="st0" points="459.6,695.6 445.3,703.1 452.3,704.5 459.6,709.8 466.7,708.6 466.7,704.8 470.1,698.9 
	464.9,699.5 "/>
<path id="XMLID_11_" class="st0" d="M309.3,515.1l12.6-10l-9.1,1.1l-4.3-8.9l-11.2,1.5c0,0-2.8,8.5-2.6,8.9L309.3,515.1z"/>
<polygon id="XMLID_10_" class="st0" points="259.1,331 261.7,346.5 271.9,350.6 274.9,340.1 267.6,325 "/>
<polygon id="XMLID_9_" class="st0" points="288.5,437 284.5,450.8 293.4,449.3 306.2,436.5 304.2,430.9 306,421.8 "/>
<polygon id="XMLID_8_" class="st0" points="251.4,426.4 243.4,424.8 246.5,416.5 243.4,410.3 249.3,409.5 255.4,427.8 252.2,404.3 
	237.7,403.6 245.7,397.7 230,375.5 229,365.6 221.1,361.3 204.8,359.7 194.7,366.4 188.6,367 185.3,370.7 175.2,372.7 170.3,373.7 
	181.1,365.2 190.6,359.8 179.3,353.7 171.3,346.7 175,354.1 164,354.1 165.8,366.3 158.1,377.5 159.1,370 163.4,364.9 158.1,355.6 
	151,357.1 155.3,363 146.9,363.5 142.5,359 127.8,362.7 127.6,369.7 123,370 119.5,378.7 126.8,381.7 124.8,385.9 117.3,386.1 
	118.1,390.2 107.5,393 110.4,401.4 122,401.4 120.1,404.5 129.5,401.3 135.8,401.5 123.6,414.3 108.3,420.2 113.6,425.1 98.6,427.9 
	90.7,424.4 84,432 80.7,422.1 56.1,418.5 56.1,422.8 42.5,419.2 40.1,434.1 46.8,427.2 48.2,436.3 51.3,437.9 54.5,446.8 48.4,447 
	47.4,441.9 34.2,442.3 49.4,453.2 60,450.5 63.4,458.9 50.1,461.7 48.2,467.6 52.1,473 37,473.3 40.5,482.3 35.2,484.4 43.1,489.4 
	49.6,487 45.8,492 58,489.5 61.2,502.7 90.3,502.3 80.9,511.9 74.2,507.8 63.3,526 68.1,525.3 59.2,537.8 40.5,550.6 48,550.6 
	58.2,544 64.5,547.6 77.1,548 85.6,539.5 86.4,543.4 97,544.4 73.2,550.9 55.5,551.6 51.3,558.4 39.7,562.2 43.8,567.7 41.1,572.9 
	46.2,574.3 37.7,576 30.3,569.8 27.5,574 25.1,571.1 10.8,578.6 12.3,582.5 45.2,580.5 34.2,589.8 20.4,593 15.7,604.4 24.5,604.3 
	26.5,610.7 51.5,602.6 32.6,614.8 24.7,621.4 38.1,621.4 55.3,611.8 54.5,618.6 39.7,625.5 47.8,625.5 45.4,630.6 58.6,627.3 
	65.4,632.1 83.3,630 100.5,624.9 113.9,615.8 109.4,605.5 119.6,606.2 116.7,612.4 127.3,612.4 137.1,602 144.5,602.4 146.9,592.5 
	177,589 179.5,582.4 184,590.2 190.5,584 196.6,586.5 212.1,586.4 201.5,572.8 209.2,569.5 217.4,559.5 215.7,550.8 224.3,541.2 
	227.2,530.5 223.1,506.5 216.6,502.4 224.3,497.4 224.3,486.6 217.4,475.9 219.4,465.1 211.3,459.4 215.3,453.2 221.8,454.1 
	223.9,454.4 223.1,446.5 228,447.7 236.1,441.1 236.9,433.6 249.6,435.3 "/>
<polygon id="XMLID_7_" class="st0" points="190.8,151.4 195.7,155.5 204.8,154 214.2,156.5 220.9,147 217.6,144.5 220.7,136.7 
	229.8,128.2 228.2,114.3 204.2,131.4 206.9,139.4 195.7,134.3 189.8,141.7 195.5,147.7 "/>
<polygon id="XMLID_6_" class="st0" points="191.6,270.3 201,263.2 192.5,262.6 "/>
<polygon id="XMLID_5_" class="st0" points="200.4,158 195.9,160.3 193.9,164.6 190.2,166.7 196.9,171.8 208.7,161.5 "/>
<polygon id="XMLID_4_" class="st0" points="173,221.9 168.7,227.2 168.3,232.8 175.4,228.4 "/>
<polygon id="XMLID_3_" class="st0" points="175.8,189.8 175.8,193.1 182.5,195.8 185.3,188.4 "/>
<polygon id="XMLID_2_" class="st0" points="181.7,198.1 176.2,197.1 176.6,203.3 173.8,209.9 175.8,216.9 182.1,218.3 180.1,209.4 
	182.7,204.5 "/>
<polygon id="XMLID_1_" class="st0" points="187.8,183.6 188.4,177.6 175.2,176.2 171.1,178.5 178.4,185.9 "/>
</svg>
