<?xml version="1.0" encoding="utf-8"?>
<!-- Generator: Adobe Illustrator 19.0.0, SVG Export Plug-In . SVG Version: 6.00 Build 0)  -->
<svg version="1.1" id="Layer_1" xmlns="http://www.w3.org/2000/svg" xmlns:xlink="http://www.w3.org/1999/xlink" x="0px" y="0px"
	 viewBox="-241 333 128 128" style="enable-background:new -241 333 128 128;" xml:space="preserve">
<style type="text/css">
	.st0{fill:#FEF6B8;stroke:#FF8D00;stroke-width:2;stroke-miterlimit:10;}
	.st1{fill:#FFAB00;}
	.st2{fill:#F3C100;}
</style>
<g>
	<ellipse class="st0" cx="-176.9" cy="397.3" rx="62.3" ry="62.2"/>
	<g>
		<path class="st1" d="M-179.6,393.8l-39.2-18c0,0-6.7-2.4-3-8.6c3.8-6.2,5.1-8,10.5-12.1c5.4-4,15.6-8,18-2.1
			C-191.2,358.7-179.6,393.8-179.6,393.8z"/>
		
			<ellipse transform="matrix(-0.8186 -0.5744 0.5744 -0.8186 -567.1156 584.8541)" class="st2" cx="-191.2" cy="382" rx="2.4" ry="1.1"/>
		
			<ellipse transform="matrix(-0.8187 -0.5742 0.5742 -0.8187 -566.6673 593.8612)" class="st2" cx="-189.6" cy="386.4" rx="2.4" ry="1.1"/>
		
			<ellipse transform="matrix(-0.8189 -0.574 0.574 -0.8189 -576.5708 573.1113)" class="st2" cx="-197.9" cy="377.5" rx="2.4" ry="1.1"/>
		
			<ellipse transform="matrix(-0.8188 -0.5741 0.5741 -0.8188 -576.3428 582.2176)" class="st2" cx="-196.3" cy="382.1" rx="2.4" ry="1.1"/>
		
			<ellipse transform="matrix(-0.8188 -0.5741 0.5741 -0.8188 -587.204 571.9929)" class="st2" cx="-203.3" cy="378.7" rx="2.4" ry="1.1"/>
		
			<ellipse transform="matrix(-0.8188 -0.5741 0.5741 -0.8188 -564.3697 559.8467)" class="st2" cx="-193.8" cy="369" rx="2.4" ry="1.1"/>
		
			<ellipse transform="matrix(-0.8185 -0.5745 0.5745 -0.8185 -563.9932 568.6146)" class="st2" cx="-192.2" cy="373.4" rx="2.4" ry="1.1"/>
		
			<ellipse transform="matrix(-0.8188 -0.5741 0.5741 -0.8188 -573.1206 551.7422)" class="st2" cx="-199.5" cy="366.3" rx="2.4" ry="1.1"/>
		
			<ellipse transform="matrix(-0.8188 -0.5741 0.5741 -0.8188 -588.5093 537.6555)" class="st2" cx="-209.4" cy="361.7" rx="2.4" ry="1.1"/>
		
			<ellipse transform="matrix(-0.8185 -0.5745 0.5745 -0.8185 -572.7861 560.5527)" class="st2" cx="-197.9" cy="370.7" rx="2.4" ry="1.1"/>
		
			<ellipse transform="matrix(-0.8189 -0.5739 0.5739 -0.8189 -573.7914 529.9413)" class="st2" cx="-203.3" cy="355.5" rx="2.4" ry="1.1"/>
		
			<ellipse transform="matrix(-0.8189 -0.5739 0.5739 -0.8189 -561.1828 541.5049)" class="st2" cx="-195.2" cy="359.3" rx="2.4" ry="1.1"/>
		
			<ellipse transform="matrix(-0.8187 -0.5742 0.5742 -0.8187 -573.4376 538.7143)" class="st2" cx="-201.7" cy="359.9" rx="2.4" ry="1.1"/>
		
			<ellipse transform="matrix(-0.8187 -0.5742 0.5742 -0.8187 -564.6878 546.8185)" class="st2" cx="-196" cy="362.5" rx="2.4" ry="1.1"/>
		
			<ellipse transform="matrix(-0.8188 -0.5741 0.5741 -0.8188 -593.3572 550.7933)" class="st2" cx="-209.8" cy="369" rx="2.4" ry="1.1"/>
		
			<ellipse transform="matrix(-0.8188 -0.5741 0.5741 -0.8188 -583.7931 559.6694)" class="st2" cx="-203.6" cy="372" rx="2.4" ry="1.1"/>
		
			<ellipse transform="matrix(-0.8186 -0.5744 0.5744 -0.8186 -593.0042 559.6588)" class="st2" cx="-208.1" cy="373.5" rx="2.4" ry="1.1"/>
		
			<ellipse transform="matrix(-0.8186 -0.5744 0.5744 -0.8186 -606.1633 547.4871)" class="st2" cx="-216.6" cy="369.5" rx="2.4" ry="1.1"/>
		
			<ellipse transform="matrix(-0.8189 -0.574 0.574 -0.8189 -593.632 541.4877)" class="st2" cx="-211.4" cy="364.4" rx="2.4" ry="1.1"/>
		
			<ellipse transform="matrix(-0.8189 -0.574 0.574 -0.8189 -584.4597 549.8459)" class="st2" cx="-205.5" cy="367.1" rx="2.4" ry="1.1"/>
	</g>
	<g>
		<path class="st1" d="M-176.1,392.2l-15-40.5c0,0-3-6.4,4-8s9.4-2.1,15.9-1.3c6.7,0.8,16.9,5.4,14.2,11.3
			C-159.5,359.5-176.1,392.2-176.1,392.2z"/>
		
			<ellipse transform="matrix(-0.1737 -0.9848 0.9848 -0.1737 -577.1945 268.1588)" class="st2" cx="-176.1" cy="376.2" rx="2.4" ry="1.1"/>
		
			<ellipse transform="matrix(-0.174 -0.9848 0.9848 -0.174 -583.3049 271.0032)" class="st2" cx="-178" cy="380.1" rx="2.4" ry="1.1"/>
		
			<ellipse transform="matrix(-0.1739 -0.9848 0.9848 -0.1739 -570.7722 257.2958)" class="st2" cx="-177.5" cy="368.1" rx="2.4" ry="1.1"/>
		
			<ellipse transform="matrix(-0.1737 -0.9848 0.9848 -0.1737 -577.595 260.2731)" class="st2" cx="-179.6" cy="372.4" rx="2.4" ry="1.1"/>
		
			<ellipse transform="matrix(-0.1739 -0.9848 0.9848 -0.1739 -572.9462 249.0276)" class="st2" cx="-182" cy="364.8" rx="2.4" ry="1.1"/>
		
			<ellipse transform="matrix(-0.1737 -0.9848 0.9848 -0.1737 -557.2881 262.2878)" class="st2" cx="-168.6" cy="364.9" rx="2.4" ry="1.1"/>
		
			<ellipse transform="matrix(-0.1735 -0.9848 0.9848 -0.1735 -563.9496 265.1463)" class="st2" cx="-170.7" cy="369.2" rx="2.4" ry="1.1"/>
		
			<ellipse transform="matrix(-0.1738 -0.9848 0.9848 -0.1738 -554.0294 253.3237)" class="st2" cx="-170.8" cy="359.1" rx="2.4" ry="1.1"/>
		
			<ellipse transform="matrix(-0.1737 -0.9848 0.9848 -0.1737 -548.3546 237.6274)" class="st2" cx="-174.5" cy="348.9" rx="2.4" ry="1.1"/>
		
			<ellipse transform="matrix(-0.1741 -0.9847 0.9847 -0.1741 -560.1405 256.1665)" class="st2" cx="-172.6" cy="363" rx="2.4" ry="1.1"/>
		
			<ellipse transform="matrix(-0.1738 -0.9848 0.9848 -0.1738 -538.0645 245.8447)" class="st2" cx="-165.9" cy="348.6" rx="2.4" ry="1.1"/>
		
			<ellipse transform="matrix(-0.1736 -0.9848 0.9848 -0.1736 -542.6396 258.9252)" class="st2" cx="-162.7" cy="357.1" rx="2.4" ry="1.1"/>
		
			<ellipse transform="matrix(-0.1739 -0.9848 0.9848 -0.1739 -544.3901 248.8995)" class="st2" cx="-167.8" cy="352.8" rx="2.4" ry="1.1"/>
		
			<ellipse transform="matrix(-0.1739 -0.9848 0.9848 -0.1739 -547.6684 257.9274)" class="st2" cx="-165.6" cy="358.7" rx="2.4" ry="1.1"/>
		
			<ellipse transform="matrix(-0.1735 -0.9848 0.9848 -0.1735 -559.3959 237.8523)" class="st2" cx="-179.9" cy="353.6" rx="2.4" ry="1.1"/>
		
			<ellipse transform="matrix(-0.1738 -0.9848 0.9848 -0.1738 -563.2817 247.7367)" class="st2" cx="-177.7" cy="360.1" rx="2.4" ry="1.1"/>
		
			<ellipse transform="matrix(-0.1737 -0.9848 0.9848 -0.1737 -566.1839 240.924)" class="st2" cx="-182" cy="358" rx="2.4" ry="1.1"/>
		
			<ellipse transform="matrix(-0.1739 -0.9848 0.9848 -0.1739 -561.177 227.3006)" class="st2" cx="-185.2" cy="349" rx="2.4" ry="1.1"/>
		
			<ellipse transform="matrix(-0.1739 -0.9848 0.9848 -0.1739 -552.9382 234.7751)" class="st2" cx="-178" cy="349.3" rx="2.4" ry="1.1"/>
		
			<ellipse transform="matrix(-0.1735 -0.9848 0.9848 -0.1735 -556.1536 244.3342)" class="st2" cx="-175.6" cy="355.5" rx="2.4" ry="1.1"/>
	</g>
	<g>
		<path class="st1" d="M-172.6,393.8l18-39.1c0,0,2.4-6.7,8.6-2.9c6.2,3.8,8.1,5.1,12.1,10.5s8.1,15.5,2.1,18
			C-137.7,382.6-172.6,393.8-172.6,393.8z"/>
		
			<ellipse transform="matrix(0.5748 -0.8183 0.8183 0.5748 -381.4816 31.0266)" class="st2" cx="-160.9" cy="382.6" rx="2.4" ry="1.1"/>
		
			<ellipse transform="matrix(0.5745 -0.8185 0.8185 0.5745 -384.5348 28.0259)" class="st2" cx="-165.3" cy="383.9" rx="2.4" ry="1.1"/>
		
			<ellipse transform="matrix(0.5748 -0.8183 0.8183 0.5748 -373.9405 31.695)" class="st2" cx="-156.5" cy="375.7" rx="2.4" ry="1.1"/>
		
			<ellipse transform="matrix(0.5751 -0.8181 0.8181 0.5751 -377.2932 28.5672)" class="st2" cx="-161.1" cy="377.5" rx="2.4" ry="1.1"/>
		
			<ellipse transform="matrix(0.5748 -0.8183 0.8183 0.5748 -369.9676 28.4894)" class="st2" cx="-157.6" cy="370.3" rx="2.4" ry="1.1"/>
		
			<ellipse transform="matrix(0.5749 -0.8182 0.8182 0.5749 -373.5106 40.4412)" class="st2" cx="-147.8" cy="379.7" rx="2.4" ry="1.1"/>
		
			<ellipse transform="matrix(0.575 -0.8182 0.8182 0.575 -376.7129 37.2165)" class="st2" cx="-152.5" cy="381.2" rx="2.4" ry="1.1"/>
		
			<ellipse transform="matrix(0.5748 -0.8183 0.8183 0.5748 -367.9968 40.2849)" class="st2" cx="-145.2" cy="374.3" rx="2.4" ry="1.1"/>
		
			<ellipse transform="matrix(0.5746 -0.8184 0.8184 0.5746 -357.7488 39.8406)" class="st2" cx="-140.5" cy="364.1" rx="2.4" ry="1.1"/>
		
			<ellipse transform="matrix(0.5745 -0.8185 0.8185 0.5745 -371.0479 37.5066)" class="st2" cx="-149.4" cy="375.6" rx="2.4" ry="1.1"/>
		<ellipse transform="matrix(0.575 -0.8182 0.8182 0.575 -359.828 47.27)" class="st2" cx="-134.4" cy="370" rx="2.4" ry="1.1"/>
		
			<ellipse transform="matrix(0.5749 -0.8182 0.8182 0.5749 -368.4484 47.7657)" class="st2" cx="-138.3" cy="378.5" rx="2.4" ry="1.1"/>
		
			<ellipse transform="matrix(0.5748 -0.8183 0.8183 0.5748 -363.3482 44.3415)" class="st2" cx="-139" cy="371.8" rx="2.4" ry="1.1"/>
		
			<ellipse transform="matrix(0.575 -0.8182 0.8182 0.575 -369.0558 44.6911)" class="st2" cx="-141.5" cy="377.6" rx="2.4" ry="1.1"/>
		
			<ellipse transform="matrix(0.5746 -0.8184 0.8184 0.5746 -360.9007 33.7828)" class="st2" cx="-148" cy="364.1" rx="2.4" ry="1.1"/>
		<ellipse transform="matrix(0.5749 -0.8182 0.8182 0.5749 -366.81 33.9219)" class="st2" cx="-150.8" cy="370" rx="2.4" ry="1.1"/>
		
			<ellipse transform="matrix(0.5751 -0.8181 0.8181 0.5751 -363.7111 30.543)" class="st2" cx="-152.5" cy="365.4" rx="2.4" ry="1.1"/>
		
			<ellipse transform="matrix(0.5751 -0.8181 0.8181 0.5751 -355.2917 30.2422)" class="st2" cx="-148.5" cy="357.2" rx="2.4" ry="1.1"/>
		
			<ellipse transform="matrix(0.5748 -0.8183 0.8183 0.5748 -357.3443 36.6948)" class="st2" cx="-143.4" cy="362.2" rx="2.4" ry="1.1"/>
		
			<ellipse transform="matrix(0.5752 -0.818 0.818 0.5752 -363.1657 36.9032)" class="st2" cx="-146.1" cy="368.1" rx="2.4" ry="1.1"/>
	</g>
	<g>
		<path class="st1" d="M-171.3,397.3l40.6-15c0,0,6.4-2.9,8.1,4c1.6,7,2.1,9.4,1.3,15.8c-0.8,6.7-5.4,16.9-11.3,14.2
			C-138.5,414-171.3,397.3-171.3,397.3z"/>
		
			<ellipse transform="matrix(0.9849 -0.1731 0.1731 0.9849 -71.1731 -20.7576)" class="st2" cx="-154.6" cy="397.8" rx="2.4" ry="1.1"/>
		
			<ellipse transform="matrix(0.9848 -0.1734 0.1734 0.9848 -71.0053 -21.5869)" class="st2" cx="-159" cy="395.5" rx="2.4" ry="1.1"/>
		
			<ellipse transform="matrix(0.9849 -0.1732 0.1732 0.9849 -70.8201 -19.4289)" class="st2" cx="-146.8" cy="396.2" rx="2.4" ry="1.1"/>
		
			<ellipse transform="matrix(0.9849 -0.1728 0.1728 0.9849 -70.3606 -20.1859)" class="st2" cx="-151.1" cy="393.9" rx="2.4" ry="1.1"/>
		<ellipse transform="matrix(0.985 -0.1728 0.1728 0.985 -69.7634 -18.9872)" class="st2" cx="-144" cy="391.3" rx="2.4" ry="1.1"/>
		
			<ellipse transform="matrix(0.985 -0.1728 0.1728 0.985 -72.1343 -18.7381)" class="st2" cx="-143.7" cy="405.1" rx="2.4" ry="1.1"/>
		<ellipse transform="matrix(0.985 -0.1728 0.1728 0.985 -71.8281 -19.514)" class="st2" cx="-148" cy="402.9" rx="2.4" ry="1.1"/>
		
			<ellipse transform="matrix(0.9849 -0.1731 0.1731 0.9849 -71.7975 -17.7724)" class="st2" cx="-137.8" cy="402.9" rx="2.4" ry="1.1"/>
		
			<ellipse transform="matrix(0.9849 -0.1729 0.1729 0.9849 -70.9344 -16.0841)" class="st2" cx="-127.8" cy="399" rx="2.4" ry="1.1"/>
		
			<ellipse transform="matrix(0.9849 -0.1732 0.1732 0.9849 -71.5297 -18.563)" class="st2" cx="-142.2" cy="400.7" rx="2.4" ry="1.1"/>
		
			<ellipse transform="matrix(0.985 -0.1726 0.1726 0.985 -72.2537 -15.8895)" class="st2" cx="-127.5" cy="407.6" rx="2.4" ry="1.1"/>
		<ellipse transform="matrix(0.985 -0.1728 0.1728 0.985 -73.0043 -17.3138)" class="st2" cx="-136" cy="410.8" rx="2.4" ry="1.1"/>
		
			<ellipse transform="matrix(0.985 -0.1728 0.1728 0.985 -72.0474 -16.6335)" class="st2" cx="-131.6" cy="405.6" rx="2.4" ry="1.1"/>
		
			<ellipse transform="matrix(0.985 -0.1725 0.1725 0.985 -72.3841 -17.5935)" class="st2" cx="-137.4" cy="407.8" rx="2.4" ry="1.1"/>
		
			<ellipse transform="matrix(0.9849 -0.1731 0.1731 0.9849 -70.135 -17.0133)" class="st2" cx="-132.6" cy="393.7" rx="2.4" ry="1.1"/>
		<ellipse transform="matrix(0.985 -0.1727 0.1727 0.985 -70.4258 -18.056)" class="st2" cx="-139" cy="395.8" rx="2.4" ry="1.1"/>
		
			<ellipse transform="matrix(0.9849 -0.1728 0.1728 0.9849 -69.7447 -17.7282)" class="st2" cx="-136.7" cy="391.6" rx="2.4" ry="1.1"/>
		
			<ellipse transform="matrix(0.985 -0.1727 0.1727 0.985 -69.0059 -16.277)" class="st2" cx="-128.1" cy="388.5" rx="2.4" ry="1.1"/>
		
			<ellipse transform="matrix(0.9849 -0.1733 0.1733 0.9849 -70.4797 -16.222)" class="st2" cx="-128.2" cy="395.6" rx="2.4" ry="1.1"/>
		<ellipse transform="matrix(0.985 -0.1726 0.1726 0.985 -70.6956 -17.1983)" class="st2" cx="-134.3" cy="398" rx="2.4" ry="1.1"/>
	</g>
	<g>
		<path class="st1" d="M-172.9,400.8l39.2,18c0,0,6.7,2.4,3,8.6c-3.8,6.2-5.1,8-10.5,12.1c-5.4,4-15.6,8-18,2.1
			C-161.3,435.7-172.9,400.8-172.9,400.8z"/>
		
			<ellipse transform="matrix(0.8198 0.5726 -0.5726 0.8198 207.3043 166.7383)" class="st2" cx="-161.3" cy="412.8" rx="2.4" ry="1.1"/>
		<ellipse transform="matrix(0.82 0.5723 -0.5723 0.82 204.2739 166.6292)" class="st2" cx="-162.8" cy="408.1" rx="2.4" ry="1.1"/>
		
			<ellipse transform="matrix(0.8198 0.5726 -0.5726 0.8198 211.0167 163.6619)" class="st2" cx="-154.6" cy="417.2" rx="2.4" ry="1.1"/>
		
			<ellipse transform="matrix(0.8198 0.5727 -0.5727 0.8198 208.1596 163.8488)" class="st2" cx="-156.2" cy="412.6" rx="2.4" ry="1.1"/>
		
			<ellipse transform="matrix(0.8196 0.5729 -0.5729 0.8196 211.489 160.3731)" class="st2" cx="-148.9" cy="416.1" rx="2.4" ry="1.1"/>
		
			<ellipse transform="matrix(0.8196 0.5729 -0.5729 0.8196 215.2213 167.6318)" class="st2" cx="-158.6" cy="425.6" rx="2.4" ry="1.1"/>
		
			<ellipse transform="matrix(0.8197 0.5728 -0.5728 0.8197 212.3111 167.8081)" class="st2" cx="-160.4" cy="421.2" rx="2.4" ry="1.1"/>
		
			<ellipse transform="matrix(0.8197 0.5728 -0.5728 0.8197 217.7865 164.972)" class="st2" cx="-153.2" cy="428.4" rx="2.4" ry="1.1"/>
		
			<ellipse transform="matrix(0.8197 0.5728 -0.5728 0.8197 222.1804 160.0436)" class="st2" cx="-143.1" cy="433" rx="2.4" ry="1.1"/>
		
			<ellipse transform="matrix(0.8198 0.5726 -0.5726 0.8198 214.8505 164.91)" class="st2" cx="-154.6" cy="423.9" rx="2.4" ry="1.1"/>
		
			<ellipse transform="matrix(0.8195 0.5731 -0.5731 0.8195 224.6922 164.7084)" class="st2" cx="-149.1" cy="439.1" rx="2.4" ry="1.1"/>
		
			<ellipse transform="matrix(0.8198 0.5727 -0.5727 0.8198 220.9628 168.459)" class="st2" cx="-157.2" cy="435.3" rx="2.4" ry="1.1"/>
		
			<ellipse transform="matrix(0.8195 0.5731 -0.5731 0.8195 221.9641 164.8371)" class="st2" cx="-150.7" cy="434.8" rx="2.4" ry="1.1"/>
		
			<ellipse transform="matrix(0.8194 0.5733 -0.5733 0.8194 219.4234 167.7379)" class="st2" cx="-156.5" cy="432.1" rx="2.4" ry="1.1"/>
		
			<ellipse transform="matrix(0.8199 0.5725 -0.5725 0.8199 217.8954 158.405)" class="st2" cx="-142.8" cy="425.5" rx="2.4" ry="1.1"/>
		<ellipse transform="matrix(0.8196 0.573 -0.573 0.8196 215.2978 161.6037)" class="st2" cx="-149" cy="422.7" rx="2.4" ry="1.1"/>
		
			<ellipse transform="matrix(0.8197 0.5728 -0.5728 0.8197 215.143 158.4554)" class="st2" cx="-144.1" cy="421" rx="2.4" ry="1.1"/>
		
			<ellipse transform="matrix(0.8195 0.5731 -0.5731 0.8195 219.0325 154.6822)" class="st2" cx="-136" cy="425.1" rx="2.4" ry="1.1"/>
		
			<ellipse transform="matrix(0.8201 0.5723 -0.5723 0.8201 220.7763 157.9644)" class="st2" cx="-140.8" cy="430.1" rx="2.4" ry="1.1"/>
		<ellipse transform="matrix(0.8196 0.573 -0.573 0.8196 218.4843 161.4084)" class="st2" cx="-147" cy="427.6" rx="2.4" ry="1.1"/>
	</g>
	<g>
		<path class="st1" d="M-176.4,402.2l15,40.5c0,0,3,6.4-4,8s-9.4,2.1-15.9,1.3c-6.7-0.8-16.9-5.4-14.2-11.3
			C-193,435.1-176.4,402.2-176.4,402.2z"/>
		<path class="st2" d="M-176.9,416.4c0.5,0,1.3,0.8,1.6,2.4c0.3,1.3,0,2.7-0.5,2.7c-0.5,0-1.3-0.8-1.6-2.4
			C-178,417.4-177.7,416.4-176.9,416.4z"/>
		
			<ellipse transform="matrix(0.1745 0.9847 -0.9847 0.1745 263.8692 514.2119)" class="st2" cx="-174.7" cy="414.5" rx="2.4" ry="1.1"/>
		
			<ellipse transform="matrix(0.1741 0.9847 -0.9847 0.1741 275.5972 524.6238)" class="st2" cx="-174.9" cy="426.6" rx="2.4" ry="1.1"/>
		
			<ellipse transform="matrix(0.1741 0.9847 -0.9847 0.1741 272.6954 519.0465)" class="st2" cx="-173.1" cy="422.1" rx="2.4" ry="1.1"/>
		
			<ellipse transform="matrix(0.1738 0.9848 -0.9848 0.1738 282.2762 522.5917)" class="st2" cx="-170.3" cy="429.5" rx="2.4" ry="1.1"/>
		
			<ellipse transform="matrix(0.174 0.9848 -0.9848 0.174 271.1402 536.0092)" class="st2" cx="-183.9" cy="429.6" rx="2.4" ry="1.1"/>
		
			<ellipse transform="matrix(0.1737 0.9848 -0.9848 0.1737 268.8993 530.7097)" class="st2" cx="-181.8" cy="425.6" rx="2.4" ry="1.1"/>
		
			<ellipse transform="matrix(0.1741 0.9847 -0.9847 0.1741 278.6753 538.6326)" class="st2" cx="-181.8" cy="435.4" rx="2.4" ry="1.1"/>
		
			<ellipse transform="matrix(0.1741 0.9847 -0.9847 0.1741 291.8214 543.6874)" class="st2" cx="-178.2" cy="445.8" rx="2.4" ry="1.1"/>
		
			<ellipse transform="matrix(0.1741 0.9847 -0.9847 0.1741 276.3158 533.4006)" class="st2" cx="-179.8" cy="431.4" rx="2.4" ry="1.1"/>
		
			<ellipse transform="matrix(0.1732 0.9849 -0.9849 0.1732 284.9819 552.3547)" class="st2" cx="-186.5" cy="445.9" rx="2.4" ry="1.1"/>
		
			<ellipse transform="matrix(0.1737 0.9848 -0.9848 0.1737 274.2655 548.2377)" class="st2" cx="-189.6" cy="437.6" rx="2.4" ry="1.1"/>
		
			<ellipse transform="matrix(0.1735 0.9848 -0.9848 0.1735 282.5503 546.728)" class="st2" cx="-184.5" cy="441.7" rx="2.4" ry="1.1"/>
		
			<ellipse transform="matrix(0.1734 0.9849 -0.9849 0.1734 274.8605 544.0818)" class="st2" cx="-186.7" cy="435.8" rx="2.4" ry="1.1"/>
		
			<ellipse transform="matrix(0.1741 0.9847 -0.9847 0.1741 291.7366 533.9138)" class="st2" cx="-172.4" cy="440.9" rx="2.4" ry="1.1"/>
		
			<ellipse transform="matrix(0.1735 0.9848 -0.9848 0.1735 283.1228 531.3011)" class="st2" cx="-175" cy="434.3" rx="2.4" ry="1.1"/>
		
			<ellipse transform="matrix(0.1737 0.9848 -0.9848 0.1737 289.1016 528.5605)" class="st2" cx="-170.4" cy="436.6" rx="2.4" ry="1.1"/>
		
			<ellipse transform="matrix(0.1735 0.9848 -0.9848 0.1735 300.3059 533.2011)" class="st2" cx="-167.5" cy="445.5" rx="2.4" ry="1.1"/>
		
			<ellipse transform="matrix(0.1746 0.9846 -0.9846 0.1746 294.4836 539.8456)" class="st2" cx="-174.7" cy="445.6" rx="2.4" ry="1.1"/>
		
			<ellipse transform="matrix(0.1735 0.9848 -0.9848 0.1735 286.4446 537.2582)" class="st2" cx="-176.9" cy="439.3" rx="2.4" ry="1.1"/>
	</g>
	<g>
		<path class="st1" d="M-179.9,400.8l-18,39.1c0,0-2.4,6.7-8.6,2.9c-6.2-3.8-8.1-5.1-12.1-10.5s-8.1-15.5-2.1-18
			S-179.9,400.8-179.9,400.8z"/>
		<path class="st2" d="M-190.1,410.2c0.5,0.3,0.3,1.6-0.5,2.7c-0.8,1.1-1.9,1.9-2.4,1.3c-0.5-0.3-0.3-1.6,0.5-2.7
			C-191.7,410.5-190.6,409.9-190.1,410.2z"/>
		
			<ellipse transform="matrix(-0.574 0.8188 -0.8188 -0.574 41.5563 799.824)" class="st2" cx="-187.3" cy="410.7" rx="2.4" ry="1.1"/>
		
			<ellipse transform="matrix(-0.5745 0.8185 -0.8185 -0.5745 33.9625 819.6027)" class="st2" cx="-196" cy="418.6" rx="2.4" ry="1.1"/>
		
			<ellipse transform="matrix(-0.5746 0.8184 -0.8184 -0.5746 39.7438 813.7615)" class="st2" cx="-191.6" cy="417.2" rx="2.4" ry="1.1"/>
		
			<ellipse transform="matrix(-0.5749 0.8182 -0.8182 -0.5749 40.1728 827.7233)" class="st2" cx="-194.9" cy="424.3" rx="2.4" ry="1.1"/>
		
			<ellipse transform="matrix(-0.5746 0.8184 -0.8184 -0.5746 17.2474 820.6847)" class="st2" cx="-204.6" cy="414.8" rx="2.4" ry="1.1"/>
		
			<ellipse transform="matrix(-0.5745 0.8185 -0.8185 -0.5745 22.6771 814.5606)" class="st2" cx="-200.4" cy="413.2" rx="2.4" ry="1.1"/>
		
			<ellipse transform="matrix(-0.5748 0.8183 -0.8183 -0.5748 17.3293 831.734)" class="st2" cx="-207.4" cy="420.4" rx="2.4" ry="1.1"/>
		
			<ellipse transform="matrix(-0.5744 0.8186 -0.8186 -0.5744 18.5623 850.629)" class="st2" cx="-211.8" cy="430.1" rx="2.4" ry="1.1"/>
		
			<ellipse transform="matrix(-0.5745 0.8185 -0.8185 -0.5745 23.0913 825.1202)" class="st2" cx="-202.9" cy="418.6" rx="2.4" ry="1.1"/>
		
			<ellipse transform="matrix(-0.5754 0.8179 -0.8179 -0.5754 3.1138 846.7287)" class="st2" cx="-218.2" cy="424.2" rx="2.4" ry="1.1"/>
		
			<ellipse transform="matrix(-0.5746 0.8184 -0.8184 -0.5746 3.4686 830.582)" class="st2" cx="-214.1" cy="416.2" rx="2.4" ry="1.1"/>
		
			<ellipse transform="matrix(-0.5752 0.818 -0.818 -0.5752 9.1575 840.9194)" class="st2" cx="-213.8" cy="422.8" rx="2.4" ry="1.1"/>
		
			<ellipse transform="matrix(-0.5753 0.8179 -0.8179 -0.5753 8.6855 829.7158)" class="st2" cx="-211" cy="417.1" rx="2.4" ry="1.1"/>
		
			<ellipse transform="matrix(-0.5748 0.8183 -0.8183 -0.5748 30.703 845.6733)" class="st2" cx="-204.4" cy="430.8" rx="2.4" ry="1.1"/>
		
			<ellipse transform="matrix(-0.5755 0.8178 -0.8178 -0.5755 29.7188 833.7654)" class="st2" cx="-201.5" cy="424.6" rx="2.4" ry="1.1"/>
		
			<ellipse transform="matrix(-0.5746 0.8184 -0.8184 -0.5746 36.0626 839.3079)" class="st2" cx="-200.1" cy="429" rx="2.4" ry="1.1"/>
		
			<ellipse transform="matrix(-0.5755 0.8178 -0.8178 -0.5755 36.1037 856.2624)" class="st2" cx="-204.2" cy="437.5" rx="2.4" ry="1.1"/>
		<path class="st2" d="M-207.8,430.3c0.5,0.3,0.3,1.6-0.5,2.7s-1.9,1.9-2.4,1.3c-0.5-0.3-0.3-1.6,0.5-2.7
			C-209.4,430.6-208.4,430-207.8,430.3z"/>
		
			<ellipse transform="matrix(-0.575 0.8182 -0.8182 -0.575 23.8478 840.9547)" class="st2" cx="-206.5" cy="426.7" rx="2.4" ry="1.1"/>
	</g>
	<g>
		<path class="st1" d="M-181.2,397.3l-40.6,15c0,0-6.4,2.9-8.1-4c-1.6-7-2.1-9.4-1.3-15.8c0.8-6.7,5.4-16.9,11.3-14.2
			C-214,380.7-181.2,397.3-181.2,397.3z"/>
		<path class="st2" d="M-195.2,396.5c0,0.5-0.8,1.3-2.4,1.6c-1.3,0.3-2.7,0-2.7-0.5s0.8-1.3,2.4-1.6
			C-196.5,395.7-195.5,396-195.2,396.5z"/>
		
			<ellipse transform="matrix(-0.9847 0.1742 -0.1742 -0.9847 -314.7352 825.4865)" class="st2" cx="-193.6" cy="398.9" rx="2.4" ry="1.1"/>
		
			<ellipse transform="matrix(-0.9849 0.1732 -0.1732 -0.9849 -338.7092 826.6926)" class="st2" cx="-205.4" cy="398.6" rx="2.4" ry="1.1"/>
		
			<ellipse transform="matrix(-0.9849 0.1733 -0.1733 -0.9849 -330.4027 829.9611)" class="st2" cx="-201.4" cy="400.6" rx="2.4" ry="1.1"/>
		
			<ellipse transform="matrix(-0.985 0.1728 -0.1728 -0.985 -344.5972 836.3302)" class="st2" cx="-208.7" cy="403.2" rx="2.4" ry="1.1"/>
		
			<ellipse transform="matrix(-0.9849 0.1733 -0.1733 -0.9849 -346.65 809.2831)" class="st2" cx="-208.6" cy="389.5" rx="2.4" ry="1.1"/>
		
			<ellipse transform="matrix(-0.9849 0.1733 -0.1733 -0.9849 -337.6643 812.8678)" class="st2" cx="-204.3" cy="391.7" rx="2.4" ry="1.1"/>
		
			<ellipse transform="matrix(-0.985 0.1728 -0.1728 -0.985 -358.2737 814.4904)" class="st2" cx="-214.6" cy="391.7" rx="2.4" ry="1.1"/>
		
			<ellipse transform="matrix(-0.9848 0.1734 -0.1734 -0.9848 -378.1876 823.9997)" class="st2" cx="-225.1" cy="395.5" rx="2.4" ry="1.1"/>
		
			<ellipse transform="matrix(-0.9849 0.1733 -0.1733 -0.9849 -348.9771 818.2122)" class="st2" cx="-210.2" cy="393.9" rx="2.4" ry="1.1"/>
		
			<ellipse transform="matrix(-0.9851 0.1722 -0.1722 -0.9851 -380.0012 806.8043)" class="st2" cx="-225" cy="386.9" rx="2.4" ry="1.1"/>
		
			<ellipse transform="matrix(-0.9849 0.1732 -0.1732 -0.9849 -363.5579 799.6821)" class="st2" cx="-216.7" cy="384" rx="2.4" ry="1.1"/>
		
			<ellipse transform="matrix(-0.985 0.1726 -0.1726 -0.985 -370.8866 810.2914)" class="st2" cx="-220.7" cy="389" rx="2.4" ry="1.1"/>
		
			<ellipse transform="matrix(-0.985 0.1723 -0.1723 -0.985 -359.6164 805.1713)" class="st2" cx="-214.8" cy="387" rx="2.4" ry="1.1"/>
		
			<ellipse transform="matrix(-0.9849 0.1731 -0.1731 -0.9849 -366.9054 834.2072)" class="st2" cx="-219.8" cy="401.1" rx="2.4" ry="1.1"/>
		
			<ellipse transform="matrix(-0.9851 0.172 -0.172 -0.9851 -355.2605 827.9044)" class="st2" cx="-213.5" cy="398.6" rx="2.4" ry="1.1"/>
		
			<ellipse transform="matrix(-0.9849 0.1733 -0.1733 -0.9849 -358.0777 837.2254)" class="st2" cx="-215.6" cy="403" rx="2.4" ry="1.1"/>
		<path class="st2" d="M-222.1,405.6c0,0.5-0.8,1.3-2.4,1.6c-1.3,0.3-2.7,0-2.7-0.5c0-0.5,0.8-1.3,2.4-1.6
			C-223.4,404.8-222.1,405.1-222.1,405.6z"/>
		
			<ellipse transform="matrix(-0.9848 0.1736 -0.1736 -0.9848 -376.2881 830.6985)" class="st2" cx="-224.5" cy="398.9" rx="2.4" ry="1.1"/>
		
			<ellipse transform="matrix(-0.985 0.1728 -0.1728 -0.985 -364.8214 825.2952)" class="st2" cx="-218.3" cy="396.8" rx="2.4" ry="1.1"/>
	</g>
</g>
</svg>
