<?xml version="1.0" encoding="utf-8"?>
<!-- Generator: Adobe Illustrator 19.0.0, SVG Export Plug-In . SVG Version: 6.00 Build 0)  -->
<svg version="1.1" id="Layer_1" xmlns="http://www.w3.org/2000/svg" xmlns:xlink="http://www.w3.org/1999/xlink" x="0px" y="0px"
	 viewBox="-241 333 128 128" style="enable-background:new -241 333 128 128;" xml:space="preserve">
<style type="text/css">
	.st0{fill:#F05C42;}
	.st1{fill:#88CEBF;}
	.st2{fill:#3D9B8F;}
	.st3{fill:#454C53;}
	.st4{fill:#FFFFFF;}
</style>
<circle class="st0" cx="-177" cy="397" r="63.7"/>
<g>
	<path class="st1" d="M-197.2,388c0,0,4-8,15.9-9.8c6.2-0.9,15,2.6,19.7-2.4l-1.8,12.2L-197.2,388L-197.2,388z"/>
	<path class="st1" d="M-192,412.3c0,0,2.1,6.1,10.1,8.2c4.1,1.1,10.4-0.8,13.3,3l-0.3-8.6L-192,412.3z"/>
	<path class="st1" d="M-156.3,399.5c0,0,3-15.2,13.8-15.2s10.9-9.3,10.9-9.3s8.4,15.4-4.7,24.5c0,0,9.3,13.8,1.7,23.7
		c0,0-4.1-7.2-7-8.7C-151.3,409.4-154.4,404.8-156.3,399.5z"/>
	<path class="st2" d="M-220.3,401.6c0,0,10.8-16.1,38.1-16.1s35.3,14,35.3,14s-7.4,18.5-36.4,17.9c-22.6-0.5-37-15.3-37-15.3"/>
	<path class="st3" d="M-182.2,385.5c-7.9,0-14.4,1.4-19.7,3.3c2.1,1.2,3.9,3,5.2,5.1c1.4,2.4,1.8,4.5,2,7.3c0.1,2.9-0.8,4.7-2,7.2
		c-0.7,1.1-1.4,2.1-2.3,2.9c-0.9,0.9-1.9,1.6-2.9,2.2c5.3,2.1,11.5,3.6,18.6,3.8c29,0.6,36.4-17.9,36.4-17.9
		S-154.9,385.5-182.2,385.5z"/>
	<path class="st1" d="M-214.5,401.6c0,0-6.4-6.8-9.9-4.5s0.6,5.5,0.6,5.5s-4.5,2.4-0.6,5.5C-219.5,412-214.5,401.6-214.5,401.6z"/>
	<g>
		<circle class="st4" cx="-201.9" cy="399.4" r="5.3"/>
		<circle class="st3" cx="-201.9" cy="399.4" r="2.5"/>
	</g>
	<path class="st1" d="M-188.1,405.4c0,0,7.6,4.4,12.5,4.4c4.9,0.1,7.6,1.1,7.6,1.1l-4.3-4.3L-188.1,405.4z"/>
</g>
</svg>
