<?xml version="1.0" encoding="utf-8"?>
<!-- Generator: Adobe Illustrator 19.0.0, SVG Export Plug-In . SVG Version: 6.00 Build 0)  -->
<svg version="1.1" id="Layer_1" xmlns="http://www.w3.org/2000/svg" xmlns:xlink="http://www.w3.org/1999/xlink" x="0px" y="0px"
	 viewBox="-241 333 128 128" style="enable-background:new -241 333 128 128;" xml:space="preserve">
<style type="text/css">
	.st0{fill:#FCFBFA;}
	.st1{fill:#4C4A4A;}
	.st2{fill:#1C1A1A;}
	.st3{fill:#EFEAEA;}
	.st4{fill:#FF6E69;}
</style>
<circle class="st0" cx="-177" cy="397" r="64"/>
<g>
	<g>
		<path class="st1" d="M-141.5,425.9c0,3.6-3,6.6-6.6,6.6h-57.8c-3.6,0-6.6-3-6.6-6.6v-57.8c0-3.6,3-6.6,6.6-6.6h57.8
			c3.6,0,6.6,3,6.6,6.6V425.9z"/>
		<path class="st2" d="M-205.9,432.5h57.8c3.6,0,6.6-3,6.6-6.6v-57.8c0-3.6-3-6.6-6.6-6.6h-0.6c4.8,0.9,4.6,8.8,4.6,8.8
			s0,46.4,0,52.6c0,6.2-5.6,6.6-5.6,6.6s-42.2,0-50.7,0c-8.6,0-12-3.6-12-3.6C-212.5,429.5-209.5,432.5-205.9,432.5z"/>
	</g>
	<g>
		<path class="st3" d="M-159.6,371.4C-167,367-177,367-177,367s-10.5,0-17.4,4.4c0,0,0.7,12.4,17.4,12.4l0,0l0,0l0,0l0,0
			C-159.6,383.8-159.6,371.4-159.6,371.4z"/>
		<g>
			<rect x="-177.3" y="368.7" class="st1" width="0.8" height="3.8"/>
			<g>
				
					<rect x="-181.7" y="368.9" transform="matrix(0.9928 -0.1198 0.1198 0.9928 -45.7455 -19.0491)" class="st1" width="0.8" height="3.8"/>
				
					<rect x="-186" y="369.7" transform="matrix(0.9705 -0.2412 0.2412 0.9705 -95.1043 -33.7815)" class="st1" width="0.8" height="3.8"/>
			</g>
			<g>
				
					<rect x="-173.2" y="368.9" transform="matrix(-0.9928 -0.1198 0.1198 -0.9928 -388.6448 718.3312)" class="st1" width="0.8" height="3.8"/>
				
					<rect x="-168.9" y="369.7" transform="matrix(-0.9705 -0.2411 0.2411 -0.9705 -421.5321 691.6064)" class="st1" width="0.8" height="3.8"/>
			</g>
		</g>
		<path class="st4" d="M-176.8,373.9c0,0-2.1,8.5-0.2,8.5S-176.8,373.9-176.8,373.9z"/>
	</g>
</g>
</svg>
