<?xml version="1.0" encoding="utf-8"?>
<!-- Generator: Adobe Illustrator 19.0.0, SVG Export Plug-In . SVG Version: 6.00 Build 0)  -->
<svg version="1.1" id="Layer_1" xmlns="http://www.w3.org/2000/svg" xmlns:xlink="http://www.w3.org/1999/xlink" x="0px" y="0px"
	 viewBox="-241 333 128 128" style="enable-background:new -241 333 128 128;" xml:space="preserve">
<style type="text/css">
	.st0{fill:#C2D5D8;}
	.st1{fill:#5AB3A3;}
	.st2{fill:#3F8C7F;}
	.st3{fill:#45998B;}
	.st4{fill:#CC665C;}
	.st5{fill:#BF5347;}
	.st6{fill:#CC584C;}
	.st7{fill:#FFDC80;}
	.st8{fill:#E6BF5A;}
	.st9{fill:#FFD464;}
</style>
<g>
	<circle class="st0" cx="-177" cy="397" r="64"/>
	<path class="st1" d="M-169.3,460.5c6-0.7,11.7-2.2,17-4.5V382h-17V460.5z"/>
	<path class="st2" d="M-152.3,456.1c6.2-2.6,12-6.2,17-10.5V382h-17V456.1z"/>
	<polygon class="st3" points="-135,382 -152,388 -169,382 -152,376 	"/>
	<path class="st4" d="M-194.3,458.6c5.4,1.5,11.1,2.4,17,2.4v-89h-17V458.6z"/>
	<path class="st5" d="M-177.3,461c0.1,0,0.2,0,0.3,0c5.8,0,11.4-0.8,16.7-2.2V372h-17V461z"/>
	<polygon class="st6" points="-160,372 -177,378 -194,372 -177,366 	"/>
	<path class="st7" d="M-219.3,445c5,4.4,10.8,8.1,17,10.8V387h-17V445z"/>
	<path class="st8" d="M-202.3,455.8c5.3,2.3,11,3.9,17,4.7V387h-17V455.8z"/>
	<polygon class="st9" points="-185,387 -202,393 -219,387 -202,381 	"/>
</g>
</svg>
