<?xml version="1.0" encoding="utf-8"?>
<!-- Generator: Adobe Illustrator 19.0.0, SVG Export Plug-In . SVG Version: 6.00 Build 0)  -->
<svg version="1.1" id="Layer_1" xmlns="http://www.w3.org/2000/svg" xmlns:xlink="http://www.w3.org/1999/xlink" x="0px" y="0px"
	 viewBox="0 0 398.2 87.1" style="enable-background:new 0 0 398.2 87.1;" xml:space="preserve">
<style type="text/css">
	.st0{fill:#05293D;}
	.st1{fill:#EFE7BE;}
</style>
<g id="XMLID_22_">
	<g id="XMLID_50_">
		<path id="XMLID_20_" class="st0" d="M21.1,27.4c3,0,5.4-2.4,5.4-5.4c0-3-2.4-5.4-5.4-5.4c-3,0-5.4,2.4-5.4,5.4
			C15.7,25,18.1,27.4,21.1,27.4z"/>
		<path id="XMLID_19_" class="st0" d="M34.6,33.1c-0.7-4.5-6.4-4.2-6.4-4.2H14c0,0-6.2-0.3-6.5,4.7c0,0.1,0,0.2,0,0.3v16.8
			c0,1.3,1.1,2.4,2.4,2.4c1.4,0,2.4-1.1,2.4-2.4V35.3h2.3V76c0,1.3,1.1,2.4,2.4,2.4c1.3,0,2.4-1.1,2.4-2.4V52.8h3.2V76
			c0,1.3,1.1,2.4,2.4,2.4c1.3,0,2.4-1.1,2.4-2.4V35.3h2.3v15.3c0,1.3,1.1,2.4,2.4,2.4c1.3,0,2.4-1.1,2.4-2.4V33.8
			C34.7,33.6,34.7,33.3,34.6,33.1z"/>
	</g>
	<g id="XMLID_47_">
		<path id="XMLID_18_" class="st0" d="M58.7,27.4c3,0,5.4-2.4,5.4-5.4c0-3-2.4-5.4-5.4-5.4c-3,0-5.4,2.4-5.4,5.4
			C53.3,25,55.8,27.4,58.7,27.4z"/>
		<path id="XMLID_17_" class="st0" d="M72.2,33.1c-0.7-4.5-6.4-4.2-6.4-4.2H51.6c0,0-6.2-0.3-6.5,4.7c0,0.1,0,0.2,0,0.3v16.8
			c0,1.3,1.1,2.4,2.4,2.4c1.4,0,2.4-1.1,2.4-2.4V35.3h2.3V76c0,1.3,1.1,2.4,2.4,2.4c1.3,0,2.4-1.1,2.4-2.4V52.8h3.2V76
			c0,1.3,1.1,2.4,2.4,2.4c1.4,0,2.4-1.1,2.4-2.4V35.3h2.3v15.3c0,1.3,1.1,2.4,2.4,2.4c1.3,0,2.4-1.1,2.4-2.4V33.8
			C72.4,33.6,72.3,33.3,72.2,33.1z"/>
	</g>
	<g id="XMLID_44_">
		<path id="XMLID_16_" class="st0" d="M98.4,27.4c3,0,5.4-2.4,5.4-5.4c0-3-2.4-5.4-5.4-5.4c-3,0-5.4,2.4-5.4,5.4
			C93,25,95.4,27.4,98.4,27.4z"/>
		<path id="XMLID_15_" class="st0" d="M111.9,33.1c-0.7-4.5-6.4-4.2-6.4-4.2H91.2c0,0-6.2-0.3-6.5,4.7c0,0.1,0,0.2,0,0.3v16.8
			c0,1.3,1.1,2.4,2.5,2.4c1.3,0,2.4-1.1,2.4-2.4V35.3h2.3V76c0,1.3,1.1,2.4,2.4,2.4c1.3,0,2.4-1.1,2.4-2.4V52.8h3.2V76
			c0,1.3,1.1,2.4,2.4,2.4c1.4,0,2.5-1.1,2.5-2.4V35.3h2.3v15.3c0,1.3,1.1,2.4,2.5,2.4c1.3,0,2.4-1.1,2.4-2.4V33.8
			C112,33.6,111.9,33.3,111.9,33.1z"/>
	</g>
	<g id="XMLID_41_">
		<path id="XMLID_14_" class="st0" d="M138,27.4c3,0,5.4-2.4,5.4-5.4c0-3-2.4-5.4-5.4-5.4c-3,0-5.4,2.4-5.4,5.4
			C132.6,25,135,27.4,138,27.4z"/>
		<path id="XMLID_13_" class="st0" d="M151.5,33.1c-0.7-4.5-6.5-4.2-6.5-4.2h-14.2c0,0-6.2-0.3-6.5,4.7c0,0.1,0,0.2,0,0.3v16.8
			c0,1.3,1.1,2.4,2.4,2.4c1.3,0,2.4-1.1,2.4-2.4V35.3h2.3V76c0,1.3,1.1,2.4,2.4,2.4c1.3,0,2.4-1.1,2.4-2.4V52.8h3.2V76
			c0,1.3,1.1,2.4,2.4,2.4c1.4,0,2.5-1.1,2.5-2.4V35.3h2.3v15.3c0,1.3,1.1,2.4,2.5,2.4c1.3,0,2.4-1.1,2.4-2.4V33.8
			C151.6,33.6,151.6,33.3,151.5,33.1z"/>
	</g>
	<g id="XMLID_38_">
		<path id="XMLID_12_" class="st0" d="M177.6,27.4c3,0,5.4-2.4,5.4-5.4c0-3-2.4-5.4-5.4-5.4c-3,0-5.4,2.4-5.4,5.4
			C172.2,25,174.6,27.4,177.6,27.4z"/>
		<path id="XMLID_11_" class="st0" d="M191.1,33.1c-0.7-4.5-6.4-4.2-6.4-4.2h-14.2c0,0-6.2-0.3-6.5,4.7c0,0.1,0,0.2,0,0.3v16.8
			c0,1.3,1.1,2.4,2.5,2.4c1.3,0,2.4-1.1,2.4-2.4V35.3h2.3V76c0,1.3,1.1,2.4,2.4,2.4c1.3,0,2.4-1.1,2.4-2.4V52.8h3.2V76
			c0,1.3,1.1,2.4,2.4,2.4c1.4,0,2.4-1.1,2.4-2.4V35.3h2.3v15.3c0,1.3,1.1,2.4,2.4,2.4c1.3,0,2.4-1.1,2.4-2.4V33.8
			C191.2,33.6,191.2,33.3,191.1,33.1z"/>
	</g>
	<g id="XMLID_35_">
		<path id="XMLID_10_" class="st0" d="M217.2,27.4c3,0,5.4-2.4,5.4-5.4c0-3-2.4-5.4-5.4-5.4c-3,0-5.4,2.4-5.4,5.4
			C211.9,25,214.3,27.4,217.2,27.4z"/>
		<path id="XMLID_9_" class="st0" d="M230.7,33.1c-0.7-4.5-6.5-4.2-6.5-4.2h-14.2c0,0-6.2-0.3-6.5,4.7c0,0.1,0,0.2,0,0.3v16.8
			c0,1.3,1.1,2.4,2.4,2.4c1.3,0,2.4-1.1,2.4-2.4V35.3h2.3V76c0,1.3,1.1,2.4,2.4,2.4c1.3,0,2.4-1.1,2.4-2.4V52.8h3.2V76
			c0,1.3,1.1,2.4,2.4,2.4c1.4,0,2.4-1.1,2.4-2.4V35.3h2.3v15.3c0,1.3,1.1,2.4,2.4,2.4c1.3,0,2.4-1.1,2.4-2.4V33.8
			C230.9,33.6,230.8,33.3,230.7,33.1z"/>
	</g>
	<g id="XMLID_32_">
		<path id="XMLID_8_" class="st1" d="M256.9,27.4c3,0,5.4-2.4,5.4-5.4c0-3-2.4-5.4-5.4-5.4c-3,0-5.4,2.4-5.4,5.4
			C251.5,25,253.9,27.4,256.9,27.4z"/>
		<path id="XMLID_7_" class="st1" d="M270.4,33.1c-0.7-4.5-6.5-4.2-6.5-4.2h-14.2c0,0-6.2-0.3-6.5,4.7c0,0.1,0,0.2,0,0.3v16.8
			c0,1.3,1.1,2.4,2.5,2.4c1.3,0,2.4-1.1,2.4-2.4V35.3h2.3V76c0,1.3,1.1,2.4,2.4,2.4c1.3,0,2.4-1.1,2.4-2.4V52.8h3.2V76
			c0,1.3,1.1,2.4,2.4,2.4c1.4,0,2.5-1.1,2.5-2.4V35.3h2.3v15.3c0,1.3,1.1,2.4,2.5,2.4c1.3,0,2.4-1.1,2.4-2.4V33.8
			C270.5,33.6,270.5,33.3,270.4,33.1z"/>
	</g>
	<g id="XMLID_29_">
		<path id="XMLID_6_" class="st1" d="M296.5,27.4c3,0,5.4-2.4,5.4-5.4c0-3-2.4-5.4-5.4-5.4c-3,0-5.4,2.4-5.4,5.4
			C291.1,25,293.5,27.4,296.5,27.4z"/>
		<path id="XMLID_5_" class="st1" d="M310,33.1c-0.7-4.5-6.5-4.2-6.5-4.2h-14.2c0,0-6.2-0.3-6.5,4.7c0,0.1,0,0.2,0,0.3v16.8
			c0,1.3,1.1,2.4,2.4,2.4c1.3,0,2.4-1.1,2.4-2.4V35.3h2.3V76c0,1.3,1.1,2.4,2.4,2.4c1.3,0,2.4-1.1,2.4-2.4V52.8h3.2V76
			c0,1.3,1.1,2.4,2.4,2.4c1.4,0,2.5-1.1,2.5-2.4V35.3h2.3v15.3c0,1.3,1.1,2.4,2.4,2.4c1.3,0,2.4-1.1,2.4-2.4V33.8
			C310.1,33.6,310.1,33.3,310,33.1z"/>
	</g>
	<g id="XMLID_26_">
		<path id="XMLID_4_" class="st1" d="M336.1,27.4c3,0,5.4-2.4,5.4-5.4c0-3-2.4-5.4-5.4-5.4c-3,0-5.4,2.4-5.4,5.4
			C330.7,25,333.2,27.4,336.1,27.4z"/>
		<path id="XMLID_3_" class="st1" d="M349.6,33.1c-0.6-4.5-6.4-4.2-6.4-4.2H329c0,0-6.2-0.3-6.5,4.7c0,0.1,0,0.2,0,0.3v16.8
			c0,1.3,1.1,2.4,2.4,2.4c1.4,0,2.4-1.1,2.4-2.4V35.3h2.3V76c0,1.3,1.1,2.4,2.4,2.4c1.3,0,2.4-1.1,2.4-2.4V52.8h3.2V76
			c0,1.3,1.1,2.4,2.4,2.4s2.4-1.1,2.4-2.4V35.3h2.3v15.3c0,1.3,1.1,2.4,2.4,2.4c1.3,0,2.4-1.1,2.4-2.4V33.8
			C349.8,33.6,349.7,33.3,349.6,33.1z"/>
	</g>
	<g id="XMLID_23_">
		<path id="XMLID_2_" class="st1" d="M375.8,27.4c3,0,5.4-2.4,5.4-5.4c0-3-2.4-5.4-5.4-5.4c-3,0-5.4,2.4-5.4,5.4
			C370.4,25,372.8,27.4,375.8,27.4z"/>
		<path id="XMLID_1_" class="st1" d="M389.3,33.1c-0.7-4.5-6.5-4.2-6.5-4.2h-14.2c0,0-6.2-0.3-6.5,4.7c0,0.1,0,0.2,0,0.3v16.8
			c0,1.3,1.1,2.4,2.4,2.4c1.3,0,2.4-1.1,2.4-2.4V35.3h2.3V76c0,1.3,1.1,2.4,2.4,2.4c1.3,0,2.4-1.1,2.4-2.4V52.8h3.2V76
			c0,1.3,1.1,2.4,2.4,2.4s2.4-1.1,2.4-2.4V35.3h2.3v15.3c0,1.3,1.1,2.4,2.4,2.4c1.3,0,2.4-1.1,2.4-2.4V33.8
			C389.4,33.6,389.3,33.3,389.3,33.1z"/>
	</g>
</g>
</svg>
