<?xml version="1.0" encoding="utf-8"?>
<!-- Generator: Adobe Illustrator 19.0.0, SVG Export Plug-In . SVG Version: 6.00 Build 0)  -->
<svg version="1.1" id="Layer_1" xmlns="http://www.w3.org/2000/svg" xmlns:xlink="http://www.w3.org/1999/xlink" x="0px" y="0px"
	 viewBox="-241 333 128 128" style="enable-background:new -241 333 128 128;" xml:space="preserve">
<style type="text/css">
	.st0{fill:#98C800;}
	.st1{fill:#B4D600;}
	.st2{fill:url(#SVGID_1_);stroke:#C41500;stroke-miterlimit:10;}
	.st3{fill:#FFC7A9;}
	.st4{fill:url(#SVGID_2_);}
	.st5{opacity:0.2;fill:#FFFFFF;enable-background:new    ;}
	.st6{fill:#FFA200;}
	.st7{fill:none;stroke:#C41500;stroke-miterlimit:10;}
</style>
<g>
	<path class="st0" d="M-165.1,349.5L-151,334c0,0,6.7,13.4,0,28.2"/>
	<path class="st1" d="M-167.1,352.1l-4-17.8c0,0,13.1,9.7,13.4,24.2"/>
	<path class="st0" d="M-138.2,366.9l8.7-19.2c0,0-15.1-1-25.9,11.1"/>
	<path class="st1" d="M-139.9,370l18.1-3.4c0,0-14.5-8.1-27.6-2.7"/>
	
		<radialGradient id="SVGID_1_" cx="-362.8237" cy="665.5129" r="56.0554" gradientTransform="matrix(0.9794 -0.2019 0.2019 0.9794 41.8818 -325.4732)" gradientUnits="userSpaceOnUse">
		<stop  offset="4.901960e-03" style="stop-color:#FF9D73"/>
		<stop  offset="0.2505" style="stop-color:#FF986F"/>
		<stop  offset="0.5396" style="stop-color:#FF8A64"/>
		<stop  offset="0.8495" style="stop-color:#FF7251"/>
		<stop  offset="1" style="stop-color:#FF6446"/>
	</radialGradient>
	<path class="st2" d="M-152.3,357.5c0,0-21.5-15.1-38.3-12.4c-16.8,2.4-32.9,17.8-38,36.6c-5,18.8-6,58.1,10.1,71.6
		c15.8,13.1,49.7,3.4,67.6-8.1c17.8-11.1,32.9-35.3,27.6-54.1C-128.8,372-145.2,361.2-152.3,357.5z"/>
	<g>
		<g>
			
				<ellipse transform="matrix(-0.8454 -0.5342 0.5342 -0.8454 -547.3732 640.6209)" class="st3" cx="-181" cy="399.5" rx="11.8" ry="43"/>
			
				<radialGradient id="SVGID_2_" cx="-457.1646" cy="21.1674" r="26.1668" gradientTransform="matrix(1.0281 0.6497 -0.5342 0.8453 300.3186 678.4999)" gradientUnits="userSpaceOnUse">
				<stop  offset="4.901960e-03" style="stop-color:#FF9D73"/>
				<stop  offset="0.2505" style="stop-color:#FF986F"/>
				<stop  offset="0.5396" style="stop-color:#FF8A64"/>
				<stop  offset="0.8495" style="stop-color:#FF7251"/>
				<stop  offset="1" style="stop-color:#FF6446"/>
			</radialGradient>
			<path class="st4" d="M-172.8,404.6c-10.8,16.8-22.9,28.2-27.6,25.2c-4.7-3,0.3-18.8,11.1-36c10.8-16.8,22.9-28.2,27.6-25.2
				C-157,372-162,387.8-172.8,404.6z"/>
			
				<ellipse transform="matrix(-0.8453 -0.5342 0.5342 -0.8453 -547.2938 640.5339)" class="st3" cx="-180.9" cy="399.5" rx="7.7" ry="28.2"/>
			
				<ellipse transform="matrix(-0.8453 -0.5343 0.5343 -0.8453 -547.2527 640.414)" class="st5" cx="-180.9" cy="399.4" rx="5.7" ry="20.8"/>
		</g>
		<path class="st3" d="M-163.1,365.6l3.7-11.4c0,0,8.1,4.4,11.4,7.1L-158,370"/>
	</g>
	<polyline class="st6" points="-183.9,344.8 -185.2,362.9 -188.9,344.1 	"/>
	<polyline class="st6" points="-208.1,351.5 -200.7,369 -213.5,356.2 	"/>
	<polyline class="st6" points="-224.2,370 -208.4,383.4 -227.2,376.7 	"/>
	<polyline class="st6" points="-231.6,395.2 -209.1,395.5 -231.6,402.9 	"/>
	<polyline class="st6" points="-232.3,420 -218.8,413 -230.3,429.5 	"/>
	<polyline class="st6" points="-227.2,441.6 -222.2,439.5 -224.6,445.3 	"/>
	<polyline class="st6" points="-205.4,458.7 -204.1,453.3 -201,459 	"/>
	<polyline class="st6" points="-127.1,382.1 -143.2,390.5 -124.7,386.1 	"/>
	<polyline class="st6" points="-123.7,406.9 -142.9,406.9 -125.7,413.7 	"/>
	<polyline class="st6" points="-134.1,429.1 -153,420 -139.5,434.5 	"/>
	<polyline class="st6" points="-154,447.6 -163.1,427.1 -161,451 	"/>
	<polyline class="st6" points="-177.5,456 -176.2,440.9 -186.6,458 	"/>
	<path class="st7" d="M-152.3,357.5c0,0-21.5-15.1-38.3-12.4c-16.8,2.4-32.9,17.8-38,36.6c-5,18.8-6,58.1,10.1,71.6
		c15.8,13.1,49.7,3.4,67.6-8.1c17.8-11.1,32.9-35.3,27.6-54.1C-128.8,372-145.2,361.2-152.3,357.5z"/>
</g>
</svg>
