<?xml version="1.0" encoding="utf-8"?>
<!-- Generator: Adobe Illustrator 19.0.0, SVG Export Plug-In . SVG Version: 6.00 Build 0)  -->
<svg version="1.1" id="Layer_1" xmlns="http://www.w3.org/2000/svg" xmlns:xlink="http://www.w3.org/1999/xlink" x="0px" y="0px"
	 viewBox="-575 383.7 89.2 81.3" style="enable-background:new -575 383.7 89.2 81.3;" xml:space="preserve">
<style type="text/css">
	.st0{fill:#8A481F;}
	.st1{opacity:0.1;}
	.st2{fill:#35354F;}
	.st3{fill:#FBD6BF;}
	.st4{fill:#694D3C;}
	.st5{fill:#E3DBC1;}
	.st6{fill:#9393C2;}
	.st7{fill:#FFFFFF;}
	.st8{fill:#27424D;}
	.st9{fill:#1D2E36;}
	.st10{fill:#ADA793;}
	.st11{fill:#DBB399;}
	.st12{fill:#472E1F;}
	.st13{fill:#E36C59;}
	.st14{fill:#E43718;}
	.st15{fill:#FFAEAB;}
	.st16{fill:#60608F;}
</style>
<path class="st0" d="M-540.6,412.8v-18.9c0-3,2.4-5.4,5.4-5.4h9.5c3,0,5.4,2.4,5.4,5.4v18.9H-540.6z"/>
<path class="st1" d="M-520.2,397.9c-0.2-0.1-0.4-0.1-0.6-0.1v-2.4c0-2.6-2.1-4.8-4.8-4.8h-9.5c-2.6,0-4.8,2.1-4.8,4.8v2.4
	c-0.2,0-0.4,0-0.6,0.1v4.6c0.2,0.1,0.4,0.1,0.6,0.1v2.4c0,2.6,2.1,4.8,4.8,4.8h9.5c2.6,0,4.8-2.1,4.8-4.8v-2.4c0.2,0,0.4,0,0.6-0.1
	V397.9z"/>
<rect x="-533" y="409.6" class="st2" width="5.2" height="2.1"/>
<g>
	<path class="st3" d="M-534.2,438.2c-0.8,0-1.4,0.7-1.4,1.7v17.9c0,0.9,0.6,1.7,1.4,1.7c0.8,0,1.4-0.7,1.4-1.7v-17.9
		C-532.7,439-533.4,438.2-534.2,438.2z"/>
	<path class="st1" d="M-534.2,459.5c0.8,0,1.4-0.7,1.4-1.7v-17.9c0-0.9-0.6-1.7-1.4-1.7V459.5z"/>
	<path class="st3" d="M-526.6,438.2c-0.8,0-1.4,0.7-1.4,1.7v17.9c0,0.9,0.6,1.7,1.4,1.7c0.8,0,1.4-0.7,1.4-1.7v-17.9
		C-525.2,439-525.8,438.2-526.6,438.2z"/>
	<path class="st1" d="M-526.6,459.5c0.8,0,1.4-0.7,1.4-1.7v-17.9c0-0.9-0.6-1.7-1.4-1.7V459.5z"/>
</g>
<g>
	<path class="st4" d="M-532.7,457.5h-3.8c-3.4,0-4.8,2.3-4.8,3.5v0.1h10.1v-0.6C-531.1,459.3-531.5,457.5-532.7,457.5z"/>
	<path class="st4" d="M-524.4,457.5h-3.8c-1.2,0-1.5,1.8-1.5,3v0.6h10.1V461C-519.6,459.8-521,457.5-524.4,457.5z"/>
</g>
<g>
	<path class="st5" d="M-541.2,461v0.1h10.1v-0.6h-10C-541.2,460.6-541.2,460.8-541.2,461z"/>
	<path class="st5" d="M-519.7,460.5h-10v0.6h10.1V461C-519.6,460.8-519.6,460.6-519.7,460.5z"/>
</g>
<path class="st6" d="M-536.6,431.4l-0.8-16c-0.2-3.4,2-1.8,4.6-1.8h4.7c2.6,0,4.8-1.6,4.6,1.8l-0.8,16H-536.6z"/>
<path class="st7" d="M-526.9,420.9c0.6-0.4,0.9-1.2,0.9-1.9c0-1.4-1.2-2.6-2.6-2.6c-0.7,0-1.3,0.3-1.8,0.7c-0.5-0.5-1.1-0.7-1.8-0.7
	c-1.4,0-2.6,1.2-2.6,2.6c0,0.8,0.4,1.6,1,2.1c0.8,0.6,3.4,2.3,3.4,2.3S-527.7,421.6-526.9,420.9z"/>
<polygon class="st8" points="-522.8,447.3 -524.2,431.4 -536.6,431.4 -538,447.3 "/>
<polygon class="st9" points="-524.1,432.4 -524.2,431.4 -536.6,431.4 -536.7,432.4 "/>
<g>
	<path class="st10" d="M-533.4,456.6h-1.6c-0.5,0-0.9,0.4-0.9,0.9h3.4C-532.5,457-532.9,456.6-533.4,456.6z"/>
	<path class="st10" d="M-525.8,456.6h-1.6c-0.5,0-0.9,0.4-0.9,0.9h3.4C-524.9,457-525.3,456.6-525.8,456.6z"/>
</g>
<path class="st3" d="M-521.8,414.9h-0.9c-0.2,0-0.4,0.2-0.4,0.4v18.4c0,0.2,0.2,0.4,0.4,0.4h0.9c0.2,0,0.4-0.2,0.4-0.4v-18.4
	C-521.3,415.1-521.5,414.9-521.8,414.9z"/>
<path class="st3" d="M-520.7,434.9c0-0.8-0.7-1.5-1.5-1.5c-0.4,0-0.8,0.2-1.1,0.5c0,0,0,0,0,0h-0.8c-0.2,0-0.4,0.2-0.4,0.4
	c0,0.2,0.2,0.4,0.4,0.4h0.4c0,0.1,0,0.1,0,0.2c0,0.3,0.1,0.5,0.2,0.8v2c0,0.2,0.2,0.3,0.3,0.3s0.3-0.2,0.3-0.3v-1.4c0,0,0,0,0,0
	c0,0,0,0,0,0v1.5c0,0.2,0.2,0.3,0.3,0.3c0.2,0,0.3-0.2,0.3-0.3v-1.4c0,0,0,0,0,0v1.2c0,0.2,0.2,0.3,0.3,0.3s0.3-0.2,0.3-0.3v-1.4
	c0,0,0,0,0,0v1c0,0.2,0.2,0.3,0.3,0.3c0.2,0,0.3-0.2,0.3-0.3V435C-520.7,435-520.7,435-520.7,434.9
	C-520.7,434.9-520.7,434.9-520.7,434.9z"/>
<path class="st11" d="M-528.5,410.7c0,1-0.8,1.9-1.9,1.9l0,0c-1,0-1.9-0.8-1.9-1.9v-5.2c0-1,0.8-1.9,1.9-1.9l0,0
	c1,0,1.9,0.8,1.9,1.9V410.7z"/>
<path class="st1" d="M-528.5,409.3v-3.8c0-1-0.8-1.9-1.9-1.9c-1,0-1.9,0.8-1.9,1.9v3.8H-528.5z"/>
<path class="st3" d="M-520.9,396.5v-2.4c0-2.6-2.1-4.8-4.8-4.8h-9.5c-2.6,0-4.8,2.1-4.8,4.8v2.4c-1.3,0-2.4,1.1-2.4,2.4
	c0,1.3,1.1,2.4,2.4,2.4v2.4c0,2.6,2.1,4.8,4.8,4.8h9.5c2.6,0,4.8-2.1,4.8-4.8v-2.4c1.3,0,2.4-1.1,2.4-2.4
	C-518.5,397.6-519.6,396.5-520.9,396.5z"/>
<path class="st1" d="M-520.2,396.6c-0.2-0.1-0.4-0.1-0.6-0.1v-2.4c0-2.6-2.1-4.8-4.8-4.8h-9.5c-2.6,0-4.8,2.1-4.8,4.8v2.4
	c-0.2,0-0.4,0-0.6,0.1v2.4c3.7,1.2,9-1,9.9-4.6c2.7,2.4,6.4,3.9,10.5,4V396.6z"/>
<g>
	<path class="st12" d="M-525.2,398v-0.5c0.8-0.1,0.8-0.7,0.8-0.7c-0.4,0.2-0.7,0.3-0.8,0.2c0-0.5-0.5-0.9-1-0.9c-0.6,0-1,0.4-1,1
		v2.2c0,0.6,0.4,1,1,1c0.6,0,1-0.4,1-1v-1c0.6-0.1,0.6-0.6,0.6-0.6C-524.8,397.9-525,398-525.2,398z"/>
</g>
<path class="st12" d="M-534.7,396.1c-0.5,0-0.9,0.4-1,0.9c-0.2,0.1-0.4,0.1-0.9-0.2c0,0,0.1,0.6,0.9,0.7v0.5c-0.1,0-0.4,0-0.7-0.2
	c0,0,0.1,0.5,0.7,0.6v1c0,0.6,0.4,1,1,1s1-0.4,1-1v-2.2C-533.7,396.5-534.1,396.1-534.7,396.1z"/>
<path class="st0" d="M-525.7,387.6h-9.5c-3,0-5.4,2.4-5.4,5.4v5c3.7,1.2,9-1,9.9-4.6c2.7,2.4,6.4,3.9,10.5,4v-4.5
	C-520.2,390.1-522.7,387.6-525.7,387.6z"/>
<g>
	<polygon class="st13" points="-533,390.8 -536,392.4 -537.1,391.4 -535.5,388.3 	"/>
	<polygon class="st13" points="-537.7,395.5 -536,392.4 -537.1,391.4 -540.2,393 	"/>
	<circle class="st14" cx="-536.6" cy="391.9" r="1.1"/>
</g>
<g>
	<circle class="st14" cx="-520.3" cy="400.5" r="0.3"/>
	<circle class="st14" cx="-540.6" cy="400.5" r="0.3"/>
</g>
<path class="st15" d="M-529.6,402.1c0,0.4-0.3,0.8-0.8,0.8s-0.8-0.3-0.8-0.8c0-0.4,0.8-2.2,0.8-2.2S-529.6,401.7-529.6,402.1z"/>
<path class="st7" d="M-528.5,405c0,1.1-0.9,1.9-1.9,1.9c-1.1,0-1.9-0.9-1.9-1.9H-528.5z"/>
<g>
	<circle class="st15" cx="-537.2" cy="404" r="1.7"/>
	<circle class="st15" cx="-523.6" cy="404" r="1.7"/>
</g>
<path class="st3" d="M-539.1,414.9h0.9c0.2,0,0.4,0.2,0.4,0.4v18.4c0,0.2-0.2,0.4-0.4,0.4h-0.9c-0.2,0-0.4-0.2-0.4-0.4v-18.4
	C-539.6,415.1-539.4,414.9-539.1,414.9z"/>
<path class="st3" d="M-540,434.8c0-0.8,0.7-1.5,1.5-1.5c0.4,0,0.8,0.2,1.1,0.5c0,0,0,0,0,0h0.8c0.2,0,0.4,0.2,0.4,0.4
	c0,0.2-0.2,0.4-0.4,0.4h-0.4c0,0.1,0,0.1,0,0.2c0,0.3-0.1,0.5-0.2,0.8v2c0,0.2-0.2,0.3-0.3,0.3c-0.2,0-0.3-0.2-0.3-0.3v-1.4
	c0,0,0,0,0,0c0,0,0,0,0,0v1.5c0,0.2-0.2,0.3-0.3,0.3c-0.2,0-0.3-0.2-0.3-0.3v-1.4c0,0,0,0,0,0v1.2c0,0.2-0.2,0.3-0.3,0.3
	c-0.2,0-0.3-0.2-0.3-0.3v-1.4c0,0,0,0,0,0v1c0,0.2-0.2,0.3-0.3,0.3c-0.2,0-0.3-0.2-0.3-0.3V435C-540,434.9-540,434.9-540,434.8
	C-540,434.9-540,434.9-540,434.8z"/>
<path class="st6" d="M-521.2,414.7c0-2.6-1.1-3.2-4-3.2h-10.5c-2.9,0-4,0.6-4,3.2l-0.1,1.8l2,1l0.1-1.7c0-0.2,0.2-0.4,0.4-0.4h13.7
	c0.2,0,0.4,0.2,0.4,0.4l0.1,1.7l2-1L-521.2,414.7z"/>
<polygon class="st16" points="-531.2,413.3 -533,411.5 -533,409.6 -530.6,411.4 "/>
<polygon class="st16" points="-529.6,413.3 -527.8,411.5 -527.8,409.6 -530,411.4 "/>
</svg>
