<?xml version="1.0" encoding="utf-8"?>
<!-- Generator: Adobe Illustrator 19.0.0, SVG Export Plug-In . SVG Version: 6.00 Build 0)  -->
<svg version="1.1" id="Layer_1" xmlns="http://www.w3.org/2000/svg" xmlns:xlink="http://www.w3.org/1999/xlink" x="0px" y="0px"
	 viewBox="-594 360.7 89.2 81.3" style="enable-background:new -594 360.7 89.2 81.3;" xml:space="preserve">
<style type="text/css">
	.st0{fill:#FBD6BF;}
	.st1{fill:#3B6940;}
	.st2{fill:#912310;}
	.st3{fill:#694D3C;}
	.st4{fill:#E3DBC1;}
	.st5{fill:#E36C59;}
	.st6{fill:#27424D;}
	.st7{fill:#1D2E36;}
	.st8{fill:#ADA793;}
	.st9{fill:#DBB399;}
	.st10{opacity:0.1;}
	.st11{fill:#9C6543;}
	.st12{fill:#B58465;}
	.st13{fill:#472E1F;}
	.st14{fill:#FFAEAB;}
	.st15{fill:#FFFFFF;}
	.st16{fill:#508F58;}
	.st17{fill:#E43718;}
</style>
<path class="st0" d="M-538.4,394.4h-0.8c-0.2,0-0.4,0.2-0.4,0.4v16.7c0,0.2,0.2,0.4,0.4,0.4h0.8c0.2,0,0.4-0.2,0.4-0.4v-16.7
	C-538,394.6-538.2,394.4-538.4,394.4z"/>
<path class="st0" d="M-537.4,412.5c0-0.8-0.6-1.4-1.4-1.4c-0.4,0-0.8,0.2-1,0.4c0,0,0,0,0,0h-0.8c-0.2,0-0.4,0.2-0.4,0.4
	c0,0.2,0.2,0.4,0.4,0.4h0.4c0,0.1,0,0.1,0,0.2c0,0.3,0.1,0.5,0.2,0.7v1.9c0,0.2,0.1,0.3,0.3,0.3c0.2,0,0.3-0.1,0.3-0.3v-1.3
	c0,0,0,0,0,0c0,0,0,0,0,0v1.4c0,0.2,0.1,0.3,0.3,0.3c0.2,0,0.3-0.1,0.3-0.3v-1.3c0,0,0,0,0,0v1.1c0,0.2,0.1,0.3,0.3,0.3
	c0.2,0,0.3-0.1,0.3-0.3v-1.3c0,0,0,0,0,0v1c0,0.2,0.1,0.3,0.3,0.3s0.3-0.1,0.3-0.3v-2.1C-537.4,412.6-537.4,412.6-537.4,412.5
	C-537.4,412.5-537.4,412.5-537.4,412.5z"/>
<path class="st1" d="M-539.6,404.3c0,3-2.4,5.5-5.5,5.5h-4.9c-3,0-5.5-2.4-5.5-5.5v-11.8c0-3,2.4-5.5,5.5-5.5h4.9
	c3,0,5.5,2.4,5.5,5.5V404.3z"/>
<path class="st0" d="M-557.1,393.7h0.9c0.2,0,0.4,0.2,0.4,0.4v17.4c0,0.2-0.2,0.4-0.4,0.4h-0.9c-0.2,0-0.4-0.2-0.4-0.4v-17.4
	C-557.5,393.9-557.3,393.7-557.1,393.7z"/>
<path class="st0" d="M-558.1,412.5c0-0.8,0.6-1.4,1.4-1.4c0.4,0,0.8,0.2,1,0.4c0,0,0,0,0,0h0.8c0.2,0,0.4,0.2,0.4,0.4
	c0,0.2-0.2,0.4-0.4,0.4h-0.4c0,0.1,0,0.1,0,0.2c0,0.3-0.1,0.5-0.2,0.7v1.9c0,0.2-0.1,0.3-0.3,0.3c-0.2,0-0.3-0.1-0.3-0.3v-1.3
	c0,0,0,0,0,0c0,0,0,0,0,0v1.4c0,0.2-0.1,0.3-0.3,0.3c-0.2,0-0.3-0.1-0.3-0.3v-1.3c0,0,0,0,0,0v1.1c0,0.2-0.1,0.3-0.3,0.3
	c-0.2,0-0.3-0.1-0.3-0.3v-1.3c0,0,0,0,0,0v1c0,0.2-0.1,0.3-0.3,0.3s-0.3-0.1-0.3-0.3v-2.1C-558.1,412.6-558.1,412.6-558.1,412.5
	C-558.1,412.5-558.1,412.5-558.1,412.5z"/>
<rect x="-550.4" y="389.3" class="st2" width="4.9" height="1.9"/>
<g>
	<path class="st0" d="M-551.4,416.3c-0.8,0-1.4,0.7-1.4,1.6v16.9c0,0.9,0.6,1.6,1.4,1.6c0.7,0,1.4-0.7,1.4-1.6v-16.9
		C-550.1,417-550.7,416.3-551.4,416.3z"/>
	<path class="st0" d="M-544.3,416.3c-0.8,0-1.4,0.7-1.4,1.6v16.9c0,0.9,0.6,1.6,1.4,1.6c0.8,0,1.4-0.7,1.4-1.6v-16.9
		C-543,417-543.6,416.3-544.3,416.3z"/>
</g>
<g>
	<path class="st3" d="M-550,434.5h-3.6c-3.2,0-4.5,2.1-4.5,3.3v0.1h9.5v-0.5C-548.6,436.2-548.9,434.5-550,434.5z"/>
	<path class="st3" d="M-542.2,434.5h-3.6c-1.1,0-1.4,1.7-1.4,2.9v0.5h9.5v-0.1C-537.7,436.6-539,434.5-542.2,434.5z"/>
</g>
<g>
	<path class="st4" d="M-558.1,437.8v0.1h9.5v-0.6h-9.4C-558.1,437.5-558.1,437.6-558.1,437.8z"/>
	<path class="st4" d="M-537.8,437.3h-9.4v0.6h9.5v-0.1C-537.7,437.6-537.7,437.5-537.8,437.3z"/>
</g>
<path class="st5" d="M-553.7,409.8l-0.7-15.1c-0.2-3.2,1.9-1.7,4.4-1.7h4.5c2.4,0,4.5-1.5,4.4,1.7l-0.7,15.1H-553.7z"/>
<path class="st6" d="M-548.9,417.6c0-0.6,0.4-1.1,1-1.1c0.5,0,1,0.5,1,1.1l0.1,15.1h5.2l-0.4-22.9h-11.7l-0.4,22.9h5.2L-548.9,417.6
	z"/>
<path class="st7" d="M-542,409.8h-1.7c-0.5,0.4-0.9,1.1-0.9,1.8c0,1.2,1,2.3,2.2,2.3c0.2,0,0.3,0,0.5-0.1L-542,409.8z"/>
<path class="st7" d="M-553.8,413.8c0.2,0,0.3,0.1,0.5,0.1c1.2,0,2.2-1,2.2-2.3c0-0.7-0.3-1.4-0.9-1.8h-1.7L-553.8,413.8z"/>
<path class="st7" d="M-548.7,411v3.8c0,0.4,0.3,0.8,0.8,0.8c0.4,0,0.8-0.3,0.8-0.8V411H-548.7z"/>
<polygon class="st7" points="-541.9,411 -542,409.8 -553.8,409.8 -553.8,411 "/>
<g>
	<path class="st8" d="M-550.7,433.6h-1.5c-0.5,0-0.9,0.4-0.9,0.9h3.2C-549.8,434-550.2,433.6-550.7,433.6z"/>
	<path class="st8" d="M-543.6,433.6h-1.5c-0.5,0-0.9,0.4-0.9,0.9h3.2C-542.7,434-543.1,433.6-543.6,433.6z"/>
</g>
<path class="st9" d="M-546.1,390.4c0,1-0.8,1.8-1.8,1.8l0,0c-1,0-1.8-0.8-1.8-1.8v-4.9c0-1,0.8-1.8,1.8-1.8l0,0c1,0,1.8,0.8,1.8,1.8
	V390.4z"/>
<path class="st10" d="M-546.1,388.6v-3.1c0-1-0.8-1.8-1.8-1.8c-1,0-1.8,0.8-1.8,1.8v3.1H-546.1z"/>
<path class="st0" d="M-538.6,376.3V374c0-2.6-2.1-4.6-4.6-4.6h-9.3c-2.6,0-4.6,2.1-4.6,4.6v2.3c-1.3,0-2.3,1-2.3,2.3
	c0,1.3,1,2.3,2.3,2.3v2.3c0,2.6,2.1,4.6,4.6,4.6h9.3c2.6,0,4.6-2.1,4.6-4.6v-2.3c1.3,0,2.3-1,2.3-2.3
	C-536.3,377.3-537.3,376.3-538.6,376.3z"/>
<path class="st10" d="M-557.2,374v0.4c1.1,0.3,2.3,0.5,3.8,0.6c3.3,0.1,7.4-0.3,12.1-2.8c0.9,2.7,1,4.7,2.3,6.6l0.7-1.5
	c0,0,0.1-0.3,0.1-0.9c-0.2,0-0.3,0-0.5,0V374c0-2.6-2.1-4.6-4.6-4.6h-9.3C-555.1,369.3-557.2,371.4-557.2,374z"/>
<path class="st11" d="M-557.1,376.7v-3.1c0-0.2,0.2-0.4,0.4-0.4l0,0c0.2,0,0.4,0.2,0.4,0.4v4.2L-557.1,376.7z"/>
<path class="st12" d="M-548.1,364.8c-3,0.1-6,0-8.8,4.1c-1.2,1.8-3.7,2-5.6,1c0,0,2.2,3.9,9.1,4.2c3.3,0.1,7.4-0.3,12.1-2.8
	c0.9,2.7,1,4.7,2.3,6.6l0.7-1.5c0,0,1.3-6-1.4-8.6C-541.9,365.5-545.4,364.7-548.1,364.8z"/>
<g>
	<path class="st13" d="M-552,375.9c-0.5,0-1,0.4-1,1v2.1c0,0.5,0.4,1,1,1c0.5,0,1-0.4,1-1v-2.1C-551,376.3-551.5,375.9-552,375.9z"
		/>
	<path class="st13" d="M-543.8,375.9c-0.5,0-1,0.4-1,1v2.1c0,0.5,0.4,1,1,1c0.5,0,1-0.4,1-1v-2.1
		C-542.8,376.3-543.2,375.9-543.8,375.9z"/>
</g>
<path class="st14" d="M-546.9,381.5c0,0.5-0.4,1-1,1c-0.5,0-1-0.4-1-1c0-0.5,1-2.8,1-2.8S-546.9,380.9-546.9,381.5z"/>
<path class="st15" d="M-546,384.6c0,1-0.8,1.9-1.9,1.9c-1,0-1.9-0.8-1.9-1.9H-546z"/>
<g>
	<circle class="st14" cx="-554.5" cy="382.4" r="1.6"/>
	<circle class="st14" cx="-541.3" cy="382.4" r="1.6"/>
</g>
<path class="st11" d="M-552,374.7c0.1,0.2,0,0.4-0.2,0.5l-1.2,0.5c-0.2,0.1-0.4,0-0.5-0.2l0,0c-0.1-0.2,0-0.4,0.2-0.5l1.2-0.5
	C-552.3,374.4-552.1,374.5-552,374.7L-552,374.7z"/>
<path class="st11" d="M-542.8,374.5c0.1-0.2,0-0.4-0.2-0.5l-1.2-0.5c-0.2-0.1-0.4,0-0.5,0.2l0,0c-0.1,0.2,0,0.4,0.2,0.5l1.2,0.5
	C-543.1,374.8-542.9,374.7-542.8,374.5L-542.8,374.5z"/>
<path class="st5" d="M-537.8,394.8c0-2.8-1.2-3.5-4.3-3.5h-11.2c-3.1,0-4.3,0.7-4.3,3.5l-0.1,1.9l2.1,1.1l0.1-1.9
	c0-0.3,0.2-0.5,0.4-0.5h14.6c0.2,0,0.4,0.2,0.4,0.5l0.1,1.9l2.1-1.1L-537.8,394.8z"/>
<g>
	<path class="st16" d="M-554.3,388.7c-0.6,0-1.1,0.5-1.1,1.1v13.1c0,0.6,0.5,1.1,1.1,1.1c0.6,0,1.1-0.5,1.1-1.1v-13.1
		C-553.2,389.2-553.7,388.7-554.3,388.7z"/>
	<path class="st10" d="M-554.3,404c0.6,0,1.1-0.5,1.1-1.1v-13.1c0-0.6-0.5-1.1-1.1-1.1V404z"/>
	<path class="st16" d="M-541.6,388.7c-0.6,0-1.1,0.5-1.1,1.1v13.1c0,0.6,0.5,1.1,1.1,1.1c0.6,0,1.1-0.5,1.1-1.1v-13.1
		C-540.5,389.2-541,388.7-541.6,388.7z"/>
	<path class="st10" d="M-541.6,404c0.6,0,1.1-0.5,1.1-1.1v-13.1c0-0.6-0.5-1.1-1.1-1.1V404z"/>
</g>
<polygon class="st17" points="-548.7,392.8 -550.4,391.1 -550.4,389.3 -548.1,391 "/>
<polygon class="st17" points="-547.2,392.8 -545.4,391.1 -545.4,389.3 -547.5,391 "/>
</svg>
