<?xml version="1.0" encoding="utf-8"?>
<!-- Generator: Adobe Illustrator 19.0.0, SVG Export Plug-In . SVG Version: 6.00 Build 0)  -->
<svg version="1.1" id="Layer_1" xmlns="http://www.w3.org/2000/svg" xmlns:xlink="http://www.w3.org/1999/xlink" x="0px" y="0px"
	 viewBox="0 0 1280 800" style="enable-background:new 0 0 1280 800;" xml:space="preserve">
<style type="text/css">
	.st0{fill:#24313B;}
	.st1{fill-rule:evenodd;clip-rule:evenodd;fill:#EBE7DE;}
</style>
<g id="XMLID_137_">
	<path id="XMLID_138_" class="st0" d="M40.5,639.7c-1.5,1.3-2.6,3-3.4,5.3l-6.8,43.5l22,3.4l4.8-30.5c0.7-4.2,2.6-7.6,6-10.1
		c3.3-2.5,7-3.5,11.1-2.8l14.7,2.3l-9.5,60.9l-51.3-8l-29.3-4.6l9.5-60.9c0.9-4,2.4-7.8,4.5-11.2c2.1-3.5,4.6-6.6,7.5-9.4
		c0.3-0.4,0.7-0.7,1.1-1.1c0.4-0.3,0.8-0.7,1.1-1.1l45-38.2c2.2-1.9,3.4-4.1,3.8-6.8l3-19.4c0.5-3.2-0.2-6.1-2-8.7
		c-1.8-2.6-4.3-4.1-7.3-4.6c-2.9-0.5-5.7,0.3-8.2,2.2c-2.5,1.9-4,4.5-4.5,7.7l-3,18.9c-0.7,4.2-2.7,7.6-6,10.1
		c-3.3,2.5-7,3.5-11.1,2.8l-14.7-2.3l3-19.2c0.9-5.8,2.8-11.1,5.7-15.8c2.9-4.7,6.4-8.7,10.7-11.9c4.2-3.2,8.9-5.5,14.2-6.9
		c5.2-1.4,10.6-1.7,16.2-0.8c4.9,0.8,9.4,2.4,13.5,4.8c4.1,2.4,7.7,5.4,10.7,8.9c3,3.5,5.4,7.5,7.1,12c1.7,4.5,2.7,9.2,2.9,14.2
		c0.1,3-0.2,6.3-1,10c-0.8,3.7-1.9,7.4-3.4,11.1c-1.5,3.7-3.3,7.1-5.2,10.2c-2,3.1-4.1,5.6-6.2,7.5L40.5,639.7z"/>
</g>
<g id="XMLID_134_">
	<path id="XMLID_135_" class="st0" d="M1116.8,602.5h143.4l0.2-12.3h11.8V627h-167.4v-36.8h11.8L1116.8,602.5z"/>
</g>
<g id="XMLID_131_">
	<path id="XMLID_132_" class="st0" d="M256.7,60.2c1.1,0,2.1,0.4,2.9,1.3c0.8,0.9,1.2,1.8,1.2,3v4.3h-15.5l5.6,10.2
		c0.6,1,0.8,2,0.5,3.2c-0.3,1.1-0.9,2-1.9,2.7l-3.6,2.1L238.1,73l-5.6,10.2c-0.5,1.1-1.4,1.7-2.5,2c-1.1,0.3-2.2,0.1-3.2-0.4
		l-3.5-2.2l7.7-13.9h-11.4c-1.1,0-2.1-0.4-2.9-1.3c-0.8-0.9-1.2-1.8-1.2-3v-4.3h15.5l-5.6-10.1c-0.6-1.1-0.8-2.1-0.5-3.3
		c0.3-1.1,0.9-2,1.9-2.7l3.6-2.1l7.6,13.9l5.7-10.1c0.5-1.1,1.4-1.7,2.5-2.1c1.1-0.3,2.1-0.2,3.2,0.4l3.5,2.2l-7.7,13.9H256.7z"/>
</g>
<g id="XMLID_127_">
	<path id="XMLID_128_" class="st0" d="M636.8,697.5h-12.5l-2.1-86.8h18.6L636.8,697.5z M637.3,711.2c0,3.7-2.9,6.5-6.3,6.5
		c-3.5,0-6.3-2.8-6.3-6.5c0-3.6,2.9-6.5,6.3-6.5C634.4,704.7,637.3,707.7,637.3,711.2z"/>
</g>
<g id="XMLID_123_">
	<path id="XMLID_124_" class="st0" d="M325.2,570.6c4.1,10.2,6.1,20.9,6.1,31.9c0,1.6-0.1,3.2-0.2,4.7c-0.1,1.5-0.2,3.1-0.2,4.7
		c-1.1,12.2-4.3,24.2-9.6,36.1c-5.3,11.9-12,22.3-19.9,31.2c-9.3,10.8-20.7,19.9-34.2,27.3c-13.5,7.4-27.4,11.7-41.5,13.1
		c-1.6,0-3.1,0.1-4.6,0.2c-1.6,0.1-3.1,0.2-4.7,0.2c-8.9,0-17.5-1.3-25.9-4c-8.4-2.6-16.3-7.1-23.6-13.3c-9.3-8.1-16-17.1-20.1-27.3
		c-4.1-10.1-6.1-20.7-6.1-31.8c0-1.6,0.1-3.2,0.2-4.7c0.1-1.5,0.2-3,0.2-4.7c1.1-12.2,4.3-24.2,9.6-36.1c5.3-11.8,12-22.3,19.9-31.2
		c14.6-16.8,29.3-33.6,44-50.4c14.7-16.8,29.5-33.6,44.4-50.4c0.4-0.7,1-1.1,1.7-1.4c0.7-0.2,1.3-0.3,2-0.3c1.1,0,2.2,0.5,3.2,1.6
		c1,1,1.5,2.1,1.5,3.3c0,0.2,0,0.5,0,0.9c0,0.3-0.1,0.6-0.3,0.9c0,0.2-0.1,0.5-0.3,0.9c-0.2,0.3-0.4,0.6-0.7,0.9
		c-4.7,5.3-9.4,10.6-14.1,16c-4.8,5.4-9.5,10.8-14.1,16c-4.7,5.3-9.4,10.6-14.1,16.1c-4.8,5.4-9.5,10.8-14.1,16
		c6-3,12.2-5.3,18.6-7.1c6.4-1.7,12.8-2.9,19.3-3.6c1.3,0,2.7-0.1,4-0.2c1.3-0.1,2.7-0.2,4-0.2c9.1,0,17.8,1.4,26.2,4.1
		c8.4,2.8,16.3,7.2,23.6,13.5C314.4,551.3,321.1,560.3,325.2,570.6z M278.7,539.4c-7.4-2.5-15-3.8-22.8-3.8c-1.8,0-3.6,0.1-5.5,0.2
		c-1.9,0.1-3.7,0.3-5.5,0.5c-12.6,1.8-25,6.2-37,12.9c-12.1,6.8-22.2,14.9-30.4,24.3c-6.6,7.6-12.4,16.3-17.1,26.2
		c-4.8,9.9-7.9,20-9.5,30.4c-0.4,2.3-0.7,4.5-0.8,6.7c-0.1,2.2-0.2,4.3-0.2,6.4c0,9.7,1.7,19,5.2,28c3.4,9,9.2,16.9,17.4,23.8
		c6.4,5.5,13.4,9.5,20.9,11.9c7.5,2.4,15.1,3.6,22.6,3.6c1.1,0,2.3,0,3.5,0c1.2,0,2.4-0.1,3.5-0.3c13.5-0.9,26.6-4.9,39.4-12.1
		c12.7-7.1,23.4-15.6,32.1-25.5c6.6-7.6,12.3-16.3,16.9-26.2c4.7-9.9,7.9-20,9.6-30.4c0.2-2.3,0.4-4.5,0.7-6.7
		c0.2-2.2,0.3-4.3,0.3-6.4c0-9.7-1.8-19-5.3-28c-3.5-9-9.4-16.9-17.6-23.8C292.9,545.8,286.1,541.9,278.7,539.4z"/>
</g>
<g id="XMLID_120_">
	<path id="XMLID_121_" class="st0" d="M856.5,72.4l-28.9,23.1c-1.2-1.3-1.9-2.3-1.9-3.1c0-1.1,1.2-1.9,3.3-3.5
		c2.8-2.2,24.1-17.2,25.3-17.4v-0.2c-1.1-0.2-16.9-14.9-18.8-17.1c-1.3-1.4-2.1-2.3-2.1-3.1c0-1.1,1.2-2,3.1-3.5l20.3,22.8
		L856.5,72.4z"/>
</g>
<g id="XMLID_117_">
	<path id="XMLID_118_" class="st0" d="M1036.1,50.8c1.2,1.3,1.9,2.3,1.9,3.1c0,1.1-1.3,2-3.3,3.6c-2.8,2.2-24,16.8-25.2,17.1l0,0.3
		c1.1,0.2,16.8,15.2,18.7,17.4c1.3,1.4,2.1,2.2,2.1,3.1c0,1.1-1.3,2.1-3.1,3.6l-20.2-23.1l0.4-2.2L1036.1,50.8z"/>
</g>
<g id="XMLID_113_">
	<path id="XMLID_114_" class="st0" d="M163.5,204.5L27,64.9l-3.5,20.9l-8.7-1.6l11.6-70.3l162.3,165.9L163.5,204.5z M194.9,173.8
		L28.2,3.4l1.9-10.1l170.8,174.6L194.9,173.8z"/>
</g>
<g id="XMLID_109_">
	<path id="XMLID_110_" class="st0" d="M1182.6,259c-7.3,4.3-14.9,7.7-22.9,10c-8,2.4-16.2,3.6-24.7,3.6c-12.9,0-25-2.5-36.4-7.6
		c-11.4-5.1-21.3-12-29.7-20.7c-8.4-8.7-15-19-19.9-30.9c-4.9-11.9-7.3-24.5-7.3-37.8c0-4.5,0.4-9.1,1.1-13.7
		c0.7-4.6,1.7-9.1,3-13.4l8.4,2.6c-2.5,8.2-3.7,16.4-3.7,24.6c0,12.1,2.2,23.4,6.7,34.1c4.5,10.7,10.5,20,18.2,28
		c7.7,8,16.7,14.3,26.9,18.9c10.3,4.6,21.2,7,32.8,7c6.6,0,13.3-0.9,19.9-2.6c6.6-1.7,13-4.1,19-7.1V98c-6-3.4-12.3-6-19-7.6
		c-6.6-1.6-13.3-2.4-19.9-2.4c-13.1,0-24.9,2.9-35.3,8.6c-10.5,5.7-20.1,12.8-28.8,21.2V24h98v9.1h-89.3v65
		c8.1-6.2,16.9-11,26.5-14.2c9.5-3.2,19.4-4.8,29.6-4.8c17,0,32.7,4.6,47,13.9V259z M1188.5,96.7c12.5,9.3,22.1,20.7,29.1,34.4
		c6.9,13.7,10.4,28.5,10.4,44.5c0,16-3.4,30.9-10.3,44.9c-6.8,14-16.6,25.5-29.3,34.6V96.7z"/>
</g>
<g id="XMLID_103_">
	<path id="XMLID_104_" class="st0" d="M1251.2,329.2c-0.5,0.2-1.2,0.4-1.9,0.6c-0.7,0.2-1.3,0.5-1.7,0.9v13h-3.7v-16l3.6-1.1v-57
		c-3.1-1.1-6.2-1.7-9.4-1.7c-5,0-9.6,1.2-13.8,3.6c-4.3,2.4-7.8,5.8-10.5,10.1l-3.1-2.1c3-4.9,6.9-8.7,11.8-11.5
		c4.8-2.8,10-4.2,15.6-4.2c4.6,0,9,1,13.2,3V329.2z M1241.3,368.8c-1.5,0.6-3,0.8-4.5,0.8c-1.8,0-3.5-0.3-5.1-1
		c-1.6-0.7-3.1-1.7-4.3-2.9c-1.2-1.2-2.2-2.7-2.9-4.3c-0.7-1.7-1.1-3.5-1.1-5.4c0-2.5,0.6-4.8,1.7-6.8c1.2-2.1,2.7-3.7,4.8-5h-4.3
		v-18.8c1.9,0.8,3.9,1.5,5.9,2c2,0.5,4,0.8,6,0.8c0.6,0,1.2,0,1.8-0.1c0.6,0,1.2-0.1,1.8-0.2V368.8z M1249.8,356
		c0,2.3-0.5,4.5-1.6,6.5c-1.1,2-2.5,3.7-4.3,5v-22.9c1.9,1.3,3.3,2.9,4.3,5C1249.3,351.5,1249.8,353.7,1249.8,356z M1270.9,297.8
		c0,6.4-1.5,12.2-4.6,17.5c-3.1,5.3-7.2,9.5-12.6,12.5v-59.9c5.3,2.9,9.5,7.1,12.6,12.5C1269.4,285.8,1270.9,291.6,1270.9,297.8z"/>
</g>
<g id="XMLID_99_">
	<path id="XMLID_100_" class="st0" d="M274.7,631c0,0.8,0,1.5-0.1,2.3c0,0.8-0.1,1.5-0.2,2.3c-0.1,0.8-0.2,1.5-0.2,2.3
		c-0.1,0.8-0.2,1.6-0.2,2.3l-25.7,12.4c-0.6,0.3-1.2,0.6-1.8,0.9c-0.6,0.3-1.2,0.7-1.8,1c-0.2,0.2-0.4,0.3-0.6,0.4
		c-0.2,0.1-0.5,0.2-0.7,0.3c-1.1,0.7-2.1,1.2-3.2,1.7c-1.1,0.5-2.2,0.8-3.4,1.1c-0.6,0.1-1.1,0.1-1.6,0.2c-0.5,0-1.1,0.1-1.6,0.1
		c-2.1,0-4.1-0.4-5.9-1.3c-1.8-0.9-3.1-2.4-3.7-4.5c-1.5,1.4-3.1,2.6-4.9,3.4c-1.8,0.8-3.7,1.4-5.5,1.8c-0.7,0.1-1.3,0.1-1.8,0.2
		c-0.6,0-1.1,0.1-1.7,0.1c-3.3,0-6.1-0.9-8.6-2.6c-2.5-1.7-3.7-4.3-3.7-7.7c0-0.4,0-0.9,0.1-1.3c0-0.5,0.1-1,0.2-1.5
		c0.5-2.2,1-4.4,1.4-6.6c0.4-2.2,0.9-4.5,1.4-6.8c0.4-2.2,0.8-4.4,1.3-6.6c0.4-2.2,0.9-4.5,1.4-6.6c0.8-3.8,2.8-6.8,5.9-9
		c3.1-2.2,6.4-3.5,9.9-3.9c0.5-0.1,1-0.1,1.5-0.2c0.5,0,1-0.1,1.5-0.1c2,0,3.9,0.3,5.7,0.9c1.7,0.6,3.2,1.5,4.3,2.7l0.7-3.4h22.4
		c-1.3,6.4-2.6,12.9-4,19.3c-1.3,6.5-2.7,12.9-4,19.4c0,0.1,0,0.1,0.1,0.1l19.3-9.4c0.1-0.7,0.1-1.3,0.2-1.9c0-0.6,0.1-1.2,0.1-1.8
		c0-11.5-3.9-21.3-11.8-29.4c-7.8-8.1-17.3-12.2-28.2-12.2c-11.1,0-20.5,4.1-28.3,12.2c-7.8,8.1-11.7,17.9-11.7,29.4
		c0,11.4,3.9,21.1,11.7,29.3c7.8,8.1,17.2,12.2,28.3,12.2c3.1,0,6.1-0.3,8.9-1c2.8-0.7,5.5-1.6,8-2.8c2.7-1.3,5.2-3,7.5-4.9
		c2.3-1.9,4.4-4,6.3-6.4l6.1,5.3c-2.2,2.9-4.7,5.4-7.5,7.7c-2.8,2.2-5.8,4.1-9,5.6c-3.1,1.5-6.4,2.7-9.8,3.5
		c-3.5,0.8-7,1.2-10.5,1.2c-13.2,0-24.6-4.9-34-14.6c-9.4-9.7-14.1-21.4-14.1-35.1c0-13.8,4.7-25.5,14.1-35.3
		c9.4-9.8,20.7-14.6,34-14.6c13.2,0,24.4,4.9,33.8,14.6C270,605.5,274.7,617.3,274.7,631z M230.1,617.4c-0.2-0.4-0.6-0.7-1-0.9
		c-0.4-0.2-0.9-0.3-1.4-0.3c-0.5,0.1-1,0.2-1.5,0.3c-0.5,0.1-0.9,0.4-1.3,0.8c-0.4,0.3-0.8,0.7-1,1.2c-0.3,0.5-0.5,1-0.6,1.6
		c-0.4,1.9-0.8,3.7-1.2,5.6c-0.4,1.9-0.8,3.7-1.2,5.4c-0.4,1.9-0.8,3.7-1.2,5.6c-0.4,1.9-0.8,3.7-1.2,5.6c0,0.1,0,0.2-0.1,0.4
		c0,0.1,0,0.2,0,0.3c0,0.1,0,0.2,0,0.3c0,0.8,0.3,1.5,1,2.1c0.6,0.6,1.4,0.8,2.2,0.8c0.2,0,0.5,0,0.7-0.1c0.2-0.1,0.5-0.2,0.7-0.3
		c0.2-0.1,0.5-0.2,0.7-0.4c0.2-0.2,0.4-0.3,0.7-0.5L230.1,617.4z"/>
</g>
<g id="XMLID_96_">
	<path id="XMLID_97_" class="st0" d="M715.2,56.3c0.4,1.9,0.9,3.8,1.7,5.7c0.8,1.9,1.8,3.7,3,5.2c1.2,1.5,2.6,2.7,4.3,3.6
		c1.6,0.9,3.5,1.3,5.5,1.2c3.3-0.1,6.7-0.8,10.2-2c3.5-1.2,7.2-1.9,11-2c3.7-0.1,7.1,0.5,10.3,2c3.2,1.4,6,3.4,8.5,5.9
		c2.5,2.5,4.5,5.4,6.1,8.7c1.6,3.3,2.7,6.8,3.3,10.4l-3.5,0.1c-0.5-2.2-1.2-4.3-2.1-6.2c-0.9-1.9-2.1-3.6-3.5-5.1
		c-1.4-1.5-3-2.6-4.8-3.5c-1.8-0.8-3.9-1.2-6.2-1.1c-3.5,0.1-7,0.7-10.7,1.7c-3.6,1-7.3,1.6-11,1.7c-2.9,0.1-5.6-0.3-8-1.2
		c-2.4-0.9-4.6-2.2-6.5-3.9c-1.9-1.6-3.7-3.6-5.1-5.9c-1.5-2.3-2.7-4.7-3.8-7.3c-1,2.4-2.2,4.8-3.6,7.2c-1.4,2.4-3.1,4.5-5,6.3
		c-1.9,1.8-4.1,3.3-6.4,4.4c-2.3,1.1-4.9,1.7-7.7,1.8c-3.9,0.1-7.6-0.2-11.1-1c-3.6-0.8-7.1-1.1-10.6-1c-2.3,0.1-4.4,0.6-6.1,1.6
		c-1.8,1-3.3,2.2-4.6,3.8c-1.3,1.6-2.4,3.3-3.2,5.3c-0.9,2-1.5,4.1-1.9,6.3l-3.6,0.1c0.5-3.6,1.4-7.2,2.8-10.6
		c1.4-3.4,3.3-6.4,5.6-9.1c2.3-2.6,4.9-4.8,8-6.4c3-1.6,6.4-2.5,10.1-2.6c3.7-0.1,7.2,0.3,10.7,1.2c3.5,0.9,7,1.3,10.6,1.2
		c2.1-0.1,4-0.6,5.6-1.6c1.6-1,3-2.3,4.1-3.8c1.1-1.5,2-3.3,2.7-5.3c0.7-2,1.1-4,1.5-6L715.2,56.3z"/>
</g>
<g id="XMLID_83_">
	<path id="XMLID_84_" class="st0" d="M1011.7,140.3c0,2-0.4,5.1-1.1,9.2c-0.7,4.1-1.1,7.3-1.1,9.5c0,1.5,0.1,2.6,0.3,3.3
		c-2.7,2.9-5.9,4.4-9.8,4.4c-1.6,0-4-0.3-7.2-1c-3.2-0.6-5.7-1-7.4-1c-3.5,0-6.6,1.4-9,4.1c0,1.8,0.2,4.6,0.5,8.3
		c0.4,3.7,0.5,6.5,0.5,8.6c0,12.5-4.7,18.8-14.1,18.8c-1.2,0-3.9-0.3-8-0.8c-3.4-0.4-6-0.4-8,0c-11.2-8.1-16.7-17.7-16.7-28.7
		c0-2.2,0-4,0-5.2l-2.4-2.5c-6.3,0-15.8-0.3-28.4-1c-12.6-0.6-22-1-28.1-1c-1.6,0-4,0.1-7.1,0.3c-3.2,0.2-5.5,0.3-7.1,0.3
		c-1.8,0-5.4-2.2-10.8-6.6c-6.3-5-10-7.7-10.8-8.3v-2.5c12.2-14.5,44.7-54.6,97.6-120.1c0.9,0.4,2.3,0.6,4.3,0.6
		c2.5,0,6-0.5,10.5-1.5c4.5-1,7.9-1.5,10.2-1.5c5.5,0,9.2,2.9,11.2,8.8l6.1,4.1c1.8,2.6,2.7,5.5,2.7,8.8c0,8.7-0.3,19.8-0.8,33.4
		c-0.7,18.6-1.1,29.6-1.1,33.1c1.2,4.1,4,6.1,8.2,6.1c1.1,0,2.7-0.1,4.8-0.4c2.1-0.3,3.7-0.4,4.8-0.4c5.1,0,8.3,3,9.6,9.1
		C1009.1,130.3,1011.7,134.3,1011.7,140.3z M992.9,133.5c0-3.5-0.5-6.3-1.6-8.3c-0.5,0-1.2,0-2.1,0c-1.1,0.2-1.9,0.3-2.4,0.3
		c-3.4,0-7.7-0.6-13-1.7c-7.1-1.3-11.4-2-13-2.2c-0.5-10.1-0.8-35.6-0.8-76.5c0-0.9,0-2.2,0-3.9c0-1.7,0-2.9,0-3.6
		c0-3.7-1.9-5.5-5.6-5.5c-1.4,0-3.5,0.3-6.3,0.8c-2.8,0.6-4.9,0.8-6.3,0.8c-2.1,0-3.7-0.5-4.8-1.4c-13.2,14.9-29,33.8-47.4,56.6
		c-15.3,19.3-30.7,38.6-46,57.7h87.7l4.5,5v30.9c1.9,1.1,4,1.7,6.1,1.7c1.2,0,2.9-0.1,5.1-0.4c2.1-0.3,3.7-0.4,4.8-0.4
		c1.8,0,3.5,0.3,5.1,0.8c2.7-2.6,4-6.4,4-11.6c0-1.8-0.1-4.6-0.4-8.3c-0.3-3.7-0.4-6.4-0.4-8.3c0-2.4,0.2-4.1,0.5-5.2
		c1.4-2.6,3.8-3.9,7.1-3.9c1.2,0,2.9,0.1,5.1,0.4c2.2,0.3,3.8,0.4,4.9,0.4c1.1,0,2.5-0.3,4.2-1c1.8-0.6,3.1-1,4-1c0.3,0,0.9,0,1.6,0
		c0.7,0.2,1.1,0.3,1.3,0.3c1.8,0,3.2-0.6,4.2-1.9V133.5z M930.7,157.8c0-1.5-0.8-3.2-2.4-5.2c-8.6,0.6-21.6,0.8-38.8,0.8
		c-17.3,0-30.2,0.3-38.8,0.8v1.7c0.7,1.3,2.2,2.3,4.6,2.9c2.4,0.6,3.9,1.2,4.6,1.8H881h21.9c5.6,0,14.1,0.4,25.3,1.1
		C929.9,160.4,930.7,159.1,930.7,157.8z M936.5,87.3c0,2.2-0.3,7.8-0.8,16.8c-0.4,6.8-0.4,12.4,0,16.8c-3.5,1.5-8.1,2.3-13.6,2.5
		c7.4,0,2.8,0-13.8,0c-3.5,0-6.9,0.3-10.1,0.8c-2.1-0.4-3.2-1.7-3.2-3.9c0-2.2,1.5-5.2,4.5-8.8c2.3-2.8,4.6-5.5,6.9-8.3
		c7.1-9.9,11.2-15.7,12.5-17.4c4.8-6.4,9.4-11.8,13.8-16l2.1,2.5C936,76.2,936.5,81.3,936.5,87.3z M932.8,90.2
		c0-2.6-0.8-5.3-2.4-8.3h-2.7l-26.3,34.2v2.2h10.6c0.9-1.3,5-5.7,12.5-13.3C930,99.7,932.8,94.8,932.8,90.2z M932,110.1
		c0-2.2-0.5-3.7-1.6-4.4c-4.1,3.7-7.8,8.3-11.2,13.8h2.1c3.2,0,6.5-1.1,9.8-3.3C931.7,114.1,932,112.1,932,110.1z M964.7,198.1
		c-3.2-5.7-8.8-8.6-16.7-8.6c-3.2,0-5.1,1.2-5.8,3.6c3.4,3.9,8.4,5.8,15.2,5.8C960.6,199,963.1,198.7,964.7,198.1z M974,47.9
		c-1.2-3.3-3.5-5-6.6-5h-1.1c0,4.8-0.3,13.2-0.8,25.1c-0.5,10.9-0.8,19.3-0.8,25.4c0,6.8,0.3,13.7,0.8,20.7l1.3,2.8h4
		c1.2,0,2.1-0.6,2.7-1.7L974,47.9z M973.5,177.7c0-9.9-2.9-16.4-8.8-19.3v17.4c0,4.8,0.3,9.6,0.8,14.4c0.9,1.3,1.8,2.7,2.8,4.1
		c1,1.5,2.2,2.2,3.6,2.2C972.9,183.8,973.5,177.5,973.5,177.7z M999.2,160v-1.1c-3.5-4.2-6-6.3-7.4-6.3c-1.1,0-3,0.3-5.7,1
		c-2.8,0.6-5,1-6.8,1c-0.9,0-2.2-0.1-4-0.3c-2,0-3.4,0-4.3,0h-3.2c3,4.1,7.6,6.1,13.8,6.1c1.4,0,3.5-0.1,6.4-0.4
		c2.8-0.3,5-0.4,6.4-0.4C995.5,159.5,997.1,159.7,999.2,160z M1007,154.2v-8.3c0-8.1-2.6-13.3-7.7-15.5l-1.9,17.9
		c1.2,1.3,2.6,2.7,4,4.1c1.4,1.5,2.7,2.2,4,2.2C1005.7,154.8,1006.2,154.6,1007,154.2z"/>
</g>
<g id="XMLID_75_">
	<path id="XMLID_76_" class="st0" d="M702.3,601.5c12.9,0,24.9,6,36,17.9c1.4,1.6,3.3,4,5.7,7.2c3.8,7,5.7,16.9,5.7,29.5
		c0,15.1-3,26.6-8.9,34.6c-1,1.2-2.6,3-4.7,5.7c-4.5,5.7-7.4,9.1-8.6,10.4c-3.4,3.6-7,6.2-10.7,8c-5.4,2.6-11.8,3.9-19.1,3.9
		c-21,0-35.6-10.1-43.9-30.2c-0.5-1.2-1.2-2.9-2-5.2c-1.2-4.2-1.8-10.9-1.8-20.1c0-8.8,1.4-17.3,4.1-25.6c0.5-1.5,2.4-4.8,5.7-10.1
		C671.1,610.2,685.2,601.5,702.3,601.5z M696.7,612.2c-5.4,0-10.9,0.8-16.5,2.5c-6.6,1.9-11.3,4.6-14.4,8c-0.7,0.8-1.1,1.4-1.1,1.6
		c-2.4,3.6-5.1,8-8,13.4c-2.4,7.9-3.6,17-3.6,27.5c0,16.4,4.4,29.3,13.2,38.7c7.9,8.4,17.9,12.6,30,12.6c7.8,0,14.3-1.3,19.7-3.9
		c5.4-2.6,10.2-7,14.4-13.1c4.2-6.1,6.8-12.2,7.8-18.3c1.1-6.7,1.7-14.2,1.7-22.5c0-13-2.6-22.4-7.7-28.3c-3-3.5-7.1-7.2-12.1-11.2
		C714.2,614.5,706.4,612.2,696.7,612.2z M698,624.7c5.1,0,9.7,1.2,13.6,3.6c7,4.2,11.7,10.4,14.2,18.7c1.7,5.8,2.6,13.9,2.6,24.4
		c-0.5,1.7-1.1,3.5-1.7,5.5c-3.2,11.3-7.7,18.4-13.3,21.2c-4.1,2.1-10,3.1-17.5,3.1c-7,0-12.7-1.4-17.1-4.1
		c-7.4-9.7-11.8-17.9-13.3-24.5c-0.4-1.8-0.6-3-0.6-3.6c0-8.6,0.5-15.2,1.5-20c1.6-7.5,4.7-13.2,9.2-17
		C681.5,627.2,689,624.7,698,624.7z M672.1,641.7h-1.4c-1.3,1.7-2.4,4.7-3.2,9c-0.7,3.7-1.1,7-1.1,9.9c0,10.3,3.2,20,9.5,29.2
		c0.7,1,1.9,2.6,3.6,4.7c3.1,3,8.3,4.6,15.6,4.6c2.6,0,5.6-0.3,8.9-0.9c1.3-0.2,2.6-0.4,3.9-0.6c1.3-0.2,2.5-0.7,3.5-1.6
		c0.7-0.4,1.7-1.1,3-2c0-0.4-0.3-0.6-0.8-0.6c-0.5,0-1.5,0.3-3,0.8c-3.5,0.5-5.6,0.8-6.2,0.8c-6.9,0-13.9-2.9-21-8.8
		c-8.9-7.2-13.3-17.6-13.3-31.1C670.3,650.5,670.9,646.1,672.1,641.7z M696.4,627.2c-4.3,0-10.5,2.2-18.6,6.6l-2,3.3
		c-1.4,13.2-2.1,20.2-2.1,21.1c0,13.9,6.4,23.9,19.1,30c5,2.4,9.2,3.6,12.4,3.6c3.6,0,8-0.9,13-2.8c1.5-3.7,3.1-7.4,4.7-11.2
		c1.6-3.8,2.4-7.7,2.4-11.5c0-1.6-1.1-6.5-3.2-14.9c-0.2-1.2-0.6-2.9-1.2-5.3c-1.2-4.9-4.3-9.3-9.4-13
		C706.5,629.1,701.5,627.2,696.4,627.2z M701.3,604.1c-3.8,0-7.9,0.5-12.3,1.6c-5.6,1.5-9,3.5-10,6c8.1-2,14.5-3,19.2-3
		c5.9,0,11.7,1.5,17.5,4.6c3.9,2.1,9,5.6,15.1,10.5c0.8,0.5,1.9,1.5,3.3,2.8c0.4,0.4,1.2,1.6,2.3,3.5c4,7.1,6.1,16.7,6.1,28.6
		c0,6.7-0.7,15.4-2,26.1c1.1-1.4,2.1-3.4,2.9-6c0.7-2.1,1.4-4.2,2-6.4c0.2-0.5,0.5-1.4,0.9-2.5c0.4-2,0.6-5.8,0.6-11.5
		c0-16.6-3.5-29-10.4-37.4C727.2,609.7,715.4,604.1,701.3,604.1z"/>
</g>
<g id="XMLID_62_">
	<path id="XMLID_63_" class="st0" d="M891.9,664.4c-1.5,2.5-4,3.8-7.5,3.8c-3.4,0-7-0.9-10.8-2.6c-3.8-1.8-5.6-2.6-5.5-2.6
		c-1,0-2.4,0.4-4.2,1.3c-1.8,0.9-3.2,1.3-4.2,1.2c-4.2,1.5-8.8,2.3-13.8,2.3c-8.8,0-16.8-2.4-24-7.1c-1.6-1.1-2.9-2.1-3.8-3
		c-0.4-0.4-1.2-1.4-2.4-3c-4.2-5.4-6.3-9.9-6.3-13.8c0-4.4,1.8-8.6,5.3-12.5c3.1-3.5,6.8-6.1,11.3-7.8c0-1.4-0.7-3.3-2-5.9
		c-1.4-2.5-2-4.6-2-6.2c0-0.5,0-0.9,0.1-1.3c1.4-6.9,4-10.8,7.7-11.7c4.9-3.8,10.3-5.7,16.2-5.7c3.8,0,7.4,1,10.8,3
		c5.2,2.9,8.4,4.6,9.7,5c1.7,2.1,4,4.2,7.1,6.5c-0.1,1-0.5,2.1-1.3,3.2l-2,2.9c-0.2,0.5-0.5,1.1-0.9,2c-1,2-2.4,3-4.3,3
		c-1.2,0-3.3-0.6-6.5-1.8c-3.1-1.2-5.6-1.8-7.5-1.8c-1.5,0-4.7,1-9.4,3v0.8c3.4,3.7,6.8,7.5,10.2,11.2c4,4.4,7.8,7.6,11.4,9.6
		c2.7-2.5,4.9-5.2,6.7-8.1c6.6,2.4,11.7,5.8,15.2,10.1c1.3,0.5,2,1.2,2,2.3c0,0.8-1.1,2.5-3.2,5.3c-1.5,1.8-2.9,3.5-4.3,5.3
		c0.7,0.6,3.1,3.1,7,7.3C887.9,659.8,889.6,661.7,891.9,664.4z M878.3,658.7c-1.3-2.8-4.3-6.2-9.2-10.2l8.8-12.7v-1
		c-2.6-1.6-5-2.7-7.2-3.3c-1,2.1-3.6,5-7.8,8.7c-0.1-0.1-1-0.4-2.7-0.9c-0.9-0.3-1.6-0.9-2.2-1.7c-1.2-1.7-5.7-7.2-13.7-16.6
		c-0.8-1-2.6-2.6-5.3-4.8c-2.4-2-4-3.7-5-5.3c-0.4-0.6-0.6-1.2-0.6-1.7c0-0.8,1-2.1,3-4c0.1-0.2,0.4-0.6,0.9-1
		c1.5-1.5,4-2.3,7.4-2.3c4.3,0,8.1,0.9,11.6,2.8c1,0.8,2.5,1.6,4.6,2.4c0.6-1.6,1.4-4,2.5-7.2c-6.4-5-12.3-7.6-17.7-7.6
		c-2.1,0-4,0.3-5.5,0.9c-1.5,0.8-3.1,1.7-4.7,2.5c-3.9,2-6.4,3.5-7.6,4.6c-2.4,2.1-3.5,4.9-3.5,8.1c0,2,0.6,4.2,1.9,6.8
		c1.6,3.4,2.6,5.6,2.9,6.5c-2.4,0.8-5.4,2.2-9.2,4.4c-0.5,0.5-1.3,1.3-2.4,2.4c-4.3,4.4-6.4,8.2-6.4,11.4c0,0.9,0.1,1.9,0.4,2.9
		c1.4,4.7,3.8,8.8,7.2,12c3.7,3.6,7.8,5.4,12.3,5.5c2.8,1.1,5.7,1.7,8.8,1.7c5.7,0,12-1.8,18.8-5.5c0.7-1.3,1.5-1.9,2.3-1.9
		c0.8,0,2,0.9,3.4,2.8c1.5,1.8,2.7,2.8,3.8,3c0.8-0.5,2.8-0.7,6.1-0.7C875.9,659.4,877.2,659.1,878.3,658.7z M853.6,646.5
		c-0.5,1.2-1.5,2.3-2.9,3.3c-1.4,1-2.9,1.8-4.3,2.6c-1.4,0.5-3.4,0.7-6.1,0.7c-4.7,0-9.9-1.5-15.7-4.5c-0.5-0.2-1.3-0.7-2.4-1.5
		c-1.1-0.8-1.6-2.3-1.6-4.5c0-1.7,0.9-3.7,2.6-6c3.9-5,8.1-7.5,12.7-7.5c1,0,1.8,0.1,2.2,0.2c3.9,4.1,6.6,6.8,8,8.4
		C849.1,640.8,851.6,643.8,853.6,646.5z M839.5,634v-0.2c-0.1-0.1-0.6-0.7-1.4-2c-0.4-0.6-1.1-0.9-2.1-0.9c-0.7,0-1.6,0.3-2.8,0.9
		c-1.2,0.6-2.2,0.9-2.9,0.8c-5,3-7.5,6.3-7.5,9.9v0.9c1.1,1.7,1.9,2.5,2.5,2.5c0.4,0,0.6,0,0.8-0.1c-0.1-0.2-0.1-0.5-0.1-0.9
		c0-2.2,1.2-4.2,3.8-6c1.1-0.8,3.3-1.9,6.6-3.4c0.1,0,0.7-0.2,1.9-0.5C839.1,634.8,839.5,634.5,839.5,634z M851.3,646.5l-9.1-9.8
		c-2.9,0.9-5.7,1.9-8.6,2.9c-3.2,1.5-4.9,3.7-5.1,6.9c0.9,1,2.7,2,5.4,2.9c2.4,0.8,4.4,1.3,6,1.3
		C843.9,650.6,847.7,649.3,851.3,646.5z M865.2,660.3c-0.5-1.1-2.1-2.2-4.6-3.3c-6.3,5-13.1,7.6-20.5,7.6c-1.3,0-3-0.2-5-0.6
		c-3-0.6-4.6-0.9-4.9-0.9c4.2,2.1,8.8,3.1,13.7,3.1c3,0,5.9-0.5,8.6-1.5c1.4-0.5,2.5-0.9,3.2-1c1.6-0.4,3.3-0.8,5.1-1.2
		C862.7,662,864.1,661.3,865.2,660.3z M863.9,612.8c-2.6-2.8-6.8-5.3-12.6-7.5c-1.9-0.7-3.5-1-4.7-1c-1.6,0-3.5,0.4-5.6,1.3
		c-2.1,0.9-3.7,1.9-4.7,3.2c-0.1,0.2-0.2,0.3-0.2,0.6c0,0.4,0.6,1.3,1.8,2.8h0.8c1.5,0,3.8-0.5,6.7-1.5c2.9-1,5.2-1.5,6.7-1.5
		c1.8,0,3.8,0.6,6.1,1.9c2.3,1.3,4,1.9,5,1.9C863.5,612.9,863.8,612.9,863.9,612.8z M870.1,605v-0.3c-0.2-0.1-0.8-0.5-1.6-1.3
		c-0.8-0.8-1.5-1.1-2-1.1h-0.6c-1.8,3.1-2.8,5-2.8,5.9c0,0.6,0.1,1,0.2,1.2c0.1,0.2,0.6,0.6,1.5,1.3c0.5,0.5,1,0.7,1.5,0.7
		c0.1,0,0.3,0,0.4-0.1c0.1,0,0.3,0,0.3,0C869.1,608.8,870.1,606.7,870.1,605z M889.3,664.4c-0.1,0-0.6-0.2-1.3-0.6
		c-0.4-0.2-0.9-0.2-1.3-0.1c-1.3-1.7-3.1-2.5-5.2-2.5c-0.9,0-2.2,0.2-4,0.5c-1.8,0.3-3.1,0.5-4,0.5c-0.7,0-1.2,0-1.5-0.1v0.7
		c0.4,0.2,2.2,0.9,5.3,2.3c2.1,0.9,3.9,1.4,5.4,1.4c0.2,0,1.2-0.2,3-0.6c0.7-0.1,1.4-0.2,2.2-0.3
		C888.7,665.3,889.2,664.9,889.3,664.4z M884.5,640.5c-0.1-0.5-0.5-1-1.1-1.4c-0.6-0.4-1.1-0.7-1.7-1c-0.1-0.1-0.4-0.1-0.9-0.1
		c-1.3,0-2.5,0.7-3.5,2.2c-0.7,1.2-1.5,2.5-2.2,3.8c-0.4,0.5-0.9,1.1-1.4,1.8c-0.5,0.7-0.8,1.2-0.8,1.8c0,0.8,0.4,1.5,1.3,2.3
		c0.9,0.8,1.7,1.5,2.4,2.1c0.5-1.1,2-3,4.3-5.5C882.9,644.2,884.1,642.2,884.5,640.5z M885.7,660.1c-0.6-1.3-1.6-2.5-3.1-3.7
		c-1.4-0.9-2.8-1.8-4.1-2.8C880.4,656.8,882.8,659,885.7,660.1z"/>
</g>
<g id="XMLID_59_">
	<path id="XMLID_60_" class="st0" d="M231.3,289.3c-17.8,12.3-94.6,67.9-106.3,79.7c-9.1,9-15,17.5-18.2,25.3
		c-3.6,8.7-3.3,15.7,1.6,25.3c-5.4,5.9-14,4.2-22.7,0.6c-12.6-5.2-19.5-13.8-10.4-36c14.5-35.5,60.9-60.9,113.4-88.7
		c-5.7-3.4-11.4-6.2-17.1-8.5c-18.2-7.5-36-9.4-49.9-2.4c0.8-5,2-9.6,3.5-13.3c5.8-14.1,16.9-18.5,37.4-10.1L231.3,289.3z"/>
</g>
<g id="XMLID_52_">
	<path id="XMLID_53_" class="st0" d="M551.2,31.4c0,10-6.3,25.3-17.9,25.3c-9.5,0-11.6-4.9-11.6-13.4c0-13.9,7.5-25.2,19.6-25.2
		C548.3,18.1,551.2,22.8,551.2,31.4z M532,100.7h-8.7l46.8-88.2h8.7L532,100.7z M530.3,44.7c0,3.8,0.6,7.6,3.3,7.6
		c6.4,0,10.3-10.8,10.3-22.7c0-4.1-0.5-7.4-3-7.4c-3.4,0-9.3,6-10.3,17.4C530.5,41.1,530.3,42.8,530.3,44.7z M582.5,75.4
		c0,10-5.1,25.3-19.2,25.3c-9.5,0-11.6-4.9-11.6-13.4c0-13.9,7.5-25.2,19.6-25.2C578.4,62.1,582.5,66.8,582.5,75.4z M559.8,88.7
		c0,3.8,0.6,7.6,3.3,7.6c6.4,0,9.9-10,9.9-21.9c0-4.1-0.8-8-3.4-8c-3.4,0-8.6,5.8-9.6,17.2C559.9,85.1,559.8,86.8,559.8,88.7z"/>
</g>
<g id="XMLID_49_">
	<path id="XMLID_50_" class="st0" d="M390.4,658.1l-34.2,17.7l27.5,14.1l-1.7,8.4l-35-20.2l1.3-6l43.6-22.1L390.4,658.1z"/>
</g>
<g id="XMLID_46_">
	<path id="XMLID_47_" class="st0" d="M106.6,249.3c0,7.8-9.6,17.8-20.8,19.7c-10.4,38.9-29.3,39.8-42.7,39.8
		c-18.9,0-28.3-14.1-28.3-28.7c0-13.6,8.2-27.8,24.8-31.4c-9.3-5.3-13.5-13.5-13.5-21.6c0-12.9,10.9-25.7,30.4-25.7
		c12.7,0,25.2,5.3,25.2,19c0,7.5-2.6,13.1-9.6,13.1c-2.2,0-5.2-0.6-7.8-3.7c3.4-1,6-8.1,6-11.7c0-2.3-0.3-10.5-9-10.5
		c-10,0-16.7,8-16.7,17.5c0,8.2,5.2,17.5,18.1,23.4c-17.4,7.4-23.8,18.8-23.8,28.6c0,10.4,7.2,18.9,16,18.9c9.6,0,20.5-6,24.8-26.9
		c-3.4-0.1-6.6-0.7-9.7-0.7c-6,0-10.3,2.1-12.9,6.4l-1-0.1c2.7-11.6,12.3-20,26.4-20c3.8,0,7,0.7,10.4,0.7c5.1,0,10.7-1.8,13-6.1
		H106.6z"/>
</g>
<g id="XMLID_43_">
	<path id="XMLID_44_" class="st0" d="M247.7,400.4l21,8.6L257,426.8l-21.2-8.7l-13.1,19.3l-18.7-7.7l13.1-19.3l-21.2-8.7l11.9-17.6
		l21.2,8.7l13.1-19.2l18.7,7.7L247.7,400.4z"/>
</g>
<g id="XMLID_40_">
	<path id="XMLID_41_" class="st0" d="M329.3,478.3c-11.8,5.2-23.4,5.5-34.8,0.8c-0.6-0.2-1.2-0.5-1.8-0.7c-0.6-0.3-1.3-0.5-2-0.8
		c-0.7-0.3-1.3-0.5-2-0.8c-0.6-0.3-1.2-0.5-1.8-0.7l5.1-12.5c0.6,0.2,1.2,0.5,1.8,0.7c0.6,0.3,1.3,0.5,2,0.8c0.7,0.3,1.3,0.5,2,0.8
		c0.6,0.3,1.2,0.5,1.8,0.7c8.1,3.3,16.4,3.1,24.8-0.6c8.4-3.7,14.3-9.7,17.8-18.1c3.3-8,3.6-16,1-24c-2.6-7.9-7.6-13.9-15-17.9
		c-0.8-0.5-1.7-0.9-2.6-1.4c-0.9-0.5-1.7-0.9-2.6-1.4c-0.9-0.5-1.8-1-2.7-1.5c-0.9-0.5-1.7-0.9-2.6-1.4c2.5-1.4,5-2.9,7.5-4.3
		c2.5-1.5,5-3,7.5-4.5c2.5-1.4,5-2.9,7.5-4.3c2.5-1.5,4.9-2.9,7.5-4.3l-22.5-9.2l5.1-12.5l47.2,19.3l-34.1,20
		c7,6.5,11.6,14.6,13.6,24.1c2,9.6,1.1,19-2.7,28.2C349.4,464.7,341.1,473.1,329.3,478.3z"/>
</g>
<g id="XMLID_35_">
	<path id="XMLID_36_" class="st0" d="M1057.3,666.2c-7.9,18.3-21,30.7-39.2,37.4c-18.2,6.7-36.2,5.7-54.1-3
		c-17.9-8.7-30.3-22.5-37.2-41.2c-5.1-14-6.1-28.1-2.9-42.5c3.2-14.3,10-26.4,20.3-36.1c-1.4-1.1-2.8-2.4-4-3.8
		c-1.2-1.4-2.3-2.9-3.2-4.4c-0.7-1-1.3-2-1.8-3c-0.5-1-0.9-2.1-1.3-3.2c-3-8.1-2.9-16.3,0.1-24.7c3.1-8.3,9.1-14.2,17.9-17.4
		c8.9-3.3,17.2-2.7,24.9,1.6c7.8,4.4,13.1,10.5,16,18.4c0.2,0.6,0.4,1.3,0.6,2.1c0.2,0.7,0.4,1.4,0.6,2.1c0.5,2.2,0.7,4.4,0.8,6.7
		c0.1,2.3-0.2,4.7-0.7,7c13.9,0.6,26.9,5.3,38.7,14c11.9,8.7,20.5,20.2,25.7,34.5C1065.8,629.5,1065.2,648,1057.3,666.2z
		 M1013.4,588c-12.8-6.1-25.6-6.8-38.6-2c-13,4.8-22.4,13.7-28.1,26.6c-5.7,12.9-6.1,26.2-1.1,39.9c5,13.5,13.8,23.3,26.6,29.4
		c12.8,6.1,25.6,6.8,38.6,2c13-4.8,22.3-13.6,28.1-26.6c5.7-12.9,6.1-26.1,1.1-39.6C1035,604,1026.1,594.1,1013.4,588z M968.2,544.5
		c-2.9-1.4-5.8-1.5-8.9-0.4c-2.9,1.1-5,3.1-6.4,6c-1.4,2.9-1.4,6-0.3,9.2c1.1,3,3.1,5.2,6.1,6.6c2.9,1.4,5.8,1.5,8.7,0.4
		c3.1-1.1,5.2-3.1,6.5-6c1.3-2.9,1.4-5.9,0.2-8.9C973,548.2,971,545.9,968.2,544.5z"/>
</g>
<g id="XMLID_31_">
	<path id="XMLID_32_" class="st0" d="M1059.6,495.9c-15.3,1.6-28.8-2.4-40.5-12c-5.9-4.8-10.6-10.7-14.1-17.6
		c-3.5-6.9-5.5-14.4-5.8-22.4l6-0.6c0.3,7.2,2,13.8,5.1,20c3.1,6.2,7.4,11.5,12.8,16c1.6,1.3,3.3,2.2,5.4,2.8c2,0.6,4.1,0.8,6.1,0.5
		c2.1-0.2,4-0.9,5.8-1.9c1.8-1,3.5-2.4,4.9-4.1c4.1-5,8.1-9.9,12-14.7c4-4.9,7.9-9.7,11.9-14.6c-2.5-1.1-4.8-2.3-7.1-3.6
		c-2.2-1.3-4.3-2.8-6.2-4.3c-11.1-9.1-17.8-21.3-19.9-36.5c-2.1-15.2,1.9-29.1,12.1-41.6c9.8-12,22.4-18.7,37.7-20.1
		c15.3-1.4,28.7,2.6,40.2,12c11.6,9.5,18.1,21.8,19.6,37.2c1.5,15.3-2.8,29.1-12.8,41.3c-2.9,3.6-5.9,7.2-8.9,10.8
		c-3,3.6-5.9,7.3-8.9,10.8c-2.9,3.6-5.9,7.2-8.9,10.8c-3,3.6-5.9,7.3-8.9,10.8C1087.6,487.4,1074.9,494.3,1059.6,495.9z
		 M1098.8,411.5c8.5-10.3,16.9-20.7,25.3-30.9c2.8-3.5,4-7.4,3.6-11.8c-0.4-4.4-2.2-7.9-5.5-10.5c-10.1-8.3-22-11.9-35.6-10.9
		c-13.6,1-24.9,6.9-33.8,17.8c-9.2,11.2-12.7,23.6-10.7,37.1c2,13.5,8.1,24.4,18.1,32.6c1,0.8,2,1.6,3,2.3c1,0.7,2.1,1.4,3.3,2
		c1.1,0.7,2.2,1.3,3.3,1.9c1.1,0.5,2.3,1,3.6,1.5C1081.9,432.1,1090.3,421.8,1098.8,411.5z"/>
</g>
<g id="XMLID_26_">
	<path id="XMLID_27_" class="st0" d="M1190.7,464.9c3.9,0,7.2,1.5,9.7,4.4c2,2.3,3,4.8,3,7.5c0,4.2-1.9,7.9-5.8,11.2
		c-4.3,3.7-9.4,7.3-15.2,10.8c1.8,6.3,4.4,12.5,7.8,18.7c3.1,5.5,6.2,10.1,9.3,13.8c4.3-5.2,6.5-9.9,6.5-14.1c0-1.8-0.5-3.4-1.4-4.7
		c-1.8-2.6-3.6-3.9-5.3-3.9c-0.3,0-0.8,0.1-1.5,0.2c-0.7,0.2-1.3,0.2-1.7,0.2c-2.4,0-3.5-0.8-3.5-2.5c0-0.7,0.3-1.6,0.8-2.5
		c2.4-3.6,3.9-5.8,4.7-6.5c2.4-2.1,5.5-3,9.3-2.7c13,1.1,21.2,1.1,24.6,0c4.2-1.4,6.7-2.5,7.7-3.2c0.6-0.6,1.3-0.9,2-0.9
		c1.3,0,2,1,2,2.9c0,0.5-0.1,1.1-0.2,1.8c-0.5,2.7-2.2,5.5-5.3,8.5c-2.5,2.5-5,4.3-7.6,5.4c-1.3,0.6-3,0.9-4.8,0.9
		c-2,0-4.6-0.4-7.8-1.2c-1.7-0.5-3.8-0.7-6.3-0.7c1.9,2.6,2.7,6.6,2.5,12c-0.2,3.8-3,9.2-8.6,16.3c2.6,2,5.5,3.2,8.6,3.3
		c3.4,0.2,7.3-1.1,11.7-3.7c3.9-2.4,6.8-4.9,8.9-7.6c1.4-1.9,2.9-2.8,4.5-2.8c1.2,0,1.8,0.6,1.8,1.8c0,0.9-0.4,2-1.3,3.2
		c-2.8,4-9.5,10.6-20.3,19.6c-4.8,4.1-9.9,6.1-15.1,6.1c-5,0-9.8-1.8-14.4-5.4c-7.3,4.9-14.6,7.4-22,7.4c-18,0-27.1-8.5-27.1-25.5
		c0-10.6,7.4-21.2,22.3-31.6c0,0.1-0.1-0.9-0.2-3.1c-0.8-10.4,2.3-18.9,9.2-25.4C1177.8,467.7,1184,465,1190.7,464.9z M1182.2,543.4
		c-8.9-11.2-14.7-22.2-17.4-32.9c-3.9,4.1-5.8,8.6-5.8,13.5c0,5,1.8,9.6,5.4,13.9c3.6,4.3,7.8,6.4,12.4,6.4
		C1178.6,544.2,1180.4,543.9,1182.2,543.4z M1181.5,476.3c-1.2,1.8-1.8,4.5-1.8,8c0,2,0.2,4.1,0.6,6.4c6.4-4.6,9.6-9,9.6-13.3
		c0-3-0.8-4.7-2.2-4.9C1185.3,472.4,1183.2,473.7,1181.5,476.3z"/>
</g>
<g id="XMLID_20_">
	<path id="XMLID_24_" class="st0" d="M317.6,47.5c-2.4-1.9-3.6-4.2-3.6-6.9c0-2.3,0.8-4.9,2.4-7.8c2.6-4.7,6.5-7.1,11.5-7.1
		c1.9,0,3.5,0.5,4.8,1.5c1.3,1,2,2.5,2,4.6c0,2.1-0.6,4.3-1.9,6.8c2.7,1.5,6.8,1.4,12.3-0.3c4.6-1.5,7.9-2.2,9.8-2.2
		c2.8,0,4.5,1.1,5,3.4c0.2,0.8,0.3,1.6,0.3,2.4c0,1.7-0.5,3.5-1.6,5.5c-1.1,2-2.1,4-3.2,5.8c-3.5,6.9-7.4,14.8-11.7,23.9
		c-1.3,3.2-1.3,5.2,0,5.9c1.8,0,3.4-0.8,4.7-2.5c2.5-2.2,5.7-5,9.5-8.5c1.1-1.4,2.5-2.1,4.3-2.1c1.1,0,1.8,0.3,2.2,0.9
		c0.8,0.8,1.3,1.5,1.3,2.1c0,0.7-0.9,2.1-2.8,4.3c-10.1,11.4-20.5,19.5-31.1,24.3c-2.9,1.4-5.8,2.1-8.5,2.1c-4,0-7.2-1.3-9.5-4
		c-2.4-2.6-3.4-5.4-3.1-8.2c0.7-6.2,6.1-15.1,16.1-26.8c3.9-4.5,5.8-8,5.8-10.6c0-2.5-2.3-3.7-6.8-3.7c-11.4,13.8-19.5,23-24.3,27.4
		c-1.8,1.7-3.6,1.9-5.5,0.7c-0.8-0.4-1.3-1-1.3-1.9c0-0.9,0.4-1.7,1.3-2.4c4.5-4.7,8-8.5,10.6-11.5
		C310.8,57.2,314.5,52.3,317.6,47.5z"/>
	<path id="XMLID_21_" class="st0" d="M393.3,90.6c-9.2,8.9-16.8,13.4-22.9,13.4c-2.2,0-4.3-0.5-6.2-1.5c-4.4-2.3-6.6-6.2-6.6-11.8
		c0-1.4,0.2-2.8,0.5-4.3c0.4-2.6,0.8-4.2,1.1-4.9c0.6-1.6,1.7-3,3.3-4.3c-2.6,2.5-4.5,3.7-5.7,3.7c-0.9,0-1.8-0.4-2.7-1.3
		c-0.8-0.9-1.3-1.8-1.3-2.7c0-1.3,1.1-2.5,3.2-3.7c2.1-1.2,5.8-4.9,11-11.2c6.1-7.3,11.8-13,17.2-17.2c7.8-6.2,15.1-9.3,21.9-9.3
		c4.3,0,8.2,1.2,11.5,3.7c6.6-11.4,14-23.8,22.1-37.1c0.7-1.2,1.5-2.4,2.4-3.7c0.7-0.9,1.9-1.2,3.6-0.9c2.9,0.4,5.5,2.1,7.6,5.2
		c2.4,3.4,3.6,6.2,3.6,8.4c0,2.5-5.1,13.4-15.3,33c-4.4,8.9-9.8,19.2-16.1,30.8c-0.9,1.3-1.4,2.5-1.4,3.5c0,1.8,1.1,2.7,3.3,2.7
		c1.3,0,2.3-0.4,3.2-1.2c1.8-1.9,4.2-4,7.3-6.5c1.5-0.8,2.4-1.2,2.7-1.2c0.7,0,1.7,0.4,2.8,1.2c0.5,0.4,0.8,0.9,0.8,1.5
		c0,1.7-3.6,6.1-10.7,13.4c-9.6,9.8-19.2,14.7-29,14.7C398.8,103.1,395.1,99,393.3,90.6z M389,82.8c3.4,0,8.4-4.7,15-14
		c5.2-7.3,7.7-12.7,7.7-16.3c0-2.3-1.1-3.4-3.2-3.4c-2.9,0-8.3,5.1-15.9,15.2c-4.6,6.1-6.9,10.9-6.9,14.6
		C385.7,81.5,386.8,82.8,389,82.8z"/>
</g>
<g id="XMLID_15_">
	<path id="XMLID_18_" class="st0" d="M444.7,624.2l-2,94.8l-11.2-0.2l2-94.8l-20.2-0.4l0.2-11.7l51.5,1.1l-0.2,11.7L444.7,624.2z"/>
	<path id="XMLID_16_" class="st0" d="M513.2,720.2l0.5-24.9l-33.1-0.7l-0.5,24.9l-11.3-0.2l0.5-24.9l-7.2-0.2l0.2-11.7l7.2,0.2
		l1.5-69.9l11.3,0.2l-1.5,69.9l33.1,0.7l1.5-69.9l11.3,0.2l-2.3,106.5L513.2,720.2z"/>
</g>
<g id="XMLID_12_">
	<path id="XMLID_13_" class="st0" d="M1214.6,73.3l-7.6-4.6l-0.1,9.1l-4.4,0.1l-0.1-9.3l-7.7,4.6l-2.2-4.1l7.9-4.6l-8-4.7l2.3-4.1
		l7.9,4.7V51h4.4l0.1,9.3l7.6-4.6l2.2,4.1l-7.8,4.6l7.9,4.7L1214.6,73.3z"/>
</g>
<g id="XMLID_10_">
	<path id="XMLID_11_" class="st1" d="M533.5,236.8c-0.2,1,0.7,0.8,0.6,1.8C533.5,238.5,532.5,237.1,533.5,236.8z"/>
</g>
<g id="XMLID_8_">
	<path id="XMLID_9_" class="st1" d="M445.4,416.3c0.8,0-0.1,1.6,0.6,1c0.5,0.2,0,1,0,1.4C445.3,418,445.6,417.4,445.4,416.3z"/>
</g>
<g id="XMLID_6_">
	<path id="XMLID_7_" class="st1" d="M455.7,418.9c0-0.2,0.2-0.1,0.2,0c0.3,0-0.3-1.1,0.2-1.4c0.6,1,1.9,1.2,2.2,2.4
		c-0.9-0.5-1.1-0.6-1.9,0C456.3,419.5,456.2,419,455.7,418.9z"/>
</g>
<g id="XMLID_4_">
	<path id="XMLID_5_" class="st1" d="M641.6,515.9c-0.3,0.5-0.1-1.1,0.6-0.8c0,0.3,0,0.5,0,0.8C641.8,516,641.7,515.6,641.6,515.9z"
		/>
</g>
<g id="XMLID_2_">
	<path id="XMLID_3_" class="st1" d="M639.4,505.6c0.5,0.4,0.8,1.3,1.7,0.8c0.5,1,0.2,2,0.2,2.8C640,508.6,639.8,507,639.4,505.6z"/>
</g>
<g id="XMLID_1_">
	<path id="XMLID_140_" class="st0" d="M401.9,247.5c6.4-14,16.6-23.6,30.8-28.9c7.1-2.7,14.6-3.8,22.3-3.3
		c7.8,0.5,15.2,2.6,22.2,6.3l-2.6,5.5c-6.3-3.4-12.9-5.3-19.9-5.8c-6.9-0.5-13.7,0.6-20.3,3c-1.9,0.7-3.6,1.8-5.1,3.2
		c-1.5,1.4-2.7,3.1-3.5,5c-0.8,1.9-1.3,3.9-1.3,6c-0.1,2.1,0.3,4.2,1.1,6.3c2.2,6,4.5,12,6.6,17.8c2.2,5.9,4.4,11.8,6.6,17.6
		c2.2-1.6,4.4-3,6.7-4.3c2.3-1.3,4.6-2.3,6.9-3.2c13.5-5,27.3-4.6,41.5,1.3c14.2,5.9,24.1,16.3,29.8,31.4
		c5.4,14.6,4.9,28.8-1.7,42.7c-6.6,13.9-16.8,23.4-30.6,28.6c-14,5.2-28,4.6-42-1.8c-14-6.4-23.7-17.1-29.2-31.9
		c-1.6-4.3-3.2-8.7-4.9-13.1c-1.6-4.4-3.3-8.8-4.9-13.1c-1.6-4.3-3.2-8.7-4.9-13.1c-1.6-4.4-3.3-8.8-4.9-13.1
		C395.1,276,395.6,261.5,401.9,247.5z M455.1,323.9c4.7,12.5,9.3,25,13.9,37.5c1.6,4.2,4.3,7.2,8.3,9.1c4,1.9,7.9,2.1,11.8,0.6
		c12.3-4.6,21.4-13,27.4-25.3c6-12.3,6.6-25,1.7-38.1c-5.1-13.6-13.9-22.9-26.6-28c-12.7-5.1-25.1-5.3-37.2-0.8
		c-1.2,0.5-2.4,0.9-3.5,1.4c-1.1,0.5-2.2,1.1-3.3,1.8c-1.2,0.6-2.3,1.2-3.3,1.9c-1,0.7-2.1,1.5-3.1,2.4
		C445.8,298.9,450.4,311.4,455.1,323.9z"/>
</g>
<g id="XMLID_147_">
	<path id="XMLID_148_" class="st0" d="M841.2,305.7c6.4-14,16.6-23.6,30.8-28.9c7.1-2.7,14.6-3.8,22.3-3.3
		c7.8,0.5,15.2,2.6,22.2,6.3l-2.6,5.5c-6.3-3.4-12.9-5.3-19.9-5.8c-6.9-0.5-13.7,0.6-20.3,3c-1.9,0.7-3.6,1.8-5.1,3.2
		c-1.5,1.4-2.7,3.1-3.5,5c-0.8,1.9-1.3,3.9-1.3,6c-0.1,2.1,0.3,4.2,1.1,6.3c2.2,6,4.5,12,6.6,17.8c2.2,5.9,4.4,11.8,6.6,17.6
		c2.2-1.6,4.4-3,6.7-4.3c2.3-1.3,4.6-2.3,6.9-3.2c13.5-5,27.3-4.6,41.5,1.3c14.2,5.9,24.1,16.3,29.8,31.4
		c5.4,14.6,4.9,28.8-1.7,42.7c-6.6,13.9-16.8,23.4-30.6,28.6c-14,5.2-28,4.6-42-1.8c-14-6.4-23.7-17.1-29.2-31.9
		c-1.6-4.3-3.2-8.7-4.9-13.1c-1.6-4.4-3.3-8.8-4.9-13.1c-1.6-4.3-3.2-8.7-4.9-13.1c-1.6-4.4-3.3-8.8-4.9-13.1
		C834.4,334.1,834.9,319.7,841.2,305.7z M894.4,382c4.7,12.5,9.3,25,13.9,37.5c1.6,4.2,4.3,7.2,8.3,9.1c4,1.9,7.9,2.1,11.8,0.6
		c12.3-4.6,21.4-13,27.4-25.3c6-12.3,6.6-25,1.7-38.1c-5.1-13.6-13.9-22.9-26.6-28c-12.7-5.1-25.1-5.3-37.2-0.8
		c-1.2,0.5-2.4,0.9-3.5,1.4c-1.1,0.5-2.2,1.1-3.3,1.8c-1.2,0.6-2.3,1.2-3.3,1.9c-1,0.7-2.1,1.5-3.1,2.4
		C885.1,357,889.7,369.5,894.4,382z"/>
</g>
<g id="XMLID_143_">
	<path id="XMLID_144_" class="st0" d="M712.6,501.6c-7.3,4.3-14.9,7.7-22.9,10c-8,2.4-16.2,3.6-24.7,3.6c-12.9,0-25-2.5-36.4-7.6
		c-11.4-5.1-21.3-12-29.7-20.7c-8.4-8.7-15-19-19.9-30.9c-4.9-11.9-7.3-24.5-7.3-37.8c0-4.5,0.4-9.1,1.1-13.7
		c0.7-4.6,1.7-9.1,3-13.4l8.4,2.6c-2.5,8.2-3.7,16.4-3.7,24.6c0,12.1,2.2,23.4,6.7,34.1c4.5,10.7,10.5,20,18.2,28
		c7.7,8,16.7,14.3,26.9,18.9c10.3,4.6,21.2,7,32.8,7c6.6,0,13.3-0.9,19.9-2.6c6.6-1.7,13-4.1,19-7.1V340.6c-6-3.4-12.3-6-19-7.6
		c-6.6-1.6-13.3-2.4-19.9-2.4c-13.1,0-24.9,2.9-35.3,8.6c-10.5,5.7-20.1,12.8-28.8,21.2v-93.8h98v9.1h-89.3v65
		c8.1-6.2,16.9-11,26.5-14.2c9.5-3.2,19.4-4.8,29.6-4.8c17,0,32.7,4.6,47,13.9V501.6z M718.5,339.3c12.5,9.3,22.1,20.7,29.1,34.4
		c6.9,13.7,10.4,28.5,10.4,44.5c0,16-3.4,30.9-10.3,44.9c-6.8,14-16.6,25.5-29.3,34.6V339.3z"/>
</g>
<g id="XMLID_151_">
	<path id="XMLID_152_" class="st0" d="M492.7,480.3l-15.9-8.1l-0.3,15.9l-9.2,0.2l-0.3-16.3l-16.1,8.1l-4.6-7.2l16.4-8.1l-16.6-8.3
		l4.9-7.2l16.4,8.3v-16.3h9.2l0.3,16.3l15.9-8.1l4.6,7.2l-16.1,8.1l16.4,8.3L492.7,480.3z"/>
</g>
<g id="XMLID_154_">
	<path id="XMLID_155_" class="st0" d="M832.1,452.8l-15.9-8.1l-0.3,15.9l-9.2,0.2l-0.3-16.3l-16.1,8.1l-4.6-7.2l16.4-8.1l-16.6-8.3
		l4.9-7.2l16.4,8.3v-16.3h9.2l0.3,16.3l15.9-8.1l4.6,7.2l-16.1,8.1l16.4,8.3L832.1,452.8z"/>
</g>
</svg>
