<?xml version="1.0" encoding="utf-8"?>
<!-- Generator: Adobe Illustrator 19.0.0, SVG Export Plug-In . SVG Version: 6.00 Build 0)  -->
<svg version="1.1" id="Layer_1" xmlns="http://www.w3.org/2000/svg" xmlns:xlink="http://www.w3.org/1999/xlink" x="0px" y="0px"
	 viewBox="-241 333 128 128" style="enable-background:new -241 333 128 128;" xml:space="preserve">
<style type="text/css">
	.st0{fill:none;}
	.st1{fill:#ED765D;}
	.st2{fill:#D14751;}
	.st3{fill:#FBB03B;}
	.st4{fill:#F7931E;}
	.st5{fill:#8CC63F;}
</style>
<circle id="XMLID_24_" class="st0" cx="-177" cy="397" r="63.8"/>
<g id="XMLID_3_">
	<path id="XMLID_22_" class="st1" d="M-134.6,401.3c0,1.7-1.2,3-2.8,3h-78.9c-1.5,0-2.8-1.4-2.8-3l0,0c0-1.7,1.2-3,2.8-3h78.9
		C-135.8,398.2-134.6,399.6-134.6,401.3L-134.6,401.3z"/>
	<path id="XMLID_21_" class="st2" d="M-134.6,409c0,2.6-1.2,4.7-2.8,4.7h-78.9c-1.5,0-2.8-2.1-2.8-4.7l0,0c0-2.6,1.2-4.7,2.8-4.7
		h78.9C-135.8,404.3-134.6,406.4-134.6,409L-134.6,409z"/>
	<path id="XMLID_20_" class="st3" d="M-190,398.7c0,0,21.3-2.2,30.4,12.5c0,0,17-3,17.2-13.4C-142.1,387.4-190,398.7-190,398.7z"/>
	<path id="XMLID_19_" class="st4" d="M-217,413.7c0.2,7.2,6,13.1,13,13.1h54.1c7.1,0,12.8-5.8,13-13.1H-217z"/>
	<path id="XMLID_17_" class="st5" d="M-135.9,393.7c0-0.1-0.1-0.1-0.1-0.2c-0.1-0.3-0.3-0.5-0.7-0.5h-80.4c-0.1,0-0.2,0-0.3,0.1
		c-0.3-0.1-0.6,0-0.8,0.3c-0.8,1.1-1.4,2.2-2.3,3.2c-0.7,0.7-0.5,1.5-0.3,2.3c0.4,1.4,2.1,2.1,3.3,1.5c1.6-0.8,3.1-2,4.9-1
		c1,0.5,1.5,1.9,2.5,2.1c0.9,0.2,1.8,0.3,2.7,0.1c1.4-0.4,5.3-3.5,6.6-1.4c1,1.6,2.6,2.9,4.6,2c2-1,3.7-2.3,5.4-0.3
		c0.3,0.4,1,0.8,1.5,0.7c1.1-0.2,1.5-0.7,2.3-1.6c0.5-0.5,0.8-1.1,1.2-1.7c1.4-1.9,3,0,4.1,0.8c0.6,0.5,0.8,0.9,1.7,0.9
		c2,0,3.2-3.9,5.8-0.6c1.1,1.5,2.4,2.2,4.3,0.9c4-2.8,3.8,1.7,7.2,1.9c0.6,0,1,0,1.5-0.5c2.1-1.8,3.4-3,6-1.2c0.7,0.5,4,3.5,5.2,2.3
		c1-1,0.8-3.6,3.1-3.2c1.4,0.2,2.7,1,4,1.4c0.8,0.3,1.3,0.3,2.1-0.2c0.4-0.3,0.9-0.8,1.2-1.1c1.7-1.6,1.6-0.4,2.5,0.4
		c1.1,1.1,3.2,0.8,3.9-0.5C-131.9,397.8-134.9,396.1-135.9,393.7z"/>
	<path id="XMLID_16_" class="st4" d="M-135.6,393.4c-0.8-14.6-12.9-26.1-27.6-26.1h-27.5c-14.8,0-26.8,11.6-27.6,26.1H-135.6z"/>
	<g id="XMLID_4_">
		<path id="XMLID_15_" class="st3" d="M-208.2,377.2c-0.9,0-0.9,1.4,0,1.4C-207.3,378.6-207.3,377.2-208.2,377.2z"/>
		<path id="XMLID_14_" class="st3" d="M-201.6,374c-0.9,0-0.9,1.4,0,1.4C-200.7,375.4-200.7,374-201.6,374z"/>
		<path id="XMLID_13_" class="st3" d="M-194.6,377.9c-0.9,0-0.9,1.4,0,1.4C-193.7,379.4-193.7,377.9-194.6,377.9z"/>
		<path id="XMLID_12_" class="st3" d="M-187.4,370.7c-0.9,0-0.9,1.4,0,1.4C-186.5,372.2-186.5,370.7-187.4,370.7z"/>
		<path id="XMLID_11_" class="st3" d="M-180.9,374.7c-0.9,0-0.9,1.4,0,1.4C-180,376.1-180,374.7-180.9,374.7z"/>
		<path id="XMLID_10_" class="st3" d="M-171.7,371.9c-0.9,0-0.9,1.4,0,1.4C-170.8,373.3-170.8,371.9-171.7,371.9z"/>
		<path id="XMLID_9_" class="st3" d="M-170.5,377.8c-0.9,0-0.9,1.4,0,1.4C-169.5,379.3-169.5,377.8-170.5,377.8z"/>
		<path id="XMLID_8_" class="st3" d="M-162.6,373.5c-0.9,0-0.9,1.4,0,1.4C-161.7,375-161.7,373.5-162.6,373.5z"/>
		<path id="XMLID_7_" class="st3" d="M-155.4,377.2c-0.9,0-0.9,1.4,0,1.4C-154.4,378.6-154.4,377.2-155.4,377.2z"/>
		<path id="XMLID_6_" class="st3" d="M-150.6,372.7c-0.9,0-0.9,1.4,0,1.4C-149.7,374.1-149.7,372.7-150.6,372.7z"/>
		<path id="XMLID_5_" class="st3" d="M-145.8,378.5c-0.9,0-0.9,1.4,0,1.4C-144.8,379.9-144.8,378.5-145.8,378.5z"/>
	</g>
</g>
</svg>
