<?xml version="1.0" encoding="utf-8"?>
<!-- Generator: Adobe Illustrator 19.0.0, SVG Export Plug-In . SVG Version: 6.00 Build 0)  -->
<svg version="1.1" id="Layer_1" xmlns="http://www.w3.org/2000/svg" xmlns:xlink="http://www.w3.org/1999/xlink" x="0px" y="0px"
	 viewBox="-241 333 128 128" style="enable-background:new -241 333 128 128;" xml:space="preserve">
<style type="text/css">
	.st0{fill:#26537C;}
	.st1{fill:none;}
	.st2{fill:#529B83;}
	.st3{fill:#88CEBF;}
	.st4{fill:#B8E2D9;}
	.st5{fill:#FFFFFF;}
	.st6{fill:#FFF6E8;}
	.st7{fill:#CFEBE5;}
</style>
<ellipse class="st0" cx="-177.2" cy="396.7" rx="63.8" ry="63.7"/>
<ellipse class="st1" cx="-177.2" cy="396.7" rx="63.8" ry="63.7"/>
<path class="st2" d="M-167,355v-0.7c0-3-2.5-5.5-5.5-5.5h-9.9c-3.1,0-5.5,2.4-5.5,5.5v0.7H-167z"/>
<rect x="-188" y="354" class="st3" width="21" height="4"/>
<rect x="-188" y="358" class="st4" width="21" height="8"/>
<path class="st3" d="M-158.4,382.8v-11.6c0-3.2-2.6-5.8-5.8-5.8h-24.5c-3.2,0-5.8,2.6-5.8,5.8v11.6H-158.4z"/>
<path class="st3" d="M-195.4,433.5c0.8,6.2,5.2,10.9,10.5,10.9h16.9c5.4,0,9.8-4.7,10.5-10.9H-195.4z"/>
<path class="st4" d="M-156,383.1v-0.4c0-2.1-0.5-4.7-2.3-4.7h-34.9c-1.7,0-3.8,2.6-3.8,4.7v0.4c0,2.1,1.7,3.5,3.5,3.5
	c-1.7,0-3.5,2-3.5,4.1v0.4c0,2.1,1.7,4.3,3.5,4.3c-1.7,0-3.5,1.2-3.5,3.3v0.4c0,2.1,1.7,4,3.5,4c-1.7,0-3.5,1.5-3.5,3.7v0.4
	c0,2.1,1.7,3.6,3.5,3.6c-1.7,0-3.5,1.9-3.5,4v0.4c0,2.1,1.7,3.3,3.5,3.3c-1.7,0-3.5,2.2-3.5,4.3v0.4c0,2.1,1.7,4.1,3.5,4.1
	c-1.7,0-3.5,1.5-3.5,3.6v0.4c0,2.1,2.1,3.1,3.8,3.1h34.9c1.7,0,2.3-1,2.3-3.1v-0.4c0-2.1-0.3-3.6-2-3.6c1.7,0,2-2,2-4.1v-0.4
	c0-2.1-0.3-4.3-2-4.3c1.7,0,2-1.2,2-3.3v-0.4c0-2.1-0.3-4-2-4c1.7,0,2-1.5,2-3.6v-0.4c0-2.1-0.3-3.7-2-3.7c1.7,0,2-1.9,2-4v-0.4
	c0-2.1-0.3-3.3-2-3.3c1.7,0,2-2.2,2-4.3v-0.4c0-2.1-0.3-4.1-2-4.1C-156.3,386.6-156,385.2-156,383.1z"/>
<g>
	<polygon class="st5" points="-144.1,444.1 -160.6,444.3 -164.1,401.8 -142.3,401.6 	"/>
	<polygon class="st6" points="-159,442.5 -162.2,403.6 -144.1,403.3 -145.8,442.3 	"/>
	<polygon class="st7" points="-161.3,415.4 -159,442.8 -145.8,442.6 -144.6,415.1 	"/>
</g>
</svg>
