<?xml version="1.0" encoding="utf-8"?>
<!-- Generator: Adobe Illustrator 19.0.0, SVG Export Plug-In . SVG Version: 6.00 Build 0)  -->
<svg version="1.1" id="Layer_1" xmlns="http://www.w3.org/2000/svg" xmlns:xlink="http://www.w3.org/1999/xlink" x="0px" y="0px"
	 viewBox="-241 333 128 128" style="enable-background:new -241 333 128 128;" xml:space="preserve">
<style type="text/css">
	.st0{fill:#88C5CC;}
	.st1{fill:#E6E6E6;}
	.st2{fill:#CCCCCC;}
	.st3{fill:none;}
</style>
<circle class="st0" cx="-177" cy="397" r="64"/>
<path class="st1" d="M-149.6,352.7c-10.2-2.9-13.8-12.3-14.9-18.5c-4-0.8-8.2-1.2-12.5-1.2c-4.3,0-8.5,0.4-12.6,1.2
	c-1.1,6.2-4.9,15.6-15.1,18.5c-10.6,3-21.5,2.7-31.6,20.1c-3.1,7.5-4.7,15.6-4.7,24.2c0,9.6,2.1,18.7,5.9,26.8
	c12.3-10.5,15-38.7,19.8-38.7c5.1,0,5.9,8.1,5.9,16.8c0,8.7,3.8,17.8,3.8,23.1c0,4-4.2,12.5-6.3,25.7c10,6.5,22,10.4,34.9,10.4
	c12.9,0,24.8-3.8,34.9-10.3c-2.1-13.2-6.3-21.7-6.3-25.7c0-5.3,3.8-14.3,3.8-23s0.8-16.8,5.9-16.8c5,0,6.4,32.3,18.6,41.2
	c4.6-8.8,7.1-18.8,7.1-29.4c0-7.5-1.3-14.6-3.7-21.3C-127.2,355.4-138.5,355.9-149.6,352.7z"/>
<path class="st2" d="M-173.2,337v2c0,0.6-0.4,1-1,1h-6c-0.6,0-1-0.4-1-1v-2c0-0.6,0.4-1,1-1h6C-173.7,336-173.2,336.4-173.2,337z
	 M-174.2,341h-6c-0.6,0-1,0.4-1,1v2c0,0.6,0.4,1,1,1h6c0.6,0,1-0.4,1-1v-2C-173.2,341.4-173.7,341-174.2,341z M-174.2,346h-6
	c-0.6,0-1,0.4-1,1v2c0,0.6,0.4,1,1,1h6c0.6,0,1-0.4,1-1v-2C-173.2,346.4-173.7,346-174.2,346z M-174.2,351h-6c-0.6,0-1,0.4-1,1v2
	c0,0.6,0.4,1,1,1h6c0.6,0,1-0.4,1-1v-2C-173.2,351.4-173.7,351-174.2,351z M-174.2,356h-6c-0.6,0-1,0.4-1,1v2c0,0.6,0.4,1,1,1h6
	c0.6,0,1-0.4,1-1v-2C-173.2,356.4-173.7,356-174.2,356z M-174.2,361h-6c-0.6,0-1,0.4-1,1v2c0,0.6,0.4,1,1,1h6c0.6,0,1-0.4,1-1v-2
	C-173.2,361.4-173.7,361-174.2,361z M-174.2,366h-6c-0.6,0-1,0.4-1,1v2c0,0.6,0.4,1,1,1h6c0.6,0,1-0.4,1-1v-2
	C-173.2,366.4-173.7,366-174.2,366z M-174.2,371h-6c-0.6,0-1,0.4-1,1v2c0,0.6,0.4,1,1,1h6c0.6,0,1-0.4,1-1v-2
	C-173.2,371.4-173.7,371-174.2,371z M-174.2,376h-6c-0.6,0-1,0.4-1,1v2c0,0.6,0.4,1,1,1h6c0.6,0,1-0.4,1-1v-2
	C-173.2,376.4-173.7,376-174.2,376z M-174.2,381h-6c-0.6,0-1,0.4-1,1v2c0,0.6,0.4,1,1,1h6c0.6,0,1-0.4,1-1v-2
	C-173.2,381.4-173.7,381-174.2,381z M-174.2,386h-6c-0.6,0-1,0.4-1,1v2c0,0.6,0.4,1,1,1h6c0.6,0,1-0.4,1-1v-2
	C-173.2,386.4-173.7,386-174.2,386z M-174.2,391h-6c-0.6,0-1,0.4-1,1v2c0,0.6,0.4,1,1,1h6c0.6,0,1-0.4,1-1v-2
	C-173.2,391.4-173.7,391-174.2,391z M-174.2,396h-6c-0.6,0-1,0.4-1,1v2c0,0.6,0.4,1,1,1h6c0.6,0,1-0.4,1-1v-2
	C-173.2,396.4-173.7,396-174.2,396z M-174.2,401h-6c-0.6,0-1,0.4-1,1v2c0,0.6,0.4,1,1,1h6c0.6,0,1-0.4,1-1v-2
	C-173.2,401.4-173.7,401-174.2,401z M-174.2,406h-6c-0.6,0-1,0.4-1,1v2c0,0.6,0.4,1,1,1h6c0.6,0,1-0.4,1-1v-2
	C-173.2,406.4-173.7,406-174.2,406z M-174.2,411h-6c-0.6,0-1,0.4-1,1v2c0,0.6,0.4,1,1,1h6c0.6,0,1-0.4,1-1v-2
	C-173.2,411.4-173.7,411-174.2,411z M-174.2,416h-6c-0.6,0-1,0.4-1,1v2c0,0.6,0.4,1,1,1h6c0.6,0,1-0.4,1-1v-2
	C-173.2,416.4-173.7,416-174.2,416z M-174.2,421h-6c-0.6,0-1,0.4-1,1v2c0,0.6,0.4,1,1,1h6c0.6,0,1-0.4,1-1v-2
	C-173.2,421.4-173.7,421-174.2,421z M-174.2,426h-6c-0.6,0-1,0.4-1,1v2c0,0.6,0.4,1,1,1h6c0.6,0,1-0.4,1-1v-2
	C-173.2,426.4-173.7,426-174.2,426z M-174.2,431h-6c-0.6,0-1,0.4-1,1v2c0,0.6,0.4,1,1,1h6c0.6,0,1-0.4,1-1v-2
	C-173.2,431.4-173.7,431-174.2,431z M-174.2,436h-6c-0.6,0-1,0.4-1,1v2c0,0.6,0.4,1,1,1h6c0.6,0,1-0.4,1-1v-2
	C-173.2,436.4-173.7,436-174.2,436z"/>
<path class="st2" d="M-184.2,391h-6c-0.2,0-7.6,0.6-7.6,0.6l-2.7,0.1l-1.3,0.1c-0.2,0-0.4,0-0.8,0.1c-0.3,0.1-0.6,0.1-0.8,0.2
	c-1,0.4-1.9,1-2.6,1.8c-0.7,0.9-1,2-0.9,3.1c0,0.4,0.4,0.7,0.8,0.8c0.4,0,1-0.3,1-0.8v0c0-0.7,0.2-1.4,0.7-1.8c0.5-0.5,1-0.8,1.7-1
	c0.2,0,0.3-0.1,0.5-0.1l0.5,0l1.3,0.1l2.7,0.1c0,0,7.4,0.6,7.6,0.6h3h0.2h2.8c0.6,0,1-0.4,1-1v-2C-183.2,391.4-183.7,391-184.2,391z
	"/>
<path class="st2" d="M-184.2,401h-6c-0.2,0-7.6,0.6-7.6,0.6l-2.7,0.1l-1.3,0.1c-0.2,0-0.4,0-0.8,0.1c-0.3,0.1-0.6,0.1-0.8,0.2
	c-1,0.4-1.9,1-2.6,1.8c-0.7,0.9-1,2-0.9,3.1c0,0.4,0.4,0.7,0.8,0.8c0.4,0,1-0.3,1-0.8v0c0-0.7,0.2-1.4,0.7-1.8c0.5-0.5,1-0.8,1.7-1
	c0.2,0,0.3-0.1,0.5-0.1l0.5,0l1.3,0.1l2.7,0.1c0,0,7.4,0.6,7.6,0.6h3h0.2h2.8c0.6,0,1-0.4,1-1v-2C-183.2,401.4-183.7,401-184.2,401z
	"/>
<path class="st2" d="M-184.2,381h-6c-0.2,0-7.6,0.6-7.6,0.6l-2.7,0.1l-1.3,0.1c-0.2,0-0.4,0-0.8,0.1c-0.3,0.1-0.6,0.1-0.8,0.2
	c-1,0.4-1.9,1-2.6,1.8c-0.7,0.9-1,2-0.9,3.1c0,0.4,0.4,0.7,0.8,0.8c0.4,0,1-0.3,1-0.8v0c0-0.7,0.2-1.4,0.7-1.8c0.5-0.5,1-0.8,1.7-1
	c0.2,0,0.3-0.1,0.5-0.1l0.5,0l1.3,0.1l2.7,0.1c0,0,7.4,0.6,7.6,0.6h3h0.2h2.8c0.6,0,1-0.4,1-1v-2C-183.2,381.4-183.7,381-184.2,381z
	"/>
<path class="st2" d="M-184.2,371h-6c-0.2,0-7.6,0.6-7.6,0.6l-2.7,0.1l-1.3,0.1c-0.2,0-0.4,0-0.8,0.1c-0.3,0.1-0.6,0.1-0.8,0.2
	c-1,0.4-1.9,1-2.6,1.8c-0.7,0.9-1,2-0.9,3.1c0,0.4,0.4,0.7,0.8,0.8c0.4,0,1-0.3,1-0.8v0c0-0.7,0.2-1.4,0.7-1.8c0.5-0.5,1-0.8,1.7-1
	c0.2,0,0.3-0.1,0.5-0.1l0.5,0l1.3,0.1l2.7,0.1c0,0,7.4,0.6,7.6,0.6h3h0.2h2.8c0.6,0,1-0.4,1-1v-2C-183.2,371.4-183.7,371-184.2,371z
	"/>
<path class="st2" d="M-170.2,391h6c0.2,0,7.6,0.6,7.6,0.6l2.7,0.1l1.3,0.1c0.2,0,0.4,0,0.8,0.1c0.3,0.1,0.6,0.1,0.8,0.2
	c1,0.4,1.9,1,2.6,1.8c0.7,0.9,1,2,0.9,3.1c0,0.4-0.4,0.7-0.8,0.8c-0.4,0-1-0.3-1-0.8v0c0-0.7-0.2-1.4-0.7-1.8c-0.5-0.5-1-0.8-1.7-1
	c-0.2,0-0.3-0.1-0.5-0.1l-0.5,0l-1.3,0.1l-2.7,0.1c0,0-7.4,0.6-7.6,0.6h-3h-0.2h-2.8c-0.6,0-1-0.4-1-1v-2
	C-171.2,391.4-170.8,391-170.2,391z"/>
<path class="st2" d="M-170.2,401h6c0.2,0,7.6,0.6,7.6,0.6l2.7,0.1l1.3,0.1c0.2,0,0.4,0,0.8,0.1c0.3,0.1,0.6,0.1,0.8,0.2
	c1,0.4,1.9,1,2.6,1.8c0.7,0.9,1,2,0.9,3.1c0,0.4-0.4,0.7-0.8,0.8c-0.4,0-1-0.3-1-0.8v0c0-0.7-0.2-1.4-0.7-1.8c-0.5-0.5-1-0.8-1.7-1
	c-0.2,0-0.3-0.1-0.5-0.1l-0.5,0l-1.3,0.1l-2.7,0.1c0,0-7.4,0.6-7.6,0.6h-3h-0.2h-2.8c-0.6,0-1-0.4-1-1v-2
	C-171.2,401.4-170.8,401-170.2,401z"/>
<path class="st2" d="M-170.2,381h6c0.2,0,7.6,0.6,7.6,0.6l2.7,0.1l1.3,0.1c0.2,0,0.4,0,0.8,0.1c0.3,0.1,0.6,0.1,0.8,0.2
	c1,0.4,1.9,1,2.6,1.8c0.7,0.9,1,2,0.9,3.1c0,0.4-0.4,0.7-0.8,0.8c-0.4,0-1-0.3-1-0.8v0c0-0.7-0.2-1.4-0.7-1.8c-0.5-0.5-1-0.8-1.7-1
	c-0.2,0-0.3-0.1-0.5-0.1l-0.5,0l-1.3,0.1l-2.7,0.1c0,0-7.4,0.6-7.6,0.6h-3h-0.2h-2.8c-0.6,0-1-0.4-1-1v-2
	C-171.2,381.4-170.8,381-170.2,381z"/>
<path class="st2" d="M-170.2,371h6c0.2,0,7.6,0.6,7.6,0.6l2.7,0.1l1.3,0.1c0.2,0,0.4,0,0.8,0.1c0.3,0.1,0.6,0.1,0.8,0.2
	c1,0.4,1.9,1,2.6,1.8c0.7,0.9,1,2,0.9,3.1c0,0.4-0.4,0.7-0.8,0.8c-0.4,0-1-0.3-1-0.8v0c0-0.7-0.2-1.4-0.7-1.8c-0.5-0.5-1-0.8-1.7-1
	c-0.2,0-0.3-0.1-0.5-0.1l-0.5,0l-1.3,0.1l-2.7,0.1c0,0-7.4,0.6-7.6,0.6h-3h-0.2h-2.8c-0.6,0-1-0.4-1-1v-2
	C-171.2,371.4-170.8,371-170.2,371z"/>
<path class="st2" d="M-157.1,438c0,0-0.2,0-0.2,0v0c-7,0-14.2,10-20.2,10c-4.7,0-9.9-6.2-15.4-8.9c-1.2-0.7-2.4-1.1-3.7-1.1
	c0,0,0,0,0,0c-0.1,0-0.3,0-0.4,0c0,0-0.1,0-0.1,0c-0.1,0-0.1,0-0.2,0v0c-5.8,0.2-10.5,6.8-10.7,15c9.2,5.1,19.7,8,31,8
	s21.8-2.9,31-8C-146.2,444.7-151.1,438-157.1,438z"/>
<circle class="st3" cx="-177" cy="397" r="64"/>
</svg>
